<svg xmlns="http://www.w3.org/2000/svg" viewBox="0 0 252 152"><style>.st0{display:none}.st1{display:inline}.st2{fill:#241f21}.st3{fill:#fff}.st4{fill:#ed9621}.st5{display:inline}.st5,.st6{fill:#221f1f}.st7,.st8{display:inline;fill:#ee9721}.st8{fill:#fff}</style><g id="Layer_2" class="st0"><path class="st1" d="M-450-108h737v483h-737z"/><g class="st1"><path class="st2" d="M366.7 103.1l-.3-2.8 2.1-.3.1-3.1-1.3-.7.5-2.3h-17.3l.3 2.1h-.9l1.4 1.4.1 2.3 1.7 1 .2 2.5 3.2 3 1.3 3 7.6.1.4-2.5 4.7-.4-.1-3.1zM368.9 113.6l-2.1-.1.3-3.2h-1.3l-8.1-.2-2.6 2.3v.6l.7 1v8.2l.7.6h.1l.1-4.2 13.8-.1.2-3.6h-1.8z"/><path class="st2" d="M380.1 101.7v3.7h-2.9v2H371l-4.4.3-.2 1.6 1.7.1-.3 3.2 2.1.1v1.2h1.8l-.2 4.6 17.1-.5-1-14.7h-4.7zM347.7 95.2l2.2-.1-.4-1.2-13.4-.6-.3 6.1 2 2.9 1.8 2.4 1.9 2.6-2 6.8 1.1 1.2 2.7-1.4 3.2-.7-.6-3.8.7-3.4 1.2-.2.7-6.2 1.9-.1v-1.7z"/><path class="st3" d="M345.9 109.4l.6 3.8-3.2.7-2.7 1.4-1.1-1.2 2-6.9-1.9-2.5-3.8-5.3.3-6.1 13.5.6.4 1.2-2.3.2 2.7 2.6.1 1.7-1.9.1-.7 6.2-1.2.1-.8 3.4zm5.4-12l-1.4-1.3.9-.1-.1-3-15.4-.6-.4 7.2 2.2 3.1 1.7 2.5 1.7 2.3-2 6.9 1.9 2.1 3.2-1.7 4-.9-.7-4.5.6-2.6 1.3-.2.7-6.2 2.1-.1-.3-2.9z"/><path class="st4" d="M369.6 96.3l-.2 4.6-2 .2.2 1.1 3.8.2.1 4h4.7v-2h2.9v-4.3l4.1 2.2h4.4l-.6-9.1-18.2.7-.3 1.9z"/><path class="st3" d="M387.6 102.3h-4.4l-4.1-2.3v4.4h-2.9v2h-4.8l-.1-4-3.8-.2-.1-1.1 2-.2.1-4.6-1.1-.5.3-1.9 18.2-.7.7 9.1zm-19.5-9.4l-.9 3.4 1.3.6-.1 3.1-2.1.2.4 2.8 3.7.2.1 4h6.7v-2h2.9v-3.7l2.8 1.6h5.6l-.5-10.9-19.9.7z"/><path class="st3" d="M365.4 109.3l-7.6-.1-1.3-3-3.1-3.1-.2-2.5-1.7-1-.1-2.3L350 96l.9-.1-.3-2.1h17.3l-.5 2.4 1.3.7-.1 3.1-2.1.2.4 2.8 3.7.2.1 3.1-4.8.4-.5 2.6zm6-6.9l-3.8-.2-.1-1.1 2-.2.1-4.6-1.1-.5.7-2.9h-19.5l.3 2.1-2.3.2 2.7 2.6.1 2.5 1.7 1 .2 2.4 3.2 3.1 1.5 3.5 9.1.1.4-2.6 4.9-.4-.1-5z"/><path class="st2" d="M354.1 112l2.8-2.5-1.3-2.8-3.2-3.1-.2-2.3-1.4-.8h-1.4l-.7 6.2-1.3.2-.6 2.6.8 4.5-3.7.8.2 1.8 1.7 2 1.5 3 2.5.4 2.2.8 1.7-2.4 1.1 1v-7.1l-.7-1z"/><path class="st3" d="M354.8 121.4l-1.1-.9-1.7 2.4-2.2-.8-2.4-.4-1.5-3-1.7-2-.2-1.8 3.7-.8-.7-4.5.6-2.6 1.3-.2.7-6.2 1.4-.1 1.4.8.2 2.4 3.2 3.1 1.3 2.8-2.8 2.5v1.3l.7 1v7zm.3-9l3-2.6-1.6-3.6-3.1-3.1-.2-2.5-2-1.2-2.5.1-.7 6.2-1.2.2-.8 3.4.6 3.8-3.6.8.4 3 1.8 2.2 1.7 3.3 2.8.4 2.8 1 1.5-2.1 1.9 1.6V114l-.7-1v-.6z"/><path class="st3" d="M370.5 118.5l-13.9.1-.1 4.1h-.1l-.7-.6V114l-.7-1v-.6l2.6-2.3 8.1.1 1.3.1-.3 3.2 2.1.1v1.3h1.8l-.1 3.6zm-.6-4.6v-1.2l-2-.1.3-3.2-10.8-.2-3.2 2.8v1.3l.7 1v8.3l1.3 1.1h1.5l.1-4.2 13.8-.1.2-5.5h-1.9z"/><path class="st3" d="M388.1 117.7l-16.6.8.2-4.6h-1.8v-1.2l-2-.1.3-3.2-1.8-.1.2-1.6 4.4-.3h6.2v-2h2.9v-3.7l2.8 1.6h4.6l.6 14.4zm-4.9-15.4l-4.1-2.3v4.3h-2.9v2H371l-5.2.4-.5 3.4 1.8.1-.3 3.2 2.1.1v1.3h1.8l-.2 4.6 18.8-.8-.7-16.4h-5.4z"/></g></g><g id="Layer_1"><path class="st3" d="M75.1 25.2l6 6.7-.8-8.9 3.5-1.5 4.9 11.4-2.3 1-3.4-8.1.7 9.3-1.9.8-6.2-6.8 3.4 8-2.3 1-4.9-11.4 3.3-1.5zM89.7 23.8c.1-.8.4-1.6.7-2.3.4-.7.9-1.3 1.6-1.8.7-.5 1.5-.8 2.4-1 .9-.2 1.8-.2 2.6 0s1.5.5 2.2 1c.6.5 1.2 1.1 1.6 1.8.4.7.8 1.5.9 2.4.2.9.2 1.7.1 2.6-.1.8-.4 1.6-.7 2.2-.4.7-.9 1.3-1.6 1.7-.7.5-1.5.8-2.4 1-.9.2-1.8.2-2.6.1-.8-.2-1.5-.5-2.2-.9-.6-.5-1.2-1-1.6-1.7-.4-.7-.7-1.5-.9-2.4-.2-1-.2-1.9-.1-2.7zm3.3 3.4c.2.5.5.8.8 1.2.3.3.7.6 1.2.7.5.1 1 .1 1.6 0 .6-.1 1.1-.4 1.5-.7.4-.3.6-.7.8-1.1.2-.4.3-.9.3-1.4 0-.5 0-1-.1-1.5s-.3-1-.5-1.5-.5-.9-.9-1.2c-.3-.3-.8-.6-1.2-.7-.5-.1-1-.1-1.6 0-.6.1-1.1.4-1.5.7-.4.3-.6.7-.8 1.2-.2.4-.3.9-.3 1.5 0 .5 0 1.1.2 1.6.1.3.3.8.5 1.2zM107.1 16.9l6 7.7-.9-8.3 2.5-.3 1.3 12.3-2.7.3-6-7.7.9 8.3-2.5.3-1.3-12.3 2.7-.3zM118.1 18.2l-.1-2.3 10.2-.2.1 2.3-3.7.1.2 10.1-2.7.1-.2-10.1h-3.8zM135.9 15.9l4.1 12.6-2.8-.1-.8-2.8-4.6-.2-1.1 2.7-2.7-.1 5.2-12.2 2.7.1zm-.1 7.6l-1.4-4.6-1.8 4.5 3.2.1zM146.2 16.7l4.1 8.9 1-8.2 2.5.3-1.4 12.3-2.7-.3-4.1-8.9-1 8.2-2.5-.3 1.5-12.3 2.6.3zM164.4 19.9L166 33l-2.8-.7-.3-2.9-4.5-1.1-1.6 2.5-2.7-.6 7.4-11 2.9.7zm-1.6 7.4l-.5-4.8-2.6 4.1 3.1.7zM172.9 22.4l-.8 2.5c-.1.4-.3.7-.5 1-.2.3-.5.5-.8.7-.3.2-.6.3-.9.3-.3.1-.7.1-1 0l.4-1.1c.5 0 .8-.1 1.1-.3.2-.2.4-.5.6-1l-1.1-.4.9-2.5 2.1.8zM174.1 32.9c0 .3.1.6.2.9s.3.5.6.7l.9.6c.2.1.5.2.7.3.3.1.5.1.8.1s.5 0 .8-.2c.2-.1.4-.3.6-.6.1-.3.2-.6.1-.9-.1-.3-.3-.6-.5-.8-.2-.3-.5-.6-.9-.9-.3-.3-.7-.6-1-.9-.4-.3-.7-.6-1-1-.3-.3-.6-.7-.8-1.1-.2-.4-.3-.8-.3-1.3s.1-.9.4-1.4c.3-.6.6-1 1.1-1.3.5-.3.9-.5 1.5-.6.5-.1 1.1-.1 1.6 0 .6.1 1.1.3 1.6.5.6.3 1.1.6 1.6 1s.8.8 1.1 1.3c.3.5.4 1 .4 1.6 0 .6-.1 1.2-.4 1.8l-2.4-1.2c.1-.3.2-.7.2-.9 0-.3-.1-.5-.2-.7-.1-.2-.3-.4-.5-.6-.2-.2-.5-.3-.8-.5-.2-.1-.4-.2-.6-.2-.2-.1-.4-.1-.6 0-.2 0-.4.1-.6.2-.2.1-.3.3-.4.5-.1.2-.2.4-.1.6s.1.4.3.6l.8.8c.4.3.9.8 1.5 1.3.2.1.4.4.8.7.3.3.6.6.8 1.1.2.4.4.9.5 1.4.1.5-.1 1.1-.4 1.7-.3.5-.6.9-1 1.3-.4.3-.9.6-1.4.7-.5.1-1.1.1-1.8 0s-1.4-.4-2.1-.7c-.6-.3-1.2-.7-1.7-1.1-.5-.4-.9-.9-1.2-1.5-.3-.5-.4-1.1-.4-1.7 0-.6.2-1.3.5-2l2.4 1.2c-.6.5-.7.9-.7 1.2zM104.6 53.3c-9.9 3.2-17.8 8.4-21.8 14.9H9.4v2.2H84l.3-.6c3.5-6.1 10.7-11 19.8-14.1l.6-2.2-.1-.2zM171.3 68.2c-3.8-6.1-11-11.1-20.1-14.3l.1 2.4c8.4 3.1 15 7.8 18.4 13.5l.3.6h74.6v-2.2h-73.3zM102.3 48.6l1.6 2.3-3.6-5.1zM150 49.6z"/><g class="st0"><path class="st5" d="M117.9 57.9l2.7-2.3-1.3-2.8-.2-.2-2.1-2-.7-.7-.3-2.3-1.3-.7h-1.3l-.5 4.3-.2 1.6-1 .2h-.2l-.2.8-.2.8-.2.9.4 2.6.3 1.7-3.5.8.2 1.7 1.6 2 1.5 2.9 2.3.3 2.1.8 1.7-2.3 1.1.9v-6.8l-.7-.9z"/><path class="st5" d="M133.7 52.5l-.1-2.3v-.6l-2.2-.1-1.4-.1-.2-1.2-.1-1.5 2-.3.1-2.9v-.1l-1.3-.6.5-2.3h-16.4l.1 2-.9.1 1.4 1.3.1 1.6v.6l1.6.9.2 2.4 1.1 1.1 1.9 1.9.1.1 1.2 2.7 7.3.1.4-2.4 4.6-.3z"/><path class="st5" d="M150.6 63.4l-.3-7.5-.1-2.3-.2-4h-4.4l-2.7-1.6v3.6H140.1v1.9h-6l-4.2.3-.2 1.6h1.7l-.3 3.1 1.9.1v1.2h1.8l-.2 4.4z"/><g class="st1"><path class="st6" d="M114.3 44.5v-.2l-2.6-2.5h.8l1.4-.2-.4-1.1-13-.6-.2 5.9 3.6 5.1 1.6 2.1.3.4-.6 2-1.3 4.6 1 1.1 2.2-1.1.4-.2 3.1-.7-.3-1.6-.3-2 .1-.7.2-.8.4-1.9 1-.1h.2v-.6l.6-5.4h.5l1.4-.1z"/></g><path class="st7" d="M149.5 39.8l-17.4.7-.4 1.8 1 .5v.1l-.1 2.9v1.5l-1.9.2.1 1 3.7.2v1.6l.1 2.2h4.6V50.6h2.7V46.4l3.9 2.2h4.2z"/><path class="st8" d="M131.7 42.3zM131.8 43.4l-1.3-.6z"/><path class="st5" d="M131.8 43.4l-1.3-.6z"/><path class="st8" d="M112.7 52.8l-1 .2 1-.2z"/><path class="st5" d="M112.7 52.8l-1 .2 1-.2zM130.4 56.3h-1.3l-7.8-.2-2.5 2.2v.6l.7.9v7.9l.7.6h.1l.1-4 13.3-.1.1-3.5h-1.7v-1.2l-2-.1z"/><path class="st8" d="M118.8 58.9v-.6.6l.7.9v7.9-7.9z"/><path class="st5" d="M118.8 58.9v-.6.6l.7.9v7.9-7.9z"/><path class="st8" d="M142.9 51.6V48v3.6h-.2z"/><path class="st5" d="M142.9 51.6V48v3.6h-.2z"/><path class="st8" d="M140.1 51.6h2.6-2.6z"/><path class="st5" d="M140.1 51.6h2.6-2.6z"/><path class="st8" d="M134.6 64.2z"/></g><g><path class="st3" d="M13.2 86.3l6.7 17.9 6.8-17.9h3.9v21.3h-2.7V89.9h-.1l-6.7 17.8h-2.4L12 89.9v17.8H9.3V86.3h3.9zM38.3 86.3v21.3h-2.8V86.3h2.8zM53.7 89.2c-.9-.7-2.2-1-3.6-1-.6 0-1.2.1-1.8.2-.6.1-1.1.3-1.5.6-.4.3-.8.7-1.1 1.1-.3.5-.4 1.1-.4 1.7 0 .7.2 1.2.6 1.6.4.4.9.7 1.6 1 .6.3 1.4.5 2.2.6.8.2 1.6.4 2.5.6.8.2 1.7.4 2.5.7.8.3 1.5.6 2.2 1.1.6.5 1.2 1 1.6 1.7.4.7.6 1.6.6 2.6 0 1.1-.3 2.1-.8 2.9-.5.8-1.2 1.5-2 2s-1.7.9-2.7 1.1c-1 .2-2 .3-2.9.3-1.2 0-2.3-.1-3.4-.4-1.1-.3-2-.8-2.8-1.4-.8-.6-1.4-1.4-1.9-2.3-.5-.9-.7-2.1-.7-3.4h2.7c0 .9.2 1.7.5 2.3.3.6.8 1.2 1.4 1.6.6.4 1.2.7 2 .9.8.2 1.5.3 2.3.3.6 0 1.3-.1 1.9-.2.6-.1 1.2-.3 1.8-.6.5-.3.9-.7 1.3-1.2.3-.5.5-1.1.5-1.9 0-.7-.2-1.3-.6-1.8-.4-.5-.9-.8-1.6-1.1-.6-.3-1.4-.5-2.2-.7-.8-.2-1.7-.4-2.5-.6-.8-.2-1.7-.4-2.5-.7-.8-.2-1.5-.6-2.2-1s-1.2-.9-1.6-1.6c-.4-.6-.6-1.5-.6-2.4 0-1.1.2-2 .7-2.8.4-.8 1-1.4 1.8-1.9.7-.5 1.6-.9 2.5-1.1.9-.2 1.9-.4 2.9-.4 1.1 0 2.1.1 3.1.4.9.3 1.8.7 2.5 1.2.7.6 1.3 1.3 1.7 2.1.4.8.6 1.9.7 3h-2.7c-.5-1.3-1-2.4-2-3.1zM73.1 89.2c-.9-.7-2.2-1-3.6-1-.6 0-1.2.1-1.8.2-.6.1-1.1.3-1.5.6-.4.3-.8.7-1.1 1.1-.3.5-.4 1.1-.4 1.7 0 .7.2 1.2.6 1.6.4.4.9.7 1.6 1 .6.3 1.4.5 2.2.6.8.2 1.6.4 2.5.6.8.2 1.7.4 2.5.7.8.3 1.5.6 2.2 1.1.6.5 1.2 1 1.6 1.7.4.7.6 1.6.6 2.6 0 1.1-.3 2.1-.8 2.9-.5.8-1.2 1.5-2 2s-1.7.9-2.7 1.1c-1 .2-2 .3-2.9.3-1.2 0-2.3-.1-3.4-.4-1.1-.3-2-.8-2.8-1.4-.8-.6-1.4-1.4-1.9-2.3-.5-.9-.7-2.1-.7-3.4H64c0 .9.2 1.7.5 2.3.3.6.8 1.2 1.4 1.6.6.4 1.2.7 2 .9.8.2 1.5.3 2.3.3.6 0 1.3-.1 1.9-.2.6-.1 1.2-.3 1.8-.6.5-.3.9-.7 1.3-1.2.3-.5.5-1.1.5-1.9 0-.7-.2-1.3-.6-1.8-.4-.5-.9-.8-1.6-1.1-.6-.3-1.4-.5-2.2-.7-.8-.2-1.7-.4-2.5-.6-.8-.2-1.7-.4-2.5-.7-.8-.2-1.5-.6-2.2-1s-1.2-.9-1.6-1.6c-.4-.6-.6-1.5-.6-2.4 0-1.1.2-2 .7-2.8.4-.8 1-1.4 1.8-1.9.7-.5 1.6-.9 2.5-1.1.9-.2 1.9-.4 2.9-.4 1.1 0 2.1.1 3.1.4.9.3 1.8.7 2.5 1.2.7.6 1.3 1.3 1.7 2.1.4.8.6 1.9.7 3h-2.7c-.5-1.3-1-2.4-2-3.1zM81.2 92.8c.4-1.3 1.1-2.5 1.9-3.6.9-1 1.9-1.9 3.2-2.5s2.8-.9 4.5-.9c1.7 0 3.2.3 4.5.9s2.3 1.4 3.2 2.5c.9 1 1.5 2.2 1.9 3.6.4 1.3.6 2.7.6 4.2s-.2 2.9-.6 4.2c-.4 1.3-1.1 2.5-1.9 3.6-.9 1-1.9 1.9-3.2 2.5s-2.8.9-4.5.9c-1.7 0-3.2-.3-4.5-.9s-2.3-1.4-3.2-2.5c-.9-1-1.5-2.2-1.9-3.6-.4-1.3-.6-2.7-.6-4.2s.2-2.9.6-4.2zm2.7 7.4c.3 1 .7 2 1.3 2.8.6.8 1.4 1.5 2.3 2 .9.5 2.1.8 3.3.8 1.3 0 2.4-.3 3.3-.8.9-.5 1.7-1.2 2.3-2 .6-.8 1-1.8 1.3-2.8.3-1 .4-2.1.4-3.2s-.1-2.1-.4-3.2-.7-2-1.3-2.8c-.6-.8-1.4-1.5-2.3-2-.9-.5-2.1-.8-3.3-.8-1.3 0-2.4.3-3.3.8-.9.5-1.7 1.2-2.3 2-.6.8-1 1.8-1.3 2.8s-.4 2.1-.4 3.2c-.1 1.1.1 2.1.4 3.2zM119.4 106.1c-1.5 1.4-3.5 2-6.2 2-2.8 0-4.9-.7-6.4-2s-2.3-3.4-2.3-6.2V86.3h2.8V100c0 1.9.5 3.4 1.5 4.4 1 1 2.5 1.5 4.4 1.5 1.8 0 3.2-.5 4.1-1.5.9-1 1.4-2.4 1.4-4.4V86.3h2.8V100c.1 2.7-.7 4.7-2.1 6.1zM136.2 86.3c2 0 3.6.5 4.8 1.5 1.1 1 1.7 2.4 1.7 4.1 0 1.3-.3 2.4-.9 3.4s-1.5 1.6-2.8 2v.1c.6.1 1.1.3 1.5.6s.7.6.9 1c.2.4.4.8.5 1.3l.3 1.5c0 .5.1 1 .1 1.6 0 .5.1 1.1.1 1.6s.2 1 .3 1.5c.2.5.4.9.7 1.2h-3.2c-.2-.2-.3-.5-.4-.9-.1-.4-.1-.8-.1-1.3s0-1-.1-1.5-.1-1.1-.2-1.6l-.3-1.5c-.1-.5-.3-.9-.6-1.2s-.6-.6-1-.8c-.4-.2-1-.3-1.7-.3h-6.9v9.1h-2.8V86.3h10.1zm.5 9.7c.6-.1 1.1-.3 1.6-.6.4-.3.8-.7 1.1-1.2.3-.5.4-1.1.4-1.9 0-1.1-.3-2-.9-2.6-.6-.7-1.6-1-2.9-1h-7.1v7.4h5.9c.7.1 1.4 0 1.9-.1zM149.5 86.3v21.3h-2.8V86.3h2.8zM172.7 86.3c2 0 3.6.5 4.8 1.5 1.1 1 1.7 2.4 1.7 4.1 0 1.3-.3 2.4-.9 3.4s-1.5 1.6-2.8 2v.1c.6.1 1.1.3 1.5.6s.7.6.9 1c.2.4.4.8.5 1.3l.3 1.5c0 .5.1 1 .1 1.6s.1 1.1.2 1.6l.3 1.5c.1.5.4.9.7 1.2h-3.2c-.2-.2-.3-.5-.4-.9-.1-.4-.1-.8-.1-1.3s0-1-.1-1.5-.1-1.1-.2-1.6l-.3-1.5c-.1-.5-.3-.9-.6-1.2-.3-.3-.6-.6-1-.8-.4-.2-1-.3-1.7-.3h-6.9v9.1h-2.8V86.3h10zm.6 9.7c.6-.1 1.1-.3 1.6-.6.4-.3.8-.7 1.1-1.2.3-.5.4-1.1.4-1.9 0-1.1-.3-2-.9-2.6s-1.6-1-2.9-1h-7.1v7.4h5.9c.7.1 1.3 0 1.9-.1zM186.1 86.3v21.3h-2.8V86.3h2.8zM196 107.7l-7.5-21.3h3.1l6.1 18.5h.1l6.2-18.5h3l-7.6 21.3H196zM223.9 86.3v2.4H212v6.8h11.1v2.4H212v7.4h12v2.4h-14.8V86.3h14.7zM237.4 86.3c2 0 3.6.5 4.8 1.5 1.1 1 1.7 2.4 1.7 4.1 0 1.3-.3 2.4-.9 3.4s-1.5 1.6-2.8 2v.1c.6.1 1.1.3 1.5.6s.7.6.9 1c.2.4.4.8.5 1.3l.3 1.5c0 .5.1 1 .1 1.6s.1 1.1.2 1.6l.3 1.5c.1.5.4.9.7 1.2h-3.2c-.2-.2-.3-.5-.4-.9-.1-.4-.1-.8-.1-1.3s0-1-.1-1.5-.1-1.1-.2-1.6l-.3-1.5c-.1-.5-.3-.9-.6-1.2-.3-.3-.6-.6-1-.8-.4-.2-1-.3-1.7-.3h-6.9v9.1h-2.8V86.3h10zm.6 9.7c.6-.1 1.1-.3 1.6-.6.4-.3.8-.7 1.1-1.2.3-.5.4-1.1.4-1.9 0-1.1-.3-2-.9-2.6s-1.6-1-2.9-1h-7.1v7.4h5.9c.7.1 1.3 0 1.9-.1z"/></g><g><path class="st3" d="M69.9 121.5c-1.1-.8-2.4-1.1-3.9-1.1-1.3 0-2.4.2-3.3.7-.9.5-1.7 1.1-2.2 1.9-.6.8-1 1.7-1.3 2.8s-.4 2.1-.4 3.2c0 1.2.1 2.4.4 3.5.3 1.1.7 2 1.3 2.8.6.8 1.3 1.5 2.3 1.9.9.5 2 .7 3.3.7.9 0 1.8-.2 2.5-.5s1.4-.7 1.9-1.3c.5-.5.9-1.2 1.2-2s.5-1.6.5-2.5H75c-.3 2.7-1.2 4.8-2.8 6.3-1.6 1.5-3.7 2.2-6.5 2.2-1.7 0-3.1-.3-4.3-.9-1.2-.6-2.3-1.3-3.1-2.3-.8-1-1.4-2.2-1.8-3.5s-.6-2.8-.6-4.4c0-1.6.2-3 .7-4.4.4-1.4 1.1-2.6 1.9-3.6.8-1 1.9-1.8 3.2-2.4s2.7-.9 4.4-.9c1.1 0 2.2.1 3.2.4 1 .3 1.9.7 2.7 1.3s1.4 1.3 1.9 2.2.9 1.9 1 3H72c-.3-1.2-1-2.3-2.1-3.1zM78.1 125c.4-1.3 1.1-2.5 1.9-3.6.9-1 1.9-1.9 3.2-2.5s2.8-.9 4.5-.9c1.7 0 3.2.3 4.5.9s2.3 1.4 3.2 2.5c.9 1 1.5 2.2 1.9 3.6.4 1.3.6 2.7.6 4.2s-.2 2.9-.6 4.2c-.4 1.3-1.1 2.5-1.9 3.6-.9 1-1.9 1.9-3.2 2.5s-2.8.9-4.5.9c-1.7 0-3.2-.3-4.5-.9S80.8 138 80 137c-.9-1-1.5-2.2-1.9-3.6-.4-1.3-.6-2.7-.6-4.2-.1-1.5.1-2.9.6-4.2zm2.6 7.4c.3 1 .7 2 1.3 2.8.6.8 1.4 1.5 2.3 2 .9.5 2.1.8 3.3.8 1.3 0 2.4-.3 3.3-.8.9-.5 1.7-1.2 2.3-2 .6-.8 1-1.8 1.3-2.8.3-1 .4-2.1.4-3.2s-.1-2.1-.4-3.2-.7-2-1.3-2.8c-.6-.8-1.4-1.5-2.3-2-.9-.5-2.1-.8-3.3-.8-1.3 0-2.4.3-3.3.8-.9.5-1.7 1.2-2.3 2-.6.8-1 1.8-1.3 2.8s-.4 2.1-.4 3.2.1 2.1.4 3.2zM116.2 138.3c-1.5 1.4-3.5 2-6.2 2-2.8 0-4.9-.7-6.4-2s-2.3-3.4-2.3-6.2v-13.6h2.8v13.6c0 1.9.5 3.4 1.5 4.4 1 1 2.5 1.5 4.4 1.5 1.8 0 3.2-.5 4.1-1.5.9-1 1.4-2.4 1.4-4.4v-13.6h2.8v13.6c.1 2.8-.7 4.8-2.1 6.2zM125.9 118.5l11.2 17.3h.1v-17.3h2.7v21.3h-3.1l-11.2-17.1h-.1v17.1h-2.7v-21.3h3.1zM142.2 120.9v-2.4h17.1v2.4h-7.1v19h-2.8v-19h-7.2zM171.7 118.5c2 0 3.6.5 4.8 1.5 1.1 1 1.7 2.4 1.7 4.1 0 1.3-.3 2.4-.9 3.4-.6 1-1.5 1.6-2.8 2v.1c.6.1 1.1.3 1.5.6s.7.6.9 1c.2.4.4.8.5 1.3l.3 1.5c0 .5.1 1 .1 1.6s.1 1.1.2 1.6l.3 1.5c.1.5.4.9.7 1.2h-3.2c-.2-.2-.3-.5-.4-.9-.1-.4-.1-.8-.1-1.3s0-1-.1-1.5-.1-1.1-.2-1.6l-.3-1.5c-.1-.5-.3-.9-.6-1.2-.3-.3-.6-.6-1-.8-.4-.2-1-.3-1.7-.3h-6.9v9.1h-2.8v-21.3h10zm.6 9.7c.6-.1 1.1-.3 1.6-.6.4-.3.8-.7 1.1-1.2.3-.5.4-1.1.4-1.9 0-1.1-.3-2-.9-2.6s-1.6-1-2.9-1h-7.1v7.4h5.9c.7.1 1.3 0 1.9-.1zM189.9 139.9H187v-8.7l-8.3-12.6h3.4l6.4 10.2 6.2-10.2h3.2l-8.2 12.6v8.7z"/></g><g><path class="st2" d="M130.7 50.1l-.3-2.8 2.1-.3.1-3.1-1.3-.7.5-2.3h-17.3l.3 2.1h-.9l1.4 1.4.1 2.3 1.7 1 .2 2.5 3.2 3 1.3 3 7.6.1.4-2.5 4.7-.4-.1-3.1zM132.9 60.6l-2.1-.1.3-3.2h-1.3l-8.1-.2-2.6 2.3v.6l.7 1v8.2l.7.6h.1l.1-4.2 13.8-.1.2-3.6h-1.8z"/><path class="st2" d="M144.1 48.7v3.7h-2.9v2H135l-4.4.3-.2 1.6 1.7.1-.3 3.2 2.1.1v1.2h1.8l-.2 4.6 17.1-.5-1-14.7h-4.7zM111.7 42.2l2.2-.1-.4-1.2-13.4-.6-.3 6.1 2 2.9 1.8 2.4 1.9 2.6-2 6.8 1.1 1.2 2.7-1.4 3.2-.7-.6-3.8.7-3.4 1.2-.2.7-6.2 1.9-.1v-1.7z"/><path class="st3" d="M109.9 56.4l.6 3.8-3.2.7-2.7 1.4-1.1-1.2 2-6.9-1.9-2.5-3.8-5.3.3-6.1 13.5.6.4 1.2-2.3.2 2.7 2.6.1 1.7-1.9.1-.7 6.2-1.2.1-.8 3.4zm5.4-12l-1.4-1.3.9-.1-.1-3-15.4-.6-.4 7.2 2.2 3.1 1.7 2.5 1.7 2.3-2 6.9 1.9 2.1 3.2-1.7 4-.9-.7-4.5.6-2.6 1.3-.2.7-6.2 2.1-.1-.3-2.9z"/><path class="st4" d="M133.6 43.3l-.2 4.6-2 .2.2 1.1 3.8.2.1 4h4.7v-2h2.9v-4.3l4.1 2.2h4.4l-.6-9.1-18.2.7-.3 1.9z"/><path class="st3" d="M151.6 49.3h-4.4l-4.1-2.3v4.4h-2.9v2h-4.8l-.1-4-3.8-.2-.1-1.1 2-.2.1-4.6-1.1-.5.3-1.9 18.2-.7.7 9.1zm-19.5-9.4l-.9 3.4 1.3.6-.1 3.1-2.1.2.4 2.8 3.7.2.1 4h6.7v-2h2.9v-3.7l2.8 1.6h5.6l-.5-10.9-19.9.7z"/><path class="st3" d="M129.4 56.3l-7.6-.1-1.3-3-3.1-3.1-.2-2.5-1.7-1-.1-2.3L114 43l.9-.1-.3-2.1h17.3l-.5 2.4 1.3.7-.1 3.1-2.1.2.4 2.8 3.7.2.1 3.1-4.8.4-.5 2.6zm6-6.9l-3.8-.2-.1-1.1 2-.2.1-4.6-1.1-.5.7-2.9h-19.5l.3 2.1-2.3.2 2.7 2.6.1 2.5 1.7 1 .2 2.4 3.2 3.1 1.5 3.5 9.1.1.4-2.6 4.9-.4-.1-5z"/><path class="st2" d="M118.1 59l2.8-2.5-1.3-2.8-3.2-3.1-.2-2.3-1.4-.8h-1.4l-.7 6.2-1.3.2-.6 2.6.8 4.5-3.7.8.2 1.8 1.7 2 1.5 3 2.5.4 2.2.8 1.7-2.4 1.1 1v-7.1l-.7-1z"/><path class="st3" d="M118.8 68.4l-1.1-.9-1.7 2.4-2.2-.8-2.4-.4-1.5-3-1.7-2-.2-1.8 3.7-.8-.7-4.5.6-2.6 1.3-.2.7-6.2 1.4-.1 1.4.8.2 2.4 3.2 3.1 1.3 2.8-2.8 2.5v1.3l.7 1v7zm.3-9l3-2.6-1.6-3.6-3.1-3.1-.2-2.5-2-1.2-2.5.1-.7 6.2-1.2.2-.8 3.4.6 3.8-3.6.8.4 3 1.8 2.2 1.7 3.3 2.8.4 2.8 1 1.5-2.1 1.9 1.6V61l-.7-1v-.6z"/><path class="st3" d="M134.5 65.5l-13.9.1-.1 4.1h-.1l-.7-.6V61l-.7-1v-.6l2.6-2.3 8.1.1 1.3.1-.3 3.2 2.1.1v1.3h1.8l-.1 3.6zm-.6-4.6v-1.2l-2-.1.3-3.2-10.8-.2-3.2 2.8v1.3l.7 1v8.3l1.3 1.1h1.5l.1-4.2 13.8-.1.2-5.5h-1.9z"/><path class="st3" d="M152.1 64.7l-16.6.8.2-4.6h-1.8v-1.2l-2-.1.3-3.2-1.8-.1.2-1.6 4.4-.3h6.2v-2h2.9v-3.7l2.8 1.6h4.6l.6 14.4zm-4.9-15.4l-4.1-2.3v4.3h-2.9v2H135l-5.2.4-.5 3.4 1.8.1-.3 3.2 2.1.1v1.3h1.8l-.2 4.6 18.8-.8-.7-16.4h-5.4z"/></g></g></svg>