<?xml version="1.0" encoding="utf-8"?>
<!-- Generator: Adobe Illustrator 22.0.1, SVG Export Plug-In . SVG Version: 6.00 Build 0)  -->
<svg version="1.1" id="Layer_1" xmlns="http://www.w3.org/2000/svg" xmlns:xlink="http://www.w3.org/1999/xlink" x="0px" y="0px"
	 viewBox="0 0 768 151.5" style="enable-background:new 0 0 768 151.5;" xml:space="preserve">
<style type="text/css">
	.st0{fill:#EFE9DB;}
</style>
<g>
	<g>
		<path class="st0" d="M479.1,108.7L448,61.3l-0.2-0.2l-0.2-0.3h-8.1v62.7h8v-48l31.1,47.5l0.2,0.2l0.2,0.3h8.1V60.7h-8V108.7z
			 M408,69.4c-1.2-1.5-2.5-2.9-4-4.1c-1.5-1.2-3.1-2.3-4.9-3.2c-1.8-0.9-3.7-1.6-5.8-2c-2.1-0.5-4.3-0.7-6.6-0.7
			c-2.3,0-4.5,0.2-6.6,0.7c-2.1,0.5-4,1.1-5.8,2c-1.8,0.9-3.4,2-4.9,3.2c-1.5,1.2-2.8,2.6-4,4.1c-2.3,3-4.1,6.5-5.3,10.4
			c-1.1,3.9-1.7,8-1.7,12.2c0,4.3,0.6,8.4,1.7,12.2c1.2,3.9,2.9,7.4,5.3,10.4c2.4,3,5.3,5.4,8.9,7.2c3.6,1.8,7.7,2.7,12.4,2.7
			c2.3,0,4.5-0.2,6.6-0.7c2.1-0.5,4-1.1,5.8-2c1.8-0.9,3.4-1.9,4.8-3.2c1.5-1.2,2.8-2.6,4-4.1c2.3-3,4.1-6.5,5.3-10.4
			c1.1-3.9,1.7-8,1.7-12.2c0-4.2-0.6-8.4-1.7-12.2C412.1,75.9,410.3,72.4,408,69.4z M405.7,101.4c-0.8,3-2,5.7-3.7,8.1
			c-1.6,2.3-3.7,4.2-6.2,5.6c-1.2,0.7-2.6,1.2-4.1,1.6c-1.5,0.4-3.2,0.5-5,0.5c-1.8,0-3.4-0.2-5-0.5c-1.5-0.4-2.9-0.9-4.2-1.6
			c-2.5-1.4-4.6-3.3-6.2-5.6c-1.6-2.3-2.9-5.1-3.6-8.1c-0.8-3-1.2-6.2-1.2-9.3c0-3.2,0.4-6.3,1.2-9.4c0.8-3,2-5.7,3.6-8.1
			c1.6-2.3,3.7-4.2,6.2-5.6c2.5-1.4,5.6-2.1,9.1-2.1c1.8,0,3.4,0.2,5,0.5c1.5,0.4,2.9,0.9,4.1,1.6c2.5,1.4,4.6,3.3,6.2,5.6
			c1.6,2.4,2.9,5.1,3.7,8.1c0.8,3,1.2,6.2,1.2,9.4C406.9,95.2,406.5,98.3,405.7,101.4z M323.5,61.5L305.1,111l-18.5-49.5l-0.1-0.4
			l-0.2-0.5H276v62.7h8V76.8l17.3,45.7l0.1,0.4l0.2,0.5h6.9l0.3-0.8L326,76.9v46.5h8V60.7h-10.2L323.5,61.5z M507.9,68.2h19.8
			l0,53.9v1.3h8V68.2h19.9v-7.5h-47.8V68.2z M765.6,122.4l-0.3-0.7L743,61.5l-0.1-0.4l-0.2-0.5h-7.9l-0.3,0.8l-23,60.1l-0.7,1.8h8.5
			l0.3-0.8l6.6-17.8h24.2l6.6,17.8l0.1,0.4l0.2,0.5h8.6L765.6,122.4z M728.9,97.2l9.6-25.7l9.2,25.7H728.9z M680.8,108.7l-31.1-47.5
			l-0.2-0.2l-0.2-0.3h-8.1v62.7h8v-48l31.1,47.5l0.2,0.2l0.2,0.3h8.1V60.7h-8V108.7z M618.7,121.6l-22.4-60.1l-0.1-0.3l-0.2-0.5
			h-7.9l-0.3,0.8l-23,60.1l-0.7,1.8h8.5l0.3-0.8l6.6-17.8h24.2l6.6,17.8l0.1,0.4l0.2,0.5h8.6l-0.4-1L618.7,121.6z M582.2,97.2
			l9.6-25.7l9.2,25.7H582.2z"/>
	</g>
	<g>
		<path class="st0" d="M435.1,14.5c-1.4-1-3.3-1.6-5.5-1.6c-0.9,0-1.8,0.1-2.7,0.3c-0.9,0.2-1.7,0.5-2.3,0.9c-0.7,0.4-1.2,1-1.6,1.7
			c-0.4,0.7-0.6,1.6-0.6,2.7c0,1,0.3,1.8,0.9,2.4c0.6,0.6,1.4,1.1,2.4,1.5c1,0.4,2.1,0.7,3.3,1c1.2,0.3,2.5,0.5,3.8,0.8
			c1.3,0.3,2.5,0.7,3.8,1.1c1.2,0.4,2.3,1,3.3,1.7c1,0.7,1.8,1.6,2.4,2.6c0.6,1.1,0.9,2.4,0.9,4c0,1.7-0.4,3.2-1.2,4.4
			c-0.8,1.2-1.8,2.2-3,3c-1.2,0.8-2.6,1.3-4.1,1.7c-1.5,0.3-3,0.5-4.5,0.5c-1.8,0-3.5-0.2-5.1-0.7c-1.6-0.5-3-1.1-4.3-2.1
			c-1.2-0.9-2.2-2.1-2.9-3.5c-0.7-1.4-1.1-3.1-1.1-5.1h4.1c0,1.4,0.3,2.5,0.8,3.5c0.5,1,1.2,1.8,2.1,2.4c0.9,0.6,1.9,1.1,3,1.4
			c1.1,0.3,2.3,0.5,3.5,0.5c1,0,1.9-0.1,2.9-0.3c1-0.2,1.9-0.5,2.7-0.9c0.8-0.4,1.4-1,1.9-1.8c0.5-0.8,0.7-1.7,0.7-2.9
			c0-1.1-0.3-2-0.9-2.7c-0.6-0.7-1.4-1.3-2.4-1.7c-1-0.4-2.1-0.8-3.3-1.1c-1.2-0.3-2.5-0.6-3.8-0.8c-1.3-0.3-2.5-0.6-3.8-1
			c-1.2-0.4-2.3-0.9-3.3-1.5c-1-0.6-1.8-1.4-2.4-2.4c-0.6-1-0.9-2.2-0.9-3.7c0-1.6,0.3-3,1-4.2c0.7-1.2,1.5-2.2,2.7-2.9
			c1.1-0.8,2.4-1.3,3.8-1.7c1.4-0.4,2.8-0.6,4.3-0.6c1.7,0,3.2,0.2,4.6,0.6c1.4,0.4,2.7,1,3.7,1.9c1.1,0.8,1.9,1.9,2.5,3.2
			c0.6,1.3,1,2.8,1,4.6h-4.1C437.4,17.2,436.6,15.5,435.1,14.5z"/>
		<path class="st0" d="M452,19.9c0.6-2,1.6-3.8,2.9-5.4c1.3-1.6,2.9-2.8,4.9-3.8c1.9-0.9,4.2-1.4,6.8-1.4c2.6,0,4.8,0.5,6.8,1.4
			c1.9,0.9,3.6,2.2,4.9,3.8c1.3,1.6,2.3,3.4,2.9,5.4c0.7,2,1,4.2,1,6.4c0,2.2-0.3,4.3-1,6.4c-0.6,2-1.6,3.8-2.9,5.4
			c-1.3,1.6-2.9,2.8-4.9,3.7c-1.9,0.9-4.2,1.4-6.8,1.4c-2.6,0-4.8-0.5-6.8-1.4c-1.9-0.9-3.6-2.2-4.9-3.7c-1.3-1.6-2.3-3.4-2.9-5.4
			c-0.7-2-1-4.2-1-6.4C451,24,451.4,21.9,452,19.9z M456,31.1c0.4,1.6,1.1,3,2,4.3c0.9,1.3,2.1,2.3,3.5,3.1c1.4,0.8,3.1,1.2,5.1,1.2
			c2,0,3.7-0.4,5.1-1.2c1.4-0.8,2.6-1.8,3.5-3.1c0.9-1.3,1.6-2.7,2-4.3c0.4-1.6,0.6-3.2,0.6-4.8c0-1.6-0.2-3.2-0.6-4.8
			c-0.4-1.6-1.1-3-2-4.3c-0.9-1.3-2.1-2.3-3.5-3.1c-1.4-0.8-3.1-1.2-5.1-1.2c-2,0-3.7,0.4-5.1,1.2c-1.4,0.8-2.6,1.8-3.5,3.1
			c-0.9,1.3-1.6,2.7-2,4.3c-0.4,1.6-0.6,3.2-0.6,4.8C455.3,27.9,455.6,29.5,456,31.1z"/>
		<path class="st0" d="M514.4,40.1c-2.2,2.1-5.3,3.1-9.4,3.1c-4.2,0-7.4-1-9.8-3c-2.3-2-3.5-5.1-3.5-9.5V10.1h4.3v20.7
			c0,2.9,0.8,5.1,2.3,6.6c1.5,1.5,3.8,2.2,6.7,2.2c2.8,0,4.8-0.7,6.3-2.2c1.4-1.5,2.2-3.7,2.2-6.6V10.1h4.3v20.7
			C517.7,34.9,516.6,38,514.4,40.1z"/>
		<path class="st0" d="M525.7,13.7v-3.6h25.9v3.6h-10.8v28.7h-4.3V13.7H525.7z"/>
		<path class="st0" d="M564,10.1V24h17V10.1h4.3v32.4H581V27.6h-17v14.8h-4.3V10.1H564z"/>
		<path class="st0" d="M619.3,10.1v3.6h-18V24h16.8v3.6h-16.8v11.2h18.2v3.6h-22.5V10.1H619.3z"/>
		<path class="st0" d="M642.7,10.1l12.7,32.4h-4.8l-3.5-9.7h-13.7l-3.6,9.7h-4.4L638,10.1H642.7z M645.7,29.1L640.3,14h-0.1
			l-5.5,15.1H645.7z"/>
		<path class="st0" d="M679.3,14.5c-1.4-1-3.3-1.6-5.5-1.6c-0.9,0-1.8,0.1-2.7,0.3c-0.9,0.2-1.7,0.5-2.3,0.9c-0.7,0.4-1.2,1-1.6,1.7
			c-0.4,0.7-0.6,1.6-0.6,2.7c0,1,0.3,1.8,0.9,2.4c0.6,0.6,1.4,1.1,2.4,1.5c1,0.4,2.1,0.7,3.3,1c1.2,0.3,2.5,0.5,3.8,0.8
			c1.3,0.3,2.5,0.7,3.8,1.1c1.2,0.4,2.4,1,3.3,1.7c1,0.7,1.8,1.6,2.4,2.6c0.6,1.1,0.9,2.4,0.9,4c0,1.7-0.4,3.2-1.2,4.4
			c-0.8,1.2-1.8,2.2-3,3c-1.2,0.8-2.6,1.3-4.1,1.7c-1.5,0.3-3,0.5-4.5,0.5c-1.8,0-3.5-0.2-5.1-0.7c-1.6-0.5-3-1.1-4.3-2.1
			c-1.2-0.9-2.2-2.1-2.9-3.5c-0.7-1.4-1.1-3.1-1.1-5.1h4.1c0,1.4,0.3,2.5,0.8,3.5c0.5,1,1.2,1.8,2.1,2.4c0.9,0.6,1.9,1.1,3,1.4
			c1.1,0.3,2.3,0.5,3.5,0.5c1,0,1.9-0.1,2.9-0.3c1-0.2,1.9-0.5,2.7-0.9c0.8-0.4,1.4-1,1.9-1.8c0.5-0.8,0.7-1.7,0.7-2.9
			c0-1.1-0.3-2-0.9-2.7c-0.6-0.7-1.4-1.3-2.4-1.7c-1-0.4-2.1-0.8-3.3-1.1c-1.2-0.3-2.5-0.6-3.8-0.8c-1.3-0.3-2.5-0.6-3.8-1
			c-1.2-0.4-2.3-0.9-3.3-1.5c-1-0.6-1.8-1.4-2.4-2.4c-0.6-1-0.9-2.2-0.9-3.7c0-1.6,0.3-3,1-4.2c0.7-1.2,1.5-2.2,2.7-2.9
			c1.1-0.8,2.4-1.3,3.8-1.7c1.4-0.4,2.8-0.6,4.3-0.6c1.7,0,3.2,0.2,4.6,0.6c1.4,0.4,2.7,1,3.7,1.9c1.1,0.8,1.9,1.9,2.5,3.2
			c0.6,1.3,1,2.8,1,4.6h-4.1C681.6,17.2,680.7,15.5,679.3,14.5z"/>
		<path class="st0" d="M693.6,13.7v-3.6h25.9v3.6h-10.8v28.7h-4.3V13.7H693.6z"/>
	</g>
	<path class="st0" d="M63.8,149.5c-1.3,0-1.5-1-1.6-1.4c0-0.1,0-0.1-0.1-0.2c0,0,0,0,0,0c0,0-0.3-0.1-0.5-0.2
		c-0.5-0.2-1.2-0.5-1.7-1.1c-0.7-0.8-1-2-0.7-2.9c-0.4-0.4-0.6-0.8-0.5-1.3c-0.1-0.2-0.4-0.5-0.6-0.6c-0.3-0.2-0.4-0.6-0.3-0.9
		c0-0.3,0.2-0.6,0.5-0.8c0,0,0.1-0.1,0.2-0.3c0.1-0.6-0.3-1.7-0.7-2.1c-0.3-0.3-0.4-0.8-0.5-1.2l0-0.1c-0.2,0-0.5-0.2-0.7-0.4
		c-0.1-0.1-0.2-0.2-0.3-0.3c-0.2-0.3-0.3-0.4-0.5-0.5c0,0,0,0,0,0c-0.2,0-0.4,0.1-0.6,0.2c-0.3,0.2-0.6,0.3-0.9,0.4
		c-0.1,0-0.3,0.1-0.4,0.1c-0.9,0-1.3-0.9-1.4-1.2c-0.1-0.3-0.2-0.4-0.2-0.4c-1.6-0.4-2.8-2.9-2.7-4.5c0-0.3,0.2-0.6,0.5-0.8
		c0.1-0.1,0.3-0.1,0.5-0.1l0.2,0c0.1-0.2,0.1-0.6,0.1-0.8c0-0.3,0-0.6,0-0.8c0-0.1,0-0.2,0-0.3c-0.1,0-0.2-0.1-0.3-0.2l-0.2-0.2
		c-0.3-0.2-0.5-0.4-0.6-0.5c-0.2-0.1-0.3-0.3-0.3-0.6c-0.8-0.4-1.1-1.3-1.4-2c-0.2-0.7-0.5-1.4-1.1-2c-0.5-0.4-1.1-1.1-0.9-1.9
		c-0.6-0.7-0.6-1.4-0.6-2.2c0-0.3,0-0.5-0.1-0.9c0,0,0,0,0,0c-0.1,0-0.2-0.1-0.3-0.1c-0.4-0.3-0.6-0.6-0.6-1c0-0.2,0.1-0.4,0.2-0.6
		c-0.1-0.3-0.2-0.8,0-1.4c0.1-0.1,0.1-0.2,0.2-0.4c0,0,0,0,0-0.1c0,0-0.1,0-0.1,0c0,0-0.3,0.1-0.3,0.1c-0.3,0-0.5-0.1-0.7-0.3
		c-0.3-0.3-0.4-0.6-0.3-1c0-0.1,0-0.2,0.1-0.3c0.1-0.4,0.2-1,0.5-1.4c-0.2-0.1-0.4-0.1-1-0.2c-0.4-0.1-0.7-0.3-0.8-0.7
		c-0.1-0.3-0.1-0.6,0.1-0.8l-0.1-0.1c-0.1-0.1-0.2-0.3-0.3-0.5c0,0.3-0.1,0.6-0.4,0.9l-0.2,0.2c-0.1,0.1-0.2,0.1-0.3,0.1
		c-0.2,0.1-0.3,0.1-0.4,0.3l-0.5,0.7c-0.3,0.4-0.6,0.6-0.8,0.7c-0.5,0.8-1.2,0.9-1.4,1c-0.3,0.3-0.6,0.4-1,0.4c-0.2,0-0.3,0-0.5-0.1
		c-0.6,1-1.3,2.3-2.4,2.3c-0.7,0-1.3-0.4-1.7-1.3c-0.1-0.2-0.3-0.4-0.6-0.6c-0.4-0.3-0.9-0.7-1.2-1.3l-0.2,0c-0.5,0-0.9,0-1.2-0.1
		c-0.4-0.1-0.6-0.3-0.8-0.7c-0.3-0.6,0-1.2,0.3-1.6c-0.1-0.1-0.2-0.3-0.2-0.6c-0.1-0.6,0.3-1,0.5-1.2c0.1-0.3,0.3-0.5,0.6-0.5
		c0-0.2,0.1-0.5,0.2-0.6c0,0,0,0,0-0.1c-0.1-0.1-0.1-0.1-0.2-0.2c-0.4-0.4-1-1-0.9-1.9c0.1-0.8,0.5-1.3,0.9-1.7
		c0.1-0.1,0.3-0.3,0.3-0.4c0.3-0.8,1-1,1.3-1.1l0.2-0.1c0.1-0.1,0.4-0.2,0.6-0.2c0.1,0,0.2,0,0.3,0c0-0.1-0.1-0.2-0.2-0.5
		c-0.2-0.5-0.4-1.1-0.1-1.6c-0.1,0-0.1,0-0.2,0c-0.6,0-0.9-0.4-1-0.6c-0.1-0.2-0.1-0.5-0.1-0.8c0,0-0.1-0.1-0.1-0.1
		c-0.3-0.3-0.5-0.7-0.3-1.1c0.2-0.6,0.5-1,0.8-1.2l0,0c-0.1,0-0.1-0.1-0.2-0.2c-0.7-0.4-1-1.2-0.7-1.9c0.2-0.7,0.9-1.3,1.6-1.5
		c-0.2-1.2-0.2-1.9,0.1-2.4c0.2-0.3,0.4-0.5,0.6-0.6c0-0.5,0.2-0.9,0.4-1.3c0.1-0.2,0.1-0.3,0.2-0.4c-0.7-0.9,0.3-1.9,0.6-2.2
		l0.1-0.1c0.1-0.1,0.1-0.1-0.1-0.5c-0.1-0.4-0.4-1,0-1.6c0.2-0.4,0.6-0.6,1.1-0.8c0.1-0.3,0.2-1,0.2-1.2c-0.1-0.1-0.2-0.3-0.1-0.6
		c0-0.4,0.3-0.8,0.8-0.9c-0.1-0.3-0.2-0.4-0.2-0.4c-0.5,0.1-0.6,0.2-1.1,0.5l-0.3,0.2c-0.2,0.1-0.5,0.2-0.8,0.2
		c-0.4,0-0.8-0.1-1.2-0.4c-0.1,0-0.2-0.1-0.2-0.1c-0.1,0.1-0.5,0.2-0.8,0.2c-1.1,0-2-0.8-2.1-2.1c0-0.2,0-0.5,0.1-0.7
		c-0.5,0.4-1,0.6-1.5,0.6c-0.4,0-0.8-0.2-1.1-0.5c-0.3-0.4-0.6-1,0-1.9c-0.5-0.2-0.9-0.6-1.1-0.9c-0.1,0-0.2,0-0.3,0
		c-0.2,0-0.9-0.1-1.1-1.1c0-0.1-0.3-0.8-0.4-0.9c-0.5-0.5-0.5-1.1-0.1-1.7c0.1-0.5,0-0.6-0.5-1.1c-0.2-0.2-0.3-0.3-0.5-0.5
		c-0.8-0.3-1.1-1-1.3-1.6c-0.1-0.2-0.2-0.5-0.3-0.7c-0.1-0.1-0.2-0.3-0.3-0.4c-0.3-0.3-0.6-0.7-0.8-1.2l-0.1-0.3
		c0-0.1,0-0.3-0.1-0.4c-0.3-0.2-0.6-0.4-0.9-1c0,0-0.2-0.2-0.6-0.5c-0.9-0.7-1.8-1.4-1.6-2.3c0.1-0.4,0.1-0.4-0.5-0.8
		c-0.2-0.1-0.4-0.2-0.5-0.4c-0.1,0-0.3-0.1-0.4-0.1c-0.3-0.1-0.8-0.2-1.2-0.5c0,0,0,0,0,0c-0.6,0-1.3-0.7-2.3-2.3l-0.1-0.1
		c-0.1-0.2-0.3-0.4-0.4-0.5c-0.7-0.1-1.1-0.5-1.3-1.2h0c0,0-0.1,0-0.2-0.1c-0.3-0.2-0.7-0.3-1-0.3c-0.4,0-0.7-0.1-0.9-0.4
		c-0.2-0.3-0.3-0.6-0.2-0.9C7,50.7,7.5,50.2,8.3,50c0,0,0-0.1-0.1-0.1c-0.1-0.3-0.3-0.6-0.3-1c-0.3-0.1-0.7-0.4-0.8-1
		c0-0.8,0.7-1.2,1.1-1.5c0.3-0.2,0.3-0.2,0.2-0.4c-0.1-0.2-0.1-0.3-0.2-0.3c-0.4-0.5-0.4-1-0.3-1.8c0-0.1-0.2-0.4-0.3-0.5
		c-0.2-0.2-0.4-0.5-0.5-0.8c-0.2,0-0.6-0.1-0.9-0.5c-0.4-0.5-0.5-1.2-0.5-1.7c0-0.1,0-0.2,0-0.3c0-0.2-0.1-0.4-0.1-0.5
		c-0.2-0.1-0.4-0.2-0.6-0.4c-0.4-0.4-1.9-2.6-2.2-3.8c-0.2-0.1-0.4-0.3-0.6-0.6C1.9,34.2,2,33.5,2,33.1c0.1-1.1,0.2-2.2,0.3-3.2
		c0,0,0.2-1.8,0.3-2.6c0.2-2.1,0.5-4.3,0.6-6.4c0.1-2.3,0.4-4.7,0.6-7c0.4-3.5,0.8-7.1,0.8-10.7C4.7,3,4.8,2.7,5,2.5
		c0.2-0.2,0.4-0.2,0.7-0.2c1.8,0.2,3.4,0.3,5.1,0.4c1.7,0.1,3.6,0.2,5.3,0.4c2.8,0.4,5.8,0.7,9.6,0.9c2,0.1,4,0.2,5.9,0.4l1.5,0.1
		c4.2,0.2,8.4,0.5,12.6,0.8C51.8,5.6,58.3,5.9,66,6.2c3.2,0.1,6.4,0.2,9.6,0.3c0.7,0,1.5,0.1,2.2,0.1l0.2,0c0.8,0,1.5,0.1,2.3,0.1
		c0.1,0,0.2,0,0.3,0c0.4,0,0.7-0.1,1-0.1c0.6,0,1,0.1,1.4,0.4c0.1,0,0.2,0,0.2,0.1C83.8,7,84.9,7,86.6,7c3.2,0,7.8,0.2,10.5,0.3
		l0.4,0c1,0,1.7,0.1,2,0.1c2.6,0,5.3,0.1,7.9,0.1l1.1,0c4.1,0.1,8.3,0.2,12.5,0.2c2.1,0,4.3,0,6.4,0c1.3,0,14.2,0,15.2,0l6.3,0
		c1.5,0,3.1,0,4.6,0c1.7,0,3.3-0.1,5-0.1c0.4,0,0.8,0,1.1,0c0.5,0,0.8,0.1,1.2,0.1l0.2,0c0.3-0.1,0.5-0.2,0.8-0.2c0.1,0,0.1,0,0.2,0
		c0.4-0.2,1-0.2,1.2-0.2c0.6,0,1.3,0.1,1.7,0.1c0.3,0,0.4,0.1,0.5,0.1c0.4,0,0.8,0,1.2,0c1.4,0,2.9-0.1,4.3-0.1l0.3,0
		c0.8,0,1.6-0.1,2.3-0.1c5.6-0.2,11.2-0.3,16.8-0.5c8.9-0.3,20.7-0.7,32.5-1.4c3.4-0.2,6.8-0.4,10.2-0.7c2.8-0.2,5.6-0.4,8.5-0.5
		c0.1,0,0.3,0,0.6-0.1c0.8-0.1,1.8-0.3,2.6-0.3c0.6,0,1.3,0.1,1.7,0.7c0.4,0.7,0.5,1.5,0.5,2.2l0,0.2c0.1,1.6,0.2,3.3,0.4,5l0.1,0.9
		c1,12.3,1.8,24.9,2.5,37.5c1.4,25.3,3.4,50.1,5.4,75.5c0,0.5-0.1,1-0.4,1.3c-0.7,0.8-2,0.9-3.4,0.9l-1,0l-0.2,0
		c-1.5,0.1-3,0.2-4.5,0.2l-1.4,0.1c-4.4,0.2-8.6,0.5-11.4,0.7c-5.9,0.5-12,0.7-17.8,1c-1.8,0.1-3.4,0.1-5.1,0.2
		c-7.2,0.3-15.7,0.7-24.4,0.8c-1.3,0-2.6,0-3.9,0l-0.2,0c-2.6,0-5.3,0-7.9,0.2c-1,0-2,0.1-3,0.1c-1,0-2,0-2.9,0.1l-0.2,0
		c-0.3,0-0.7,0-1.2-0.1c-0.5,0-1-0.1-1.4-0.1c-0.7,0-0.9,0.1-0.9,0.1c-0.2,0.1-0.4,0.2-0.6,0.2c-0.2,0-0.4-0.1-0.5-0.1
		c-0.6,0.1-2.2,0.2-4.6,0.2c-1,0-2.1,0-2.9,0c0,0-1.6,0-1.9,0c-1.8,0-3.6,0.1-5.7,0.1c-1.4,0-2.8,0-4.1,0l-5.2,0c-2.2,0-4.3,0-6.5,0
		l-5.8,0c-1.8,0-3.5,0.1-5.5,0.2l-0.2,0c-1.8,0.1-3.6,0.2-5.4,0.2c-0.7,0-1.4,0-2.1,0c-1,0-2-0.1-2.9-0.2l-0.2,0
		c-1.1-0.1-2.3-0.2-3.4-0.2c-0.2,0-0.5,0-0.8-0.1c-0.4,0-0.8-0.1-1.3-0.1c-0.4,0-0.6,0.1-0.6,0.1c-0.1,0.4-0.1,1,0,1.5
		c0,0.5,0.1,0.8,0,1.2c0,0.3,0,0.7-0.1,1c0,0.6-0.1,1.2-0.1,1.8c0,1.4,0,2.7,0.1,4.1l0,0.4c0,0.7,0,1.3,0,2c0,0.1,0,0.3,0,0.5
		c0.1,1.4,0.2,2.4-0.4,3.1c-0.3,0.3-0.6,0.5-1,0.5c-0.3,0-0.6-0.1-0.8-0.2c-0.6-0.3-1.7-0.8-1.6-2.1c-0.2-0.1-0.3-0.1-0.4-0.2
		c-0.2-0.2-0.4-0.3-0.5-0.6c-0.3-0.1-0.6-0.3-0.8-0.6c-0.5-0.7-0.5-1.3-0.4-1.7c-0.4-0.2-0.7-0.3-0.8-0.6c-0.2-0.3-0.2-0.8,0-1.1
		c0,0,0,0,0,0c0,0-0.1-0.1-0.3-0.3c-0.1-0.2-0.2-0.3-0.3-0.4c-0.1-0.1-0.2-0.2-0.3-0.2l0,0c-0.2,0.3-0.6,0.5-1.3,0.5
		c0.1,0.5-0.3,1-0.4,1.2c0,0,0,0.1,0,0.1c0,0.3-0.1,0.5-0.3,0.7c-0.1,0.2-0.2,0.4-0.4,0.5c0.1,0.2,0.3,0.5,0.7,1
		c0.3,0.4,0.6,0.9,0.2,1.5c-0.2,0.2-0.4,0.4-0.7,0.4c0,0,0,0,0,0c-0.2,0-0.3,0-0.4-0.1c-0.1,0-0.3,0.1-0.4,0.1
		c-0.3,0-0.6-0.1-0.9-0.3c-0.1-0.1-0.3-0.2-0.4-0.3c-0.1,0-0.2-0.1-0.5-0.1l-0.7,0c-0.3,0-0.6,0-0.8-0.1c-0.1,0-0.1,0-0.2,0
		c-0.2,0-0.5,0.1-0.8,0.3c-0.4,0.2-0.9,0.5-1.5,0.6c-0.2,0.3-0.5,0.5-1,0.5c-0.3,0-0.5-0.1-0.8-0.3c-0.5-0.3-0.7-0.8-0.8-1.1
		c0-0.1-0.1-0.1-0.1-0.2c-0.3,0-0.5,0.1-0.8,0.2c-0.5,0.1-0.9,0.3-1.4,0.3c-0.2,0.3-0.5,0.4-0.8,0.4c-0.2,0-0.4,0-0.6-0.1
		c-0.1,0-0.2,0.1-0.4,0.1c-0.2,0-0.4,0.1-0.6,0.1c-0.5,0-0.9-0.1-1.2-0.4c0,0,0,0-0.1,0c-0.4,0-1.4-0.1-1.8-0.4
		c-0.2-0.1-0.3-0.3-0.4-0.5c-0.1,0-0.2,0-0.2,0l-0.2,0c0.1,0-0.1,0.1-0.3,0.3c-0.2,0.1-0.3,0.2-0.5,0.3l0,0.3c0,0.5,0,1-0.2,1.4
		c-0.4,0.7-1,1.1-1.6,1.1c-0.6,0-1-0.3-1.3-0.6c-0.1-0.1-0.2-0.2-0.3-0.2c-0.2,0.1-0.4,0.2-0.7,0.2c-0.2,0-0.4,0-0.6-0.1
		c-0.4-0.2-0.7-0.3-0.9-0.4c-0.1,0-0.2,0-0.3,0h-0.2c-0.2,0-0.5,0-0.8-0.1c-0.2-0.1-0.4-0.1-0.7-0.2c-0.4-0.1-0.8-0.3-1.1-0.3
		c-0.1,0-0.2,0-0.2,0c-0.8,0.4-1.2,0.8-1.3,1c0,0,0,0,0,0.1c0.2,0.7,0.5,1.5,0.1,2.2c-0.2,0.3-0.5,0.6-1.1,0.7
		C64,149.5,63.9,149.5,63.8,149.5z M60.8,142.5c0.6,0.5,0.7,1.1,0.4,1.7c-0.1,0.2,0,0.7,0.3,1.1c0.2,0.2,0.5,0.3,0.9,0.5
		c0.3,0.1,0.6,0.2,0.9,0.4c0.1-0.9,0.9-1.7,2.3-2.5c0.3-0.2,0.7-0.3,1.2-0.3c0.5,0,1.1,0.1,1.8,0.4c0.2,0.1,0.4,0.1,0.5,0.2
		c0.1,0,0.2,0,0.3,0l0.2,0c0.3,0,0.6,0,0.9,0.1c0.3,0.1,0.6,0.2,0.9,0.3c0.2-0.1,0.4-0.2,0.7-0.2c0.1,0,0.2,0,0.3,0
		c0.5,0.1,0.9,0.4,1.2,0.6c0-0.1,0-0.1,0-0.2c0-0.7,0-1.8,1-2.1c0,0,0.1-0.1,0.2-0.2c0.6-0.4,1-0.6,1.4-0.7c0.1-0.1,0.3-0.1,0.5-0.1
		c0.2,0,0.4,0,0.5,0.1c0.7,0.1,1.1,0.4,1.2,0.9c0.1,0,0.1,0,0.2,0c0.2,0,0.4,0.1,0.6,0.1c0,0,0.1,0,0.1-0.1c0,0,0,0,0,0
		c0.4,0,0.8,0.1,0.9,0.4c0.2,0,0.4-0.1,0.6-0.1c0.1-0.1,0.2-0.2,0.3-0.3c0.2-0.1,0.4-0.2,0.6-0.2c0.2,0,0.4,0.1,0.6,0.2c0,0,0,0,0,0
		c0.3,0,0.7-0.1,1-0.2c0.4-0.1,0.9-0.3,1.4-0.3c0.6,0,1.2,0.3,1.5,0.8c0.1,0.2,0.2,0.3,0.3,0.5c0.2-0.1,0.4-0.1,0.6-0.1
		c0.3,0,0.5-0.2,0.8-0.3c0.5-0.3,1.1-0.6,1.8-0.6c0.2,0,0.4,0,0.5,0.1c0.1,0,0.3,0,0.4,0c0,0,0.7,0,0.8,0c0.1,0,0.2,0,0.4,0
		c-0.2-0.5-0.1-0.9,0.1-1.3c0.1-0.1,0.2-0.3,0.3-0.4c0-0.3,0.1-0.5,0.2-0.7c0.1-0.2,0.3-0.3,0.5-0.3c-0.1-0.3-0.2-0.7,0-1
		c0.2-0.6,0.8-0.8,1-0.9c0.3-0.1,0.6-0.1,0.9-0.1h0c0.1-0.2,0.2-0.3,0.2-0.4c-0.3-1-0.2-2.5,0.1-4.4c0.1-0.4,0.1-0.7,0.1-0.9
		c0.2-2.2,0.3-4.6,0.3-7.2c0-1.2,0-2.4,0.1-3.6c0-0.1,0-0.2,0-0.3c-0.1-0.9-0.2-1.7,0.3-2.3c0.1-0.1,0.1-0.1,0.2-0.2l0-1.1
		c0-1.4,0-3.1,0.1-4.7c0-0.3,0.1-0.6,0.1-0.9c0.1-0.3,0.1-0.5,0.1-0.7l-0.3,0c-0.5,0.1-1.1,0.2-1.7,0.2c-0.3,0-1.4,0-1.8-0.8
		c-0.4-0.1-0.9-0.6-1.5-1.5l-0.1-0.2c-0.5-0.2-0.7-0.6-0.8-0.9c-0.8-0.1-1.3-0.4-1.6-0.9c0-0.1-0.1-0.2-0.1-0.3
		c-0.7-0.2-1.2-0.4-1.4-0.8c-0.2-0.3-0.3-0.6-0.3-1c0.1-0.5,0.5-0.8,1-0.8c0,0,0.1,0,0.2,0c0.4-0.1,0.7-0.1,0.9-0.1
		c0.2,0,0.3,0,0.4,0.1c0.1,0,0.2,0.1,0.2,0.1c0.3-0.4,0.6-0.7,0.7-0.8c0-0.2,0.2-0.4,0.3-0.5c0.1-0.1,0.3-0.2,0.4-0.2
		c0-0.1,0.1-0.2,0.1-0.2c0.2-0.5,0.7-0.8,0.9-1c0.1-0.2,0.3-0.3,0.6-0.3l0.2,0c0.1-0.4,0.6-0.5,0.9-0.6c0.2-0.1,0.5-0.2,0.5-0.4
		c-0.1-0.2-0.2-1.2,0.7-1.6c0.1,0,0.2-0.1,0.3-0.1c-0.1-0.6-0.1-1.2,0.1-1.6l0.1-0.3c0.2-0.5,0.5-1.3,1.3-1.6c0,0,0,0,0-0.1
		c0-0.4-0.1-1,0.3-1.6c0.6-0.8,1.7-0.8,2-0.8c0.2,0,0.4,0,0.6,0c0,0,2.2,0.1,2.8,0.1c0-0.1-0.1-0.2-0.1-0.3c-0.3-0.2-0.7-0.4-0.8-1
		c-0.3-1,0.3-2.5,1-3.2c0.2-0.2,0.3-0.6,0.2-0.9c0-0.1-0.1-0.2-0.3-0.2c-0.2,0-0.3-0.1-0.4-0.2c-0.4,0.2-0.8,0.4-1.3,0.4
		c-0.3,0-1.5-0.1-1.7-1.9c-0.1-0.8-0.1-0.8-0.5-1.1l-0.2-0.1c-0.3-0.2-0.9-0.6-1-1.2c0-0.2,0-0.5,0.2-0.8c-0.1-0.2-0.1-0.5-0.1-1
		c0-0.1,0-0.3,0.1-0.4c-0.1,0-0.1,0-0.2,0c-0.1,0-0.2,0-0.3,0c0,0,0,0,0,0c-0.4,0-0.6-0.1-0.8-0.2c-0.2-0.2-0.3-0.4-0.4-0.7
		c0-0.1,0-0.2,0-0.3c-0.4,0-0.8-0.5-0.8-1c0-0.1,0-0.5-0.1-0.7c-0.2-0.2-0.2-0.5-0.2-0.7c0,0-0.1-0.1-0.1-0.1
		c-0.5-0.4-0.6-1-0.6-1.4c-0.4,0-0.7,0.1-0.7,0.1c-0.4,0-0.9,0-1.2-0.4c0,0-1.1-1.1-1-2.2c0-0.2,0.1-0.3,0.1-0.5
		c-0.3,0-0.7-0.1-1.2-0.2c-1-0.1-1.4-0.2-1.7-0.6c-0.8-1-0.5-2.4-0.2-3.9c0.2-1.3,0.3-2,0.2-2.2c-0.1,0-0.2,0-0.3,0.1
		c-0.2,0-0.3,0-0.4,0c-0.6,0-1-0.3-1.2-0.4c-0.2-0.1-0.2-0.1-0.3-0.1c-0.3,0-0.6-0.2-0.8-0.5c-0.3-0.2-0.5-0.4-0.6-0.6
		c-0.1,0-0.2-0.1-0.2-0.2c-0.2,0-0.4-0.1-0.6-0.3c0,0-0.1,0-0.1,0l-0.3,0c-0.4-0.1-0.7-0.5-0.7-1c0-1.6,0.1-3.2,0.2-4.8
		c0.1-1.2,0.2-2.5,0.2-3.8c0-0.1,0-0.2,0-0.3c-0.4,0.1-0.9,0.1-1.6,0.1c-0.4,0-0.9,0-1.3,0c-0.5,0-0.8,0-1.2,0
		c-0.4,0-0.8-0.3-0.9-0.7c0-0.1-0.1-0.2-0.1-0.3c0,0-0.1,0-0.1,0L77.8,53c-0.2-0.1-0.3-0.2-0.4-0.3c-0.3,0-0.6,0-0.8-0.2
		c-0.6-0.4-0.7-1.1-0.8-1.8l0-0.1c-0.1,0-0.3-0.1-0.4-0.1c-0.5-0.2-1-0.3-1.4-0.7l0,0c-0.2,0.1-0.4,0.1-0.7,0.2
		c-0.1,0-0.3,0.1-0.4,0.1c-0.6,0.2-1.1,0.3-1.5,0.3c-0.2,0-0.4,0-0.6-0.1c-0.1,0.1-0.3,0.3-0.6,0.3c-0.3,0.1-0.5,0.1-0.7,0.1
		c-1.2,0-1.8-0.8-2.1-1.2c-0.2-0.2-0.3-0.4-0.5-0.5c-0.1,0-0.3-0.1-0.5-0.3c-0.6-0.6-0.5-1.6-0.5-2.5c0-0.3,0-0.5,0-0.6
		c-0.4-0.6-0.2-1.4-0.1-2c0.1-0.2,0.1-0.5,0.1-0.6c0-0.4-0.3-1.1-0.7-2c-0.2,0.1-0.4,0.1-0.6,0.2c0,0,0,0-0.1,0
		c0.3,0.6,0.4,1.1,0.3,2.1c-0.1,0.8-0.2,1.6-0.5,2.4c-0.3,0.8-1.1,0.9-1.6,1c0,0-0.1,0-0.1,0c0,0.1,0.1,0.1,0.1,0.2
		c0.3,0.5,0.7,1.2,0.3,2.1c0,0.1,0,0.2-0.1,0.3c0,0.3-0.1,0.7-0.4,1.2c-0.4,0.5-1,0.7-2,0.7c-0.9,0-2.1-0.2-2.9-0.4
		c-0.3-0.1-0.6-0.1-0.7-0.1c-0.1,0-0.3,0-0.4,0c-0.2,0-0.3,0-0.3,0.1c-0.2,0.2-0.2,1-0.1,1.5c0,0.4,0,0.7,0,1.1
		c-0.1,1-0.1,2-0.1,2.9l0,0.3c-0.1,1.6-0.1,3.2-0.3,4.9c0,0,0,0.1,0,0.1c0,0,0.1,0,0.1,0c0.1,0,0.2,0,0.4,0c0.3,0,0.4,0,0.6,0
		c0.4,0,1.1,0.1,1.6,0.5c0.9,0.7,0.7,2,0.5,2.7c0,0.1,0,0.2,0,0.3c-0.1,1.1-0.1,2.2-0.2,3.3c0,0.4,0,0.8,0,1.2c0,0.9,0,1.9-0.1,2.8
		c-0.2,1.6-1.3,1.7-1.7,1.7c-0.3,0-0.6-0.1-0.8-0.1c-0.1,0-0.2,0-0.2-0.1c-0.2,0.6-0.7,0.9-1.2,0.9c0,0.4,0,0.9-0.4,1.3
		c-0.2,0.3-0.6,0.4-1,0.4c-0.1,0-0.2,0-0.4,0c-0.2,0.3-0.6,0.8-1.5,0.8c-0.1,0-0.3,0-0.4,0c0,0-0.3,0-0.3-0.1c0,0.5-0.2,0.9-0.5,1.2
		c-0.4,0.4-0.9,0.6-1.5,0.6c-0.4,0-0.8-0.1-1.1-0.1c0,0.3,0,0.6-0.1,0.8c0,0.1,0,0.3-0.1,0.4c0,0.4-0.2,0.7-0.5,0.8c0,0-0.1,0-0.1,0
		c0,0.2-0.1,0.5-0.1,0.5c-0.1,0.6-0.4,0.9-0.6,1.2c0,0-0.1,0.1-0.1,0.2c0,0.1,0.1,0.2,0.1,0.2c0.2,0.5,0.4,1,0.3,1.7c0,0,0,0,0,0
		c0,0,0.1,0.1,0.3,0.3c0.2,0.2,0.5,0.6,0.7,1c0.4,1,0.3,1.7,0.2,2.5l0,0.3c0.7,0.7,0.7,1.5,0,2.3c-0.1,0.2-0.3,0.3-0.5,0.4
		c0.2,0.1,0.3,0.4,0.3,0.6c0,0.3,0,0.5-0.2,0.7c0,0.1,0.1,0.2,0.1,0.3c0.3,0.5,0.6,1.3,0.3,2c0,0.1-0.1,0.2-0.2,0.3
		c0.8,0.1,1.2,0.4,1.5,0.8c0.5,0.5,0.5,0.9,0.6,1.3l0.1,0.3c0.3,0.1,0.6,0.3,1.2,0.8l0.1,0c0.1,0,0.3,0,0.4,0c0.5,0,0.9,0.2,1.1,0.5
		c0.2,0.2,0.3,0.6,0.2,1.2c-0.4,1.7-0.6,2.3-1.3,2.4l-0.3,0c-0.1,0.4-0.5,0.7-0.9,0.7c-0.3,0-0.4,0-0.5,0c-1.3,0-2.6,0.7-2.6,1
		c0,0.3-0.2,0.6-0.4,0.7c-0.4,0.6-1,0.9-1.6,0.9c-0.3,0-0.5-0.1-0.8-0.2c0,0.1-0.1,0.4-0.1,0.4c-0.1,0.4-0.2,0.7-0.5,0.9
		c0.2,0.2,0.4,0.5,0.4,0.9c0.8,0.2,1.2,0.6,1.9,1.6c0.2,0.3,0.3,0.7,0.1,1c-0.1,0.2-0.2,0.3-0.4,0.4c0.5,0.3,0.9,0.9,1,1.8
		c0.1,0.6-0.2,1-0.3,1.2l0,0c0,0,0,0,0,0.1c0.1,0.2,0.2,0.5,0.2,0.9c0,0,0,0.1,0,0.1c0.3,0.2,0.6,0.6,0.7,1.2c0,0.4,0.1,0.7,0.1,1
		c0,0.7,0,1,0.6,1.6c0.2,0.2,0.3,0.6,0.2,1c0,0,0,0,0,0.1l0,0c1,1,1.4,2,1.7,3c0.1,0.4,0.3,0.8,0.4,0.8c0.2,0,1.2,0.2,1.3,1.1
		c0,0,0,0.1,0,0.1c0.6,0.4,1.1,0.8,1.2,1.4c0.1,0.3,0.1,0.6,0,0.8c0,0.2,0,0.3,0,0.4c0.1,0.6,0.1,1.8-0.6,2.6
		c-0.1,0.2-0.3,0.3-0.5,0.4c0.3,0.8,0.8,1.6,1.3,1.7c0.7,0.2,1.1,0.8,1.3,1.3h0c0.5-0.3,1-0.6,1.6-0.6c0.3,0,0.6,0.1,0.8,0.2
		c0.6,0.2,1,0.7,1.2,1c0,0.1,0.1,0.2,0.1,0.2c0.3,0,0.5,0.1,0.8,0.3c0.4,0.3,0.5,0.9,0.6,1.3c0,0.2,0,0.3,0.1,0.3
		c0.7,0.6,1.4,2.3,1.2,3.6c-0.1,0.3-0.1,0.6-0.3,0.8C60.6,141.6,60.8,142.1,60.8,142.5z M102.2,145c0-0.2,0-0.6-0.1-1.1
		c0-0.3,0-0.5,0-0.7c0-0.8,0-1.6-0.1-2.3c0-1.4-0.1-2.8-0.1-4.2c0-0.6,0-1.2,0.1-1.8l0.1-1.1c0-0.3,0-0.6,0-0.9
		c-0.1-0.8-0.1-1.6,0.2-2.4c0.3-0.9,1.1-1.3,2.5-1.3c0.5,0,1.1,0.1,1.5,0.1c0.4,0,0.5,0.1,0.6,0.1c1.2,0,2.4,0.1,3.6,0.2
		c1,0.1,2,0.1,3,0.2c0.7,0,1.4,0,2.1,0c1.8,0,3.7-0.1,5.4-0.2c1.9-0.1,3.8-0.2,5.7-0.2c0,0,20.3,0.1,21.7,0.1c2.1,0,3.9,0,5.6-0.1
		l1.9,0c0.9,0,2,0,3,0c1.6,0,2.8,0,3.7-0.1c0-0.2,0-0.6,0.1-1c0-0.1,0.1-0.3,0.1-0.4l-0.2-0.5l0.6-0.5c0-0.4,0.4-0.7,0.6-0.9l0-0.1
		c0-0.4,0-0.8,0.3-1c0-0.1,0-0.2,0.1-0.3c0-0.1,0.1-0.2,0.1-0.3l0-0.1c-1,0-2,0-2.9,0.1c-1.9,0-3.8,0.1-5.7,0.1l-1.3,0
		c-0.4,0-0.8-0.2-1.1-0.6c-0.9-1.1-0.5-4.3-0.5-4.6c0.1-0.3,0.1-0.6,0.2-0.9c0.1-0.7,0.2-1.3,0.5-2c-0.4-0.4-0.5-0.9-0.6-1.2
		c-0.6-0.1-1.1-0.4-1.4-1c-0.3-0.2-0.7-0.5-0.8-1.1l-0.4,0.3l-0.5-1.7c-0.1-0.3-0.2-0.4-0.4-0.7c-0.2-0.2-0.4-0.5-0.5-0.9
		c-0.1-0.1-0.3-0.2-0.4-0.3c-0.5-0.5-0.4-1.2-0.3-1.7c0-0.2,0-0.2,0-0.3c0,0,0-1.6,0-2.1c0-1.4,0-2.5,0.1-3.6c0-0.3,0-0.3-0.1-0.6
		c-0.1-0.3-0.4-0.8-0.3-1.5c0-0.3,0-0.7,0-1c0-0.7-0.1-1.6,0.1-2.4c0-0.1,0-0.1,0-0.1c-0.1,0-0.1,0-0.2,0c-0.4,0-0.8,0.1-1.3,0.1
		c-0.5,0.1-0.9,0.1-1.3,0.1h0c-0.4,0-0.8,0-1.3-0.1l-0.2,0c-0.9-0.1-2-0.2-2.8-0.2c-0.5,0-0.8,0-1,0.1c0,0.1,0,0.1,0,0.2
		c0.1,0.5,0.1,1.5-0.6,2.1c-0.7,0.6-1.8,0.6-2.6,0.6l-0.8,0c-0.9,0-1.6-0.3-2-0.8c-0.4-0.5-0.5-1.2-0.3-2.1l0-0.1
		c-0.6-0.3-0.6-1-0.6-1.3c-0.1-0.2-0.2-0.6-0.1-1.1c0,0-0.1-0.1-0.1-0.2l-0.6,0c-1,0-1.9,0-2.9,0c-1.8,0-3.7,0-5.6-0.1
		c-0.2,0-0.5,0-0.8-0.1c-0.4-0.1-0.8-0.1-1.2-0.1c-0.1,0-0.2,0-0.2,0c0,0.3-0.1,0.5-0.3,0.8c-0.4,0.4-0.9,0.6-1.7,0.6
		c-0.8,0-1.8-0.2-2.5-0.3l-0.2,0c-0.3-0.1-0.5-0.1-0.6-0.1c-0.6,0-1.2,0-1.9,0c-1.2,0-2.3,0-3.4-0.1l-0.3,0c-0.8,0-1.6,0-2.3,0
		c-0.5,0-0.8,0-1.2,0.1c-0.4,0-0.9,0.1-1.3,0.1c-0.4,0-0.8,0-1.1-0.1c-0.1,0-0.1,0-0.2,0l0,0.1c-1.2,0-2.4-0.1-3.5-0.1l-0.9-0.1
		c-0.1,0-0.3,0-0.5,0c-0.3,0-0.4,0-0.5,0c0.1,0,0.1,0.1,0.1,0.2c0,0.5,0.1,1.6-1.3,2.1h0c0,0,0,0.1-0.2,0.5L97,97.7l0,0
		c0,0,0,0.2,0.1,0.8c0.1,0.7,0.1,1.2-0.2,1.6c-0.3,0.3-0.5,0.4-0.8,0.5c0,0.1,0,0.2-0.1,0.3c-0.4,1-1.3,1.4-1.6,1.5
		c-0.2,0.2-0.8,0.7-1.3,0.8c-0.1,0.1-0.2,0.1-0.2,0.2c0,0.2-0.5,0.8-1,1.1c-0.1,0.3-0.5,0.7-1,1.3c-0.1,0.1-0.1,0.1-0.2,0.2l0,0
		c0.8,0,1.1,0.6,1.3,0.9c0.2,0,0.3,0.1,0.5,0.2c0.2,0.2,0.4,0.5,0.4,0.8c0,0,0,0,0,0c0,0,0.6,0.7,0.8,0.9c0,0,0,0,0,0
		c0.2,0,0.5,0.1,0.7,0.6c0,0,0.1,0,0.2,0c0.4,0,1-0.1,1.4-0.1c0.2,0,0.3,0,0.4-0.1c0.1,0,0.3,0,0.4,0c0.6,0,1.1,0.2,1.4,0.6
		c0.6,0.7,0.4,1.7,0.2,2.4c-0.1,0.3-0.1,0.5-0.1,0.6c-0.1,1.5-0.1,3-0.1,4.4c0,0.7,0,1.3,0,1.8c0,0.3-0.1,0.6-0.4,0.8
		c-0.1,0.1-0.1,0.1-0.2,0.1c0,0.1,0,0.3,0,0.5c0,0.3,0.1,0.5,0.1,0.7c0,1.2,0,2.4-0.1,3.6c-0.1,2.6-0.2,5-0.3,7.3
		c0,0.3-0.1,0.6-0.1,1.1c-0.1,0.8-0.4,2.6-0.2,3.5c0.1,0,0.2,0.2,0.2,0.4c0.1,0,0.1,0.2,0.2,0.4c0.3,0.2,0.6,0.4,0.9,0.8l0.2,0.3
		c0.4,0.4,0.9,1,0.8,1.7c0.5,0.3,1,0.7,1.1,1.3c0,0.3,0,0.5-0.2,0.7c0.8,0.2,1,0.7,1,1C101.6,143.6,102.1,144,102.2,145
		C102.1,145,102.1,145,102.2,145C102.1,145,102.1,145,102.2,145z M30.8,109.2c0.4,0,0.7,0.1,0.9,0.4c0.2,0.2,0.3,0.5,0.2,0.8
		c0,0.1,0,0.1,0.5,0.5c0.4,0.3,0.9,0.7,1.2,1.2c0,0,0,0.1,0.1,0.1c0.1-0.2,0.4-0.6,0.7-1.2c0.1-0.3,0.2-0.4,0.3-0.5
		c0.2-0.3,0.5-0.5,1-0.5c0.2,0,0.5,0.1,0.7,0.2c0.2-0.2,0.5-0.3,0.7-0.3c0.4-0.5,0.7-0.7,0.9-0.8c0.1-0.1,0.1-0.1,0.2-0.1l0.5-0.7
		c0.3-0.4,0.6-0.6,0.8-0.7c-0.2-0.8,0.2-1.5,0.9-1.8c0.2-0.1,0.4-0.1,0.6-0.1c0.2,0,0.4,0,0.6,0.1c0.1,0,0.3,0.1,0.4,0.1l0,0
		c0.1,0,0.1-0.1,0.2-0.1c0.1-0.8,0.4-2.3,1.6-2.3c0.4,0,0.8,0.2,1.1,0.6c0,0,0,0,0,0c0.1-0.2,0.2-0.4,0.3-0.5c0.6-1.1,2.5-1.9,4-2
		c0.3-0.4,0.8-0.5,1.2-0.6c0,0,0-0.1,0-0.1c-0.3,0-0.6-0.1-0.8-0.3c-0.2-0.2-0.4-0.4-0.5-0.5l-0.1,0c-1,0-1.3-1-1.3-1.3
		c-0.1-0.3-0.1-0.5-0.1-0.6c0-0.2,0-0.2-0.1-0.3c-0.1-0.1-0.1-0.1-0.1-0.2c-0.3,0.2-0.6,0.4-1,0.4c-0.2,0-0.5-0.1-0.7-0.2
		c-0.4-0.2-0.6-0.5-0.7-0.9c-0.2-0.8,0.4-1.6,0.8-2.2c0-0.1,0.1-0.1,0.1-0.2l-0.2-0.5c-0.2-0.3-0.4-0.8-0.4-1.4
		c-0.2-0.2-0.3-0.3-0.3-0.3c-0.6-1.3,0.6-2.1,1-2.4c0,0,0.1-0.1,0.1-0.1c-0.2-0.3-0.4-0.6-0.4-1.2l0-0.5c0.1-0.6,0.1-1.1-0.1-1.6
		c0,0-0.1-0.2-0.3-0.3c-0.4-0.4-0.8-0.9-0.8-1.6c0-0.4-0.1-0.6-0.2-1l-0.2-0.5c-0.3-0.9,0.2-1.5,0.5-1.9c0.1-0.1,0.2-0.3,0.2-0.3
		c0.1-0.6,0.2-1.5,0.8-1.9c0-0.2,0-0.3,0-0.3c-0.1-0.2-0.4-0.9-0.1-1.5c0.2-0.4,0.6-0.6,1.1-0.6c0.2,0,0.3,0,0.6,0
		c0.2,0,0.3,0.1,0.5,0.1c0.4,0.1,0.7,0.1,0.9,0.1c0,0,0,0,0,0c0,0,0-0.1,0-0.1c0-0.6,0.2-1,0.4-1.2c0.3-0.3,0.7-0.5,1.2-0.5
		c0.3,0,0.6,0,0.8,0.1l0.2,0c0.1-0.2,0.4-0.8,1.3-0.8c0,0,0-0.1,0-0.1c0-0.4,0.2-1.5,1.5-1.5c0.3-0.6,0.9-1,1.5-1
		c0.3,0,0.6,0.1,0.8,0.1c0,0,0.1,0,0.1,0c0.1-0.8,0.1-1.7,0.1-2.5c0-0.4,0-0.9,0-1.3c0-1.1,0-2.3,0.2-3.5c0-0.1,0-0.3,0.1-0.5
		c0.1-0.6,0.1-0.9,0.1-0.9c0,0,0,0,0,0c0,0-0.1,0-0.3,0c-0.1,0-0.3,0-0.4,0c-0.3,0-0.4,0-0.6,0c-0.4,0-1.1-0.1-1.6-0.6
		c-0.4-0.4-0.5-1-0.5-1.7c0.1-1.6,0.2-3.3,0.3-4.8c0-1.1,0.1-2.2,0.2-3.3c0-0.3,0-0.6,0-0.9c0-1.1,0-2.2,0.7-2.9
		c0.4-0.4,1-0.6,1.7-0.6c0.2,0,0.4,0,0.7,0c0.2,0,0.5,0.1,0.8,0.2c0.7,0.1,1.8,0.4,2.6,0.4c0.3,0,0.4,0,0.5,0c0,0,0-0.1,0-0.2
		c0-0.2,0.1-0.5,0.2-0.9c0,0,0,0,0,0c0,0-0.1-0.1-0.2-0.3c-0.3-0.5-0.8-1.5,0-2.5c0.4-0.5,1-0.6,1.4-0.6l0.1,0
		c0.1-0.5,0.2-1.1,0.3-1.7c0.1-0.6,0.1-0.7-0.1-1.1c-0.1-0.2-0.1-0.3-0.2-0.5c-0.3-0.7-0.1-1.2,0.1-1.4c0.5-0.7,1.4-0.7,1.8-0.8
		c0.1-0.2,0.2-0.3,0.4-0.4c0.3-0.7,1-0.7,1.3-0.8c0.1,0,0.3,0,0.4-0.1c0.1-0.1,0.1-0.2,0.2-0.3c0,0-0.1-0.1-0.1-0.1
		c-0.6-0.3-1-0.6-1.1-1.1c0-0.1,0-0.3,0-0.4c-0.5-0.4-0.7-1-0.8-1.5l-0.2,0c-0.2,0-0.4-0.1-0.6-0.2c-0.2-0.2-0.4-0.4-0.5-0.6
		c-0.4,0-1.2-0.2-1.6-0.6c0,0,0,0,0,0c0,0-0.1-0.1-0.6-0.2c-0.6-0.2-1.2-0.4-1.3-1.1c-0.1-0.4,0-0.8,0-1.1c0-0.1,0-0.4,0-0.5
		c-0.5-0.3-1.7-1.3-2-1.9c-0.2-0.4-0.2-0.8,0-1.1c0.3-0.6,1-0.6,1.6-0.6c0.7,0,1.6,0.1,1.9,0.2c1.1,0.2,2.2,0.2,3.2,0.2
		c0,0,1.2,0,1.5,0.1l1.8,0.1c1.1,0.1,2.2,0.1,3.3,0.1c0.3,0,0.6,0,1,0.1c0.4,0,0.8,0.1,1.1,0.1c0-0.4,0.1-0.7,0.2-1
		c0-0.2,0.1-0.3,0.1-0.4c0-0.3,0-0.6,0-0.9c0-0.6,0-1.2,0.1-1.8c0.2-1.5,2.2-1.5,2.9-1.5c0.9,0,1.8,0.1,2.6,0.2c0.3,0,0.4,0,0.6,0.1
		c0.4,0,0.8,0.1,1.1,0.2c0.3,0.1,0.6,0.1,0.8,0.1c0-0.2,0-0.5,0-1.1l0-0.3c-0.1-2.5,0-4.9,0.1-7.3l0-0.4c0.1-1.3,0.1-2.5,0.1-3.8
		c0-0.1,0-0.2,0-0.4c0-0.2,0-0.4,0-0.7c0,0-0.1,0-0.1,0c-0.2,0-0.4,0-0.6,0c-0.3,0-0.5,0-0.7,0c-0.9,0-1.7-0.1-2.5-0.1l-0.2,0
		c-0.7,0-1.4-0.1-2.1-0.1c-3.2-0.1-6.4-0.2-9.6-0.3c-7.7-0.3-14.1-0.7-20.3-1.1c-4.2-0.3-8.4-0.5-12.5-0.8l-0.5,0
		c-2.3-0.1-4.7-0.3-7-0.4c-3.8-0.2-6.9-0.5-9.7-0.9c-1.7-0.2-3.5-0.3-5.2-0.4C9.3,4.5,8,4.5,6.7,4.4c-0.1,3.3-0.4,6.6-0.8,9.7
		c-0.2,2.3-0.5,4.7-0.6,6.9c-0.1,2.2-0.4,4.4-0.6,6.5l-0.3,2.6c-0.1,1.1-0.2,2.1-0.3,3.2c0,0.4,0,0.6,0,0.7c0.2,0,0.8,0.4,0.8,1.2
		c0,0.2,0.9,1.7,1.4,2.4c0.3,0,0.5,0.1,0.7,0.3c0.5,0.5,0.7,1.1,0.8,2c0,0.1,0,0.3,0,0.5c0,0.1,0,0.2,0,0.3c0.6,0.1,1,0.4,1.1,1
		c0,0.1,0.2,0.3,0.3,0.5c0.4,0.5,0.9,1.2,0.7,2.1c0,0.1,0,0.2-0.1,0.3c0.1,0.1,0.3,0.4,0.4,0.8c0.3,0.9,0.1,1.7-0.6,2.3
		c0.1,0.1,0.2,0.3,0.3,0.4c0.1,0.3,0.1,0.6,0,0.9c0.6,0.2,1.1,0.7,1.2,1.3c0.1,0.5-0.2,1.2-1,1.5c0.2,0.2,0.4,0.5,0.5,0.7
		c0.2,0,0.3,0.1,0.5,0.2c0.3,0.2,0.5,0.5,1.1,1.3c0.5,0.8,0.8,1.2,1,1.4l0,0c0.4,0,0.7,0.2,0.9,0.5c0,0,0.3,0.1,0.5,0.1
		c0.3,0.1,0.8,0.2,1.1,0.4c0.1,0.1,0.3,0.2,0.4,0.3c0.6,0.4,1.7,1,1.5,2.6c0.1,0.1,0.4,0.3,0.7,0.6c0.6,0.4,1.1,0.8,1.3,1.3
		c0.1,0.2,0.1,0.2,0.3,0.3c0.2,0.1,0.3,0.3,0.5,0.4l0.1,0.1l0.1,0.2c0.1,0.3,0.1,0.6,0.2,0.9c0,0,0,0,0,0c0,0,0.2,0.2,0.3,0.4
		c0.2,0.2,0.4,0.5,0.6,0.7c0.2,0.4,0.4,0.7,0.5,1c0.2,0.5,0.2,0.5,0.4,0.6c0.2,0.1,0.3,0.2,0.4,0.3c0.2,0.2,0.3,0.4,0.5,0.5
		c0.7,0.7,1.4,1.5,1,3c0,0.1-0.1,0.2-0.1,0.3c0.1,0.2,0.2,0.5,0.3,0.8c0.2,0,0.4,0.1,0.5,0.2c0.3,0.2,0.5,0.4,0.6,0.6
		c0,0,0.1,0.1,0.1,0.2c0.1,0,0.2,0,0.3,0c0.2,0,0.3,0,0.5,0.1c0.3,0.2,0.5,0.5,0.5,0.9c0.1,0.1,0.2,0.3,0.3,0.4c0,0,0.1,0,0.1-0.1
		c0,0,0.3-0.1,0.3-0.1c0.3,0,0.6,0.1,0.8,0.4c0.3,0,0.8,0.1,1.1,0.7c0.2,0.3,0.8,1.1,0.1,2c0.1,0.2,0.1,0.2,0.1,0.2
		c0.1,0,0.2,0,0.4-0.1c0.2-0.1,0.3-0.1,0.5-0.1c0.5,0,0.9,0.2,1.2,0.4c0,0,0.1,0.1,0.1,0.1l0.1-0.1c0.6-0.3,0.9-0.5,1.8-0.7
		c0.1,0,0.3,0,0.4,0c1.2,0,1.9,1,2,2c0.1,0.7-0.1,1.3-0.5,1.7c0,0.2,0,0.4,0,0.6c-0.1,1-0.4,2.3-1.3,2.5c0.2,0.5,0.5,1.5-0.3,2.4
		c-0.1,0.1-0.2,0.2-0.3,0.3c-0.1,0.1-0.1,0.1-0.1,0.1c0.3,0.7,0,1.4-0.3,1.8c-0.2,0.3-0.2,0.4-0.2,0.4c0.2,1-0.3,1.5-0.8,1.7
		c0,0.2,0,0.5,0.2,1.4c0.1,0.5,0.1,0.9,0.1,1.1c0,0.4-0.2,0.8-0.6,0.9c0,0-0.3,0.1-0.3,0.1c-0.3,0-0.5-0.1-0.7-0.2c0,0,0,0,0,0
		c0.6,0.4,0.9,0.8,1,1.3c0.1,0.7-0.3,1.2-0.5,1.5c0.1,0.1,0.2,0.2,0.2,0.4c0.1,0.1,0.1,0.3,0.1,0.5c0,0,0.1,0,0.1,0.1
		c0.3,0.2,0.4,0.4,0.6,0.6c0.1,0.1,0.2,0.3,0.3,0.3c0.3,0.1,0.4,0.4,0.5,0.7c0.1,0.3,0,0.6-0.2,0.8c-0.1,0.1-0.2,0.2-0.3,0.3
		c0.4,1,0.6,1.7-0.2,2.9c-0.1,0.1-0.4,0.4-0.9,0.4c-0.2,0-0.4,0-0.6-0.1h0c-0.1,0-0.2,0-0.4,0.1c-0.1,0-0.1,0-0.2,0.1
		c-0.1,0.3-0.4,0.6-0.6,0.9c-0.2,0.2-0.4,0.5-0.4,0.6c0,0,0.2,0.2,0.3,0.3c0.4,0.4,1.2,1.2,0.7,2.3c0,0,0,0,0,0c0,0,0,0.1,0,0.2
		c0,0.6-0.5,1.2-1.1,1.6c0.2,0.4,0.1,0.7,0,1l0.3,0C30.3,109.2,30.7,109.2,30.8,109.2z M115.7,92.8c0.3,0,0.7,0.1,1.2,0.2
		c0.7,0.1,1.6,0.3,2.2,0.3c0.1,0,0.1,0,0.2,0c0.1-0.3,0.2-0.6,0.4-0.8c0.4-0.4,0.9-0.6,1.7-0.6c0.5,0,1,0.1,1.5,0.1
		c0.3,0,0.4,0.1,0.5,0.1c1.9,0.1,3.7,0.1,5.6,0.1c0.9,0,1.9,0,2.8,0l1.3,0c0.9-0.2,2.5-0.4,3.4-0.4c0.4,0,0.8,0,1.2,0.1
		c0-0.3-0.1-0.5-0.1-0.8c0-0.3-0.1-0.6-0.1-0.9c0-0.6,0-1.2,0-1.9c0-0.5,0-1.1,0-1.6c0-0.4,0-0.7,0.1-1.1c0-0.1,0-0.2,0-0.3
		c0.1-0.4,0.2-0.7,0.3-0.9c0-0.1,0-0.1,0-0.2c0-0.3,0-0.6,0-0.8c-0.1-0.6-0.2-1.3-0.2-2.3c0,0,0-0.4,0-0.5c0-0.2,0-0.5,0-0.7
		c0-0.8-0.1-1.6,0.1-2.5c0.1-0.4,0.4-1.4,2.2-1.4c0.1,0,0.6,0,0.6,0l0.7,0c0.9,0,1.7,0,2.5,0.1l0.2,0c0.7,0,1.5,0.1,2.2,0.1
		c0.4,0,0.8,0,1.3,0c2.9-0.1,5.8-0.2,8.6-0.2c2.1,0,4.2,0,6.3-0.1c0.5,0,1.1,0,1.6-0.1c1,0,1.9-0.1,2.8-0.1c0.5,0,1,0,1.5,0l0.4,0
		c0.3,0,0.7,0.1,1.2,0.1l-1.4-1.4l0.1,0l-0.5-0.3l0.5-0.4c-0.4-0.4-0.4-0.8-0.4-1c0-0.3,0.2-0.6,0.3-0.9c-0.1-0.2-0.1-0.5,0-0.7
		c0-0.1,0.1-0.3,0.3-0.5c0,0,0-0.1-0.1-0.1c-0.1-0.3,0-0.7,0.2-0.9c-0.2-0.1-0.3-0.3-0.3-0.5c0-0.1,0-0.4,0.1-0.6
		c-0.1-0.2-0.2-0.3-0.2-0.5c0-0.1,0-0.2,0-0.4c-0.3-0.2-0.4-0.5-0.4-0.9c-0.1-0.1-0.2-0.3-0.2-0.5c0-0.1,0-0.3,0-0.4
		c0-0.1-0.1-0.2-0.1-0.3c0-0.1,0-0.2,0-0.3c0-0.1,0-0.2,0-0.3c0-0.1,0-0.2,0.1-0.2c0-0.1,0-0.2,0-0.2c0-0.2,0-0.3,0.1-0.4
		c-0.1-0.1-0.1-0.3-0.1-0.5c0-0.1,0-0.3,0.1-0.4c-0.2-0.2-0.3-0.5-0.3-0.8c0-0.1,0-0.1,0-0.2c-0.2-0.4,0-0.8,0.1-1c0,0,0-0.1,0-0.3
		c-0.1-0.2-0.1-0.5,0.1-0.8c-0.1-0.2-0.1-0.4-0.1-0.6c0-0.4,0.3-1.5,0.7-2.1c0-0.1,0-0.3,0.2-0.5c0-0.1,0-0.3,0-0.4c0,0,0,0,0,0
		c0,0-0.1-0.1-0.1-0.2c-0.1-0.4,0-0.9,0.1-1.3c0.1-0.3,0.2-0.7,0.1-0.9c-0.2-1.1-0.3-1.2-1-1.5c-0.3-0.1-0.7-0.2-1.1-0.2
		c-0.4,0-0.8,0-1.2,0.1c-0.4,0.1-0.8,0.1-1.3,0.2l-0.2,0c-0.3,0-0.7,0-1.1-0.1c-0.3,0-0.6-0.1-0.9-0.1l-0.1,0
		c-0.1,0.3-0.4,0.6-1.1,0.6c-0.1,0-0.8,0-1.2-0.3c-0.1,0-0.2-0.1-0.4-0.2c-0.1,0-0.2,0-0.3,0c-0.2,0-0.5-0.1-0.7-0.2
		c-0.1,0-0.1-0.1-0.2-0.2c-0.1,0-0.3,0.1-0.4,0.1c-0.5,0-0.8-0.2-1.1-0.5c-0.2,0-0.4,0.1-0.6,0.1c-1,0-2.5-0.4-2.9-0.6
		c-0.4-0.1-0.6-0.3-0.7-0.5c-0.1,0-0.2,0-0.3,0c-0.5,0-0.9-0.3-1.2-0.7c0,0,0,0,0,0c-0.1,0-0.2-0.1-0.3-0.2
		c-0.2-0.2-0.3-0.4-0.3-0.7c-0.2-0.2-0.6-0.6-1.5-1.2l-0.2-0.1c-1.2-1.4-0.8-3.8-0.5-5.5l0.1-0.5c0.1-0.5,0.4-1.6,2.3-1.6
		c0.5,0,1,0.1,1.5,0.2c0.4,0.1,0.7,0.1,0.8,0.1c0.4,0,0.6,0,0.8-0.1c0,0,0-0.1,0-0.1c0-1.6,0.8-2,1.5-2c0.4,0,0.9,0.1,1.3,0.2
		c0.3,0.1,0.8,0.2,1.1,0.2c0.2-0.5,0.1-1.5,0-2.4c-0.1-0.6-0.1-1.2-0.1-1.7c0,0,0-0.1,0-0.2c-0.2-1.6-0.3-2.6,0.5-3
		c0-0.1,0-0.3,0-0.7c0-0.2,0-0.4,0-0.5l0-0.2c0-1,0-1.9-0.2-2.8c0-0.3,0-2,0.4-2.5c0.2-0.2,0.5-0.4,0.7-0.4l0.2,0l0-0.4
		c0-0.5-0.1-1-0.1-1.6c0-0.8,0.3-1.2,0.5-1.5c0.1-0.2,0.1-0.2,0.1-0.4c0-0.4-0.1-0.9-0.1-1.3c-0.1-0.9-0.2-1.8,0-2.8
		c0.2-1,1.1-1.1,1.4-1.2c0-0.2,0-0.7-0.2-1.5c0-0.3-0.1-0.4-0.1-0.6l0-0.2c-0.2-1-0.3-1.9,0.2-2.5c0.1-0.1,0.2-0.2,0.3-0.3
		c0-0.2,0-0.4-0.1-0.7l-0.3,0l0,0c-0.3,0-0.6,0-0.9,0c-0.4,0-0.7,0-1.1,0c-1.7,0-3.4,0-5,0.1c-1.6,0-3.1,0-4.7,0l-6.3,0
		c-2.4,0-4.9,0-7.3,0c-2.6,0-5.2,0-7.7,0c-2.2,0-4.4,0-6.7,0c-4.2,0-8.4-0.1-12.5-0.2l-0.5,0c-2.8-0.1-5.6-0.1-8.5-0.2
		c-0.3,0-1,0-2-0.1C94.6,9.2,90,9,86.6,9c-1.6,0-2.4,0-2.9,0.1c0,0,0,0.1,0,0.1c0,0.2,0,0.4,0,0.6c0,1.3-0.1,2.6-0.1,3.9l0,0.4
		c-0.1,2.4-0.2,4.8-0.1,7.2l0,0.2c0.1,1,0.1,2.1-0.5,2.8c-0.3,0.3-0.7,0.5-1.1,0.5c-0.5,0-1-0.1-1.5-0.2c-0.4-0.1-0.7-0.1-1-0.1
		c-0.1,0-0.4,0-0.7-0.1c-0.6-0.1-1.6-0.2-2.4-0.2c-0.5,0-0.8,0-1,0.1c0,0.3,0,0.7,0,1c0,0.4,0,0.8,0,1.1c0,0.2-0.1,0.4-0.1,0.6
		c-0.1,0.5-0.1,0.7-0.1,0.8c0.1,0.2,0.2,0.4,0.2,0.6c0,0.3-0.2,0.6-0.4,0.8c-0.4,0.3-0.9,0.4-1.6,0.4c-0.5,0-1.1-0.1-1.5-0.1
		c-0.3,0-0.6-0.1-0.7-0.1c-1.2,0-2.4-0.1-3.6-0.2L66,29.2c-0.5,0-1,0-1.5-0.1c-1.1,0-2.2-0.1-3.4-0.2c0.8,0.7,0.7,1.6,0.7,2.2l0,0.2
		c0.6,0.2,1.1,0.4,1.4,0.7c0.1,0,0.2,0,0.2,0c0.2-0.1,0.4-0.2,0.6-0.2l0.4,0.1c0.3,0.1,0.6,0.4,0.7,0.6c0.5,0.1,1,0.3,1.4,0.7
		c0.3,0.3,0.4,0.7,0.3,1.1c0,0.1-0.1,0.1-0.1,0.2c0,0.2,0.1,0.2,0.4,0.3c0.4,0.1,0.7,0.5,0.7,0.9c0,0.1,0,0.2,0,0.3
		c0.5,0.4,0.9,0.9,1,1.5c0.2,0.9-0.1,1.5-0.7,1.7c-0.3,0.4-0.8,0.6-1.1,0.7c0.4,0.9,0.9,1.9,1,2.8c0.1,0.5-0.1,1-0.2,1.3
		c-0.1,0.5-0.1,0.5-0.1,0.6c0.2,0.4,0.2,0.8,0.2,1.4c0,0.5,0,0.8,0,1c0,0,0.1,0.1,0.1,0.1c0.4,0.3,0.7,0.7,0.9,1
		c0.4,0.5,0.4,0.5,0.5,0.5c0.1,0,0.2,0,0.3,0c0.4-0.3,0.8-0.4,1.1-0.4c0.2,0,0.4,0,0.6,0.1c0.1,0,0.5-0.1,0.8-0.2
		c0.3-0.1,0.6-0.2,0.8-0.2c0.2,0,0.3-0.1,0.4-0.1c0.2-0.1,0.4-0.2,0.7-0.2c0.6,0,1,0.4,1.4,0.8c0,0,0,0,0,0c0,0,0.1,0,0.5,0.2
		c0.6,0.2,1.4,0.4,1.7,1.3c0,0.1,0.1,0.3,0.1,0.5c0,0.1,0,0.2,0,0.3c0.2,0,0.5,0,0.8,0.2c0,0,0,0,0.1,0c0.5,0,1,0.4,1.4,1.1l0.6,0
		c0.4,0,0.8,0,1.2,0c0.5,0,0.9,0,1.2-0.1c0.2,0,0.5-0.1,0.6-0.1c0.5,0,0.9,0.1,1.2,0.5c0.5,0.5,0.5,1.1,0.5,1.8
		c0,1.3-0.1,2.7-0.2,3.9c-0.1,1.2-0.2,2.4-0.2,3.6c0,0,0.1,0,0.1,0c0.2,0.1,0.3,0.1,0.4,0.3c0.1,0,0.2,0,0.2,0.1
		c0.2,0.1,0.6,0.3,0.7,0.9c0.1,0,0.1,0.2,0.2,0.4l0.2,0.1c0.3,0,0.6,0.2,0.8,0.4c0.1,0.1,0.1,0.1,0.1,0.1c0.2-0.1,0.4-0.1,0.6-0.1
		c0.6,0,1.2,0.2,1.5,0.7c0.8,0.9,0.5,2.3,0.2,3.8c-0.1,0.7-0.3,1.7-0.2,2.1c0.2,0,0.3,0,0.5,0.1c1.9,0.3,3.1,0.5,3.4,1.5
		c0.1,0.4,0.1,0.9-0.5,1.4c0,0.1,0.1,0.2,0.2,0.3c0.4,0,0.8-0.1,1-0.1c0.1-0.1,0.3-0.1,0.5-0.1c0.3,0,0.6,0.1,0.8,0.4
		c0.4,0.6,0.4,1.2,0.4,1.6c0,0.2,0,0.3,0,0.3l0.1,0c0.3,0.2,0.8,0.6,0.8,1.3c0,0.2,0,0.4-0.1,0.6c0,0,0.1,0.2,0.1,0.3
		C97,78,97,78,97.1,78.1c0.2,0.1,0.5,0.4,0.6,0.9c0.3,0,0.5,0.1,0.8,0.2c0.8,0.3,1.1,1,0.9,2c0,0.1,0,0.2-0.1,0.2
		c0,0.1,0,0.2,0.1,0.3c0.1,0.2,0.2,0.6,0.1,1l0,0c0.1,0.1,0.2,0.1,0.3,0.2c1,0.8,1,1.2,1.2,2.4c0,0,0,0,0,0.1c0.1,0,0.2-0.1,0.3-0.2
		c0.4-0.2,0.8-0.4,1.2-0.4c0.5,0,0.9,0.3,1.2,0.8c0.5,0.2,0.9,0.7,1,1.3c0.3,1,0,2.2-0.7,3c-0.2,0.2-0.4,0.8-0.4,1.1
		c0.2,0.1,0.6,0.2,0.8,0.6c0.1,0.2,0.2,0.5,0.2,0.7c0.2,0.3,0.2,0.5,0.3,0.7c0.2,0,0.3,0,0.5,0c0.4,0,0.8,0,1.2-0.1
		c0.4,0,0.9-0.1,1.3-0.1c0.9,0,1.7,0,2.5,0.1c1.3,0,2.5,0.1,3.7,0.1C114.4,92.8,115,92.8,115.7,92.8L115.7,92.8L115.7,92.8z
		 M171.1,72.3c0.4,0,0.9,0,1.3,0.1c0.4,0,0.6,0.1,0.8,0.1c1.4-0.1,2.7-0.1,4-0.1h0.6c0.4,0,0.8-0.1,1.3-0.2c0.6-0.1,1.2-0.3,1.9-0.3
		l1.3,0c0.7,0,1.4,0,2.2,0c1.1,0,2.2-0.1,3.3-0.1c1.7-0.1,3.4-0.1,5-0.1c0.7,0,1.3,0.2,1.7,0.3c0.3,0.1,0.6,0.2,0.9,0.2l0.2,0
		c0.3,0,0.7,0,1-0.1c0.4,0,0.7-0.1,1-0.1l2-0.1c2-0.1,4.3-0.3,6.5-0.3c0.2,0,0.4,0,0.4-0.1c0-0.1-0.1-0.8-0.2-1.1
		c-0.1-0.4-0.1-0.6-0.1-0.9l0-0.4c-0.6-6.3-0.2-7.5,1-7.8c0.5-0.1,0.9-0.2,1.3-0.2c0.7,0,1.3,0.2,1.7,0.6c0.6,0.6,0.7,1.5,0.7,2.2
		c0,0,0.1,0,0.1,0c0.2,0,0.3-0.1,0.4-0.1c-0.3-0.9-0.2-1.6,0.3-2.2c0.6-0.8,1.6-0.9,2.5-0.9l1,0c0.1,0,0.3,0,0.4,0
		c1.4-0.1,2.9-0.2,4.3-0.2c0,0,0.1,0,0.1,0c0-0.1,0-0.4-0.1-0.7l-0.1-1.5c-0.2-2-0.4-4.1-0.4-6.1c0-1,0.5-1.6,0.8-1.9
		c0.2-0.2,0.2-0.2,0.2-0.3c0.1-0.6,0-1.4-0.1-2.2l0-0.3c0,0-0.2-1.2-0.2-1.2c-0.1-0.8-0.3-1.8-0.3-2l-0.1-0.4
		c-0.4-1.6,0.1-1.8,1.6-2.1c0.3-0.1,0.8-0.2,1.4-0.2l0.3,0c0.4,0,1.5,0,1.6,0.9c0,0.1,0,0.2,0,0.3c0,0.7,0.1,1.1,0.2,1.3
		c0,0.1,0.1,0.2,0.1,0.3c0.2,0,0.4,0.1,0.8,0.1c1.4,0,3.1-0.3,3.1-0.3l1-0.1l0.3,1.1c0,0.4,0,0.6,0,0.8c0,0.4,0,0.7,0,0.9h0
		c0.7-0.1,1.4-0.1,2-0.2c0.6,0,1.2-0.1,1.7-0.1l0.4-0.1c0.6-0.1,1.7-0.3,2.5-0.3c0.4,0,0.7,0,0.9,0.1c0.6,0.3,0.6,1.3,0.5,2.7
		c1.1,0.1,1.7,0.6,1.8,1.5c0.1,0.7,0.1,1.4,0,2c0,0.6-0.1,1.3,0.1,1.7c0.3,0,0.7,0,1-0.1c0.3-0.1,0.5-0.1,0.7-0.1l1.1-0.1
		c0.9-0.1,1.9-0.2,2.8-0.2c0-0.2,0.1-0.3,0.2-0.4c0.3-0.4,0.9-1,2.1-1l-0.1-2c-0.7-12.5-1.5-25.1-2.5-37.4l-0.1-0.7
		c-0.1-1.7-0.3-3.5-0.4-5.2l0-0.3c0-0.3,0-0.7-0.1-0.9c0,0-0.1,0-0.2,0c-0.6,0-1.6,0.1-2.1,0.2c-0.4,0.1-0.7,0.1-0.9,0.1
		c-2.8,0.2-5.6,0.4-8.5,0.5l-0.6,0c-3.2,0.2-6.4,0.4-9.6,0.6c-11.8,0.7-23.6,1.1-32.6,1.4C185,9,179.4,9.2,173.8,9.3
		c-0.8,0-1.7,0.1-2.5,0.1c-1.6,0.1-3,0.1-4.4,0.1c-0.4,0-0.9,0-1.3,0c-0.1,0-0.4,0-0.7-0.1c-0.4,0-1-0.1-1.5-0.1c-0.2,0-0.4,0-0.4,0
		c0.1,1.2,0.1,1.9-0.3,2.4c-0.1,0.1-0.2,0.2-0.3,0.3c0,0.2,0,0.4,0.1,0.8l0.1,0.8c0.2,1.2,0.4,2.8-0.6,3.5c-0.3,0.2-0.5,0.2-0.7,0.3
		c-0.1,0.5,0,1.1,0.1,1.8c0.1,0.5,0.1,1.1,0.1,1.6c0,0.9-0.4,1.3-0.6,1.6l-0.1,0.2c0,0.5,0,1,0.1,1.4c0,0.7,0.1,1.3,0.1,1.9
		c0,0.3-0.1,0.6-0.3,0.8c-0.2,0.2-0.4,0.3-0.7,0.3c-0.1,0-0.2,0-0.3,0c0,0-0.1,0-0.1,0c0,0,0,0,0,0c0,0,0,0.1,0,0.1
		c0.2,1.1,0.2,2.2,0.2,3.1l0,0.2c0,0.1,0,0.2,0,0.3c0.1,0.6,0.2,1.8-0.5,2.4c0,0.4,0.1,0.9,0.1,1.1c0,0.3,0.1,0.6,0,0.7
		c0,0.4,0,0.9,0.1,1.4c0.1,1.2,0.2,2.5-0.1,3.5c-0.1,0.3-0.6,1.2-1.8,1.2c-0.5,0-1.1-0.1-1.5-0.2c-0.2,0-0.3-0.1-0.4-0.1
		c0,0.3,0,0.7-0.2,1.1c-0.4,0.9-1.6,1-2.2,1l-0.4,0c-0.3,0-0.7-0.1-1.1-0.1c-0.5-0.1-0.9-0.1-1.3-0.1c-0.2,0-0.3,0-0.3,0l-0.1,0.4
		c-0.2,1-0.5,3.2,0,3.8c1.6,1.1,2.1,1.7,2.3,2.2c0,0,0.1,0,0.1,0c0.7,0,1.1,0.4,1.2,0.6c0.4,0.2,1.6,0.5,2.2,0.5
		c0.1-0.1,0.2-0.2,0.4-0.3c0,0,0.4-0.1,0.4-0.1c0.2,0,0.4,0,0.5,0.1c0.1,0.1,0.2,0.1,0.3,0.2c0.2-0.1,0.4-0.2,0.6-0.2
		c0.5,0,1,0.3,1.3,0.7c0.4,0,0.6,0.2,0.8,0.4c0.4-0.2,1-0.3,1.6-0.3c0.4,0,0.8,0,1.1,0.1c0.3,0,0.6,0.1,0.8,0.1
		c0.5,0,0.9-0.1,1.2-0.1c0.6-0.1,1-0.1,1.4-0.1c0.6,0,1.2,0.1,1.8,0.3c1.7,0.6,2,1.6,2.2,2.9c0.1,0.6,0,1.2-0.1,1.7
		c0,0.2-0.1,0.3-0.1,0.5c0.2,0.2,0.2,0.6,0.2,0.7c0,0.1,0,0.2,0,0.2c0.1,0.2,0,0.5-0.2,0.8c0,0.4-0.2,0.6-0.4,0.8
		c0,0.1-0.1,0.2-0.2,0.4c0,0,0,0,0,0c0.3,0.2,0.4,0.6,0.3,1c0,0.1-0.1,0.2-0.2,0.3c0,0.1,0,0.2,0,0.2c0,0.1,0.1,0.2,0,0.4
		c0,0.1,0,0.2-0.1,0.3c0,0.1,0.1,0.2,0.1,0.3c0,0.1,0,0.2-0.1,0.4c0.1,0.1,0.1,0.2,0,0.3c0,0.1,0.1,0.1,0.1,0.2
		c0.1,0.2,0.1,0.4,0.1,0.5c0,0,0,0.1,0.1,0.1c0.1,0.2,0.2,0.5,0.1,0.8c0,0.1,0,0.2,0,0.4c0.1,0.2,0,0.5-0.1,0.7c0,0.1,0,0.2-0.1,0.4
		c0.1,0.2,0.2,0.4,0.2,0.6c0,0.1,0,0.2,0,0.3c0.3,0.3,0.4,0.8,0.2,1.1c0,0,0,0,0,0.1c0.1,0,0.1,0.1,0.2,0.2c0.1,0.1,0.2,0.3,0.2,0.4
		c0.1,0.1,0.1,0.3,0.1,0.5l0,0.2c0.2,0.5,0.5,1.6,0.1,2.1c-0.1,0.1-0.2,0.2-0.2,0.2c0,0.1,0.1,0.2,0.1,0.3c0,0.2-0.1,0.4-0.2,0.6
		c-0.1,0.2-0.1,0.3-0.2,0.4c0,0.1,0,0.2-0.1,0.3c0.1,0,0.1,0,0.2,0.1C170.6,72.3,170.8,72.3,171.1,72.3z"/>
	<path class="st0" d="M249.8,50.3c-0.7-12.5-1.5-25.1-2.5-37.5l-0.1-0.8c-0.1-1.7-0.3-3.4-0.4-5l0-0.2c0-0.6-0.1-1.4-0.5-2
		c-0.3-0.5-1-0.6-1.5-0.6c-0.7,0-1.7,0.1-2.4,0.2c-0.3,0-0.6,0.1-0.7,0.1c-2.8,0.2-5.6,0.4-8.5,0.5c-3.4,0.2-6.8,0.4-10.2,0.7
		c-11.8,0.7-23.6,1.1-32.5,1.4c-5.6,0.2-11.2,0.3-16.8,0.5c-0.8,0-1.7,0.1-2.6,0.1c-1.4,0.1-2.8,0.1-4.3,0.1c-0.4,0-0.8,0-1.2,0
		c-0.1,0-0.3,0-0.5-0.1c-0.5-0.1-1.1-0.1-1.7-0.1c-0.2,0-0.8,0-1.2,0.2c-0.1,0-0.1,0-0.2,0c-0.2,0-0.5,0.1-0.8,0.2l-0.2,0
		c-0.4,0-0.7,0-1.1-0.1c-0.4,0-0.7,0-1.2,0c-1.7,0-3.3,0-4.9,0.1c-1.5,0-3.1,0-4.6,0l-6.3,0c-2.2,0-12.7,0-15.2,0
		c-2.1,0-4.3,0-6.4,0c-4.2,0-8.4-0.1-12.5-0.2l-0.6,0c-2.8-0.1-5.6-0.1-8.4-0.2c-0.3,0-1,0-2-0.1l-0.3,0c-2.7-0.1-7.3-0.3-10.6-0.3
		c-1.7,0-2.8,0-3.5,0.1c0,0-0.1,0-0.1-0.1l-0.1,0C82.6,7.1,82.2,7,81.6,7c-0.3,0-0.6,0-1,0.1c-0.1,0-0.2,0-0.3,0
		C79.5,7,78.8,7,78,6.9l-0.2,0c-0.7,0-1.5-0.1-2.2-0.1c-3.2-0.1-6.4-0.2-9.6-0.3c-7.7-0.3-14.2-0.7-20.3-1.1
		C41.5,5,37.3,4.8,33.2,4.6l-1-0.1c-2.2-0.1-4.3-0.2-6.5-0.4c-3.8-0.2-6.8-0.5-9.6-0.9c-1.8-0.2-3.5-0.3-5.3-0.4
		C9.1,2.8,7.4,2.7,5.7,2.5c-0.2,0-0.4,0.1-0.5,0.2C5,2.8,4.9,3,4.9,3.3c0,3.5-0.4,7.2-0.8,10.7c-0.2,2.3-0.5,4.7-0.6,7
		c-0.1,2.1-0.4,4.3-0.6,6.4c-0.1,0.8-0.3,2.6-0.3,2.6c-0.1,1.1-0.2,2.1-0.3,3.2c0,0.4-0.1,1.1,0.2,1.7C2.6,35,2.8,35.1,3,35.3
		c0.2,1.1,1.7,3.3,2.2,3.7c0.2,0.2,0.4,0.3,0.6,0.3C5.9,39.5,6,39.7,6,40c0,0.1,0,0.2,0,0.3c0,0.5,0,1.1,0.4,1.6
		c0.3,0.3,0.6,0.4,0.9,0.4c0.1,0.3,0.4,0.6,0.6,0.9c0.2,0.3,0.4,0.5,0.4,0.7c-0.2,0.8-0.1,1.1,0.2,1.6c0.1,0.1,0.1,0.2,0.2,0.4
		c0.1,0.3,0.1,0.4-0.3,0.7c-0.5,0.3-1,0.7-1,1.3c0,0.5,0.5,0.8,0.8,0.9c0,0.4,0.1,0.8,0.3,1.1c0,0.1,0.1,0.2,0.1,0.2c0,0,0,0,0,0
		c0,0.1,0,0.2,0,0.3C8,50.3,7.3,50.6,7,51.5c-0.1,0.2,0,0.5,0.1,0.7c0.1,0.2,0.4,0.3,0.7,0.3c0,0,0,0,0,0c0.3,0,0.7,0.1,1.1,0.3
		c0.2,0.1,0.3,0.2,0.3,0.2c0.1,0.8,0.7,1,1,1c0,0,0.1,0,0.1,0c0,0,0,0,0,0c0.1,0.1,0.4,0.5,0.6,0.8c1,1.5,1.6,2.2,2.3,2.2
		c0.4,0.3,0.8,0.4,1.1,0.4c0.2,0,0.4,0.1,0.5,0.2c0.2,0.1,0.3,0.2,0.5,0.3c0.6,0.4,0.8,0.5,0.6,1.1c-0.2,0.8,0.7,1.5,1.5,2.1
		c0.2,0.1,0.7,0.5,0.7,0.6c0.2,0.5,0.5,0.8,0.8,0.9c0,0,0.1,0.1,0.1,0.1c0,0.1,0.1,0.3,0.1,0.4l0,0.1l0,0.1c0.2,0.5,0.4,0.8,0.7,1.1
		c0.1,0.2,0.3,0.3,0.4,0.5c0.2,0.3,0.3,0.5,0.4,0.8c0.2,0.5,0.4,1.1,1.3,1.5c0.2,0.2,0.3,0.4,0.5,0.5c0.6,0.6,0.7,0.8,0.5,1.4
		c-0.4,0.5-0.3,1,0.1,1.4c0.1,0.1,0.4,0.9,0.4,1c0.2,0.8,0.7,0.9,0.9,0.9c0.1,0,0.2,0,0.3-0.1c0.2,0.3,0.6,0.8,1.3,1
		c0,0,0.1,0.1,0.1,0.1c0,0,0,0,0,0.1c-0.5,0.6-0.5,1.2-0.1,1.7c0.2,0.3,0.6,0.4,0.9,0.4c0.6,0,1.2-0.3,1.7-0.8c0,0,0,0,0-0.1
		c0,0,0.1,0,0.2,0.1c0,0,0,0.1,0.1,0.1c-0.1,0.2-0.3,0.5-0.2,1c0.1,1.1,0.8,1.9,1.8,1.9c0.3,0,0.6-0.1,0.9-0.2
		c0.1,0,0.2,0.1,0.3,0.2c0.4,0.2,0.8,0.4,1.1,0.4c0.2,0,0.5-0.1,0.7-0.2l0.3-0.2c0.5-0.3,0.6-0.4,1.3-0.5c0.1,0,0.3,0.2,0.3,0.5
		c0,0,0,0.3-0.1,0.3c-0.3,0.1-0.6,0.3-0.6,0.7c0,0.2,0,0.4,0.1,0.5c0,0.3-0.1,1.1-0.2,1.4c-0.5,0.2-0.9,0.4-1.1,0.7
		c-0.3,0.5-0.1,1,0,1.4c0.2,0.5,0.2,0.6,0,0.8c0,0-0.1,0.1-0.2,0.2c-0.3,0.3-1.2,1.2-0.6,2c0,0.1-0.1,0.4-0.2,0.5
		c-0.2,0.4-0.4,0.8-0.3,1.3c-0.2,0.1-0.5,0.3-0.7,0.6c-0.2,0.4-0.2,1,0,2.4c-0.7,0.1-1.4,0.7-1.6,1.4c-0.2,0.6,0.1,1.3,0.7,1.7
		c0.2,0.1,0.3,0.3,0.4,0.3c0,0.1-0.1,0.1-0.2,0.2c-0.2,0.3-0.5,0.7-0.7,1.2c-0.1,0.3,0,0.7,0.2,0.9c0.1,0.1,0.2,0.1,0.3,0.1
		c-0.1,0.3-0.1,0.6,0,0.9c0.1,0.2,0.3,0.4,0.8,0.5c0.1,0,0.3,0,0.4-0.1c0.1,0.1,0.1,0.1,0.2,0.2c-0.5,0.5-0.3,1,0,1.6
		c0.2,0.5,0.3,0.6,0.2,0.8c-0.2,0-0.3-0.1-0.5-0.1c-0.2,0-0.4,0.1-0.6,0.1l-0.2,0.1c-0.3,0.1-0.9,0.3-1.2,1c0,0.1-0.2,0.3-0.4,0.5
		c-0.3,0.4-0.7,0.9-0.8,1.6c-0.1,0.8,0.4,1.4,0.8,1.7c0.1,0.1,0.3,0.3,0.3,0.3c0,0,0,0.1-0.1,0.2c-0.2,0.2-0.2,0.4-0.1,0.7
		c-0.3,0-0.6,0.2-0.7,0.5c-0.2,0.2-0.5,0.5-0.4,1c0,0.2,0.1,0.4,0.2,0.6c0,0,0,0.1-0.1,0.1c-0.2,0.4-0.5,0.9-0.3,1.4
		c0.1,0.3,0.3,0.4,0.6,0.5c0.3,0.1,0.7,0.1,1.2,0.1l0.4,0c0.2,0.6,0.7,1,1.1,1.3c0.3,0.2,0.5,0.4,0.7,0.6c0.4,0.8,0.9,1.2,1.5,1.2
		c1.1,0,1.8-1.3,2.3-2.3c0.2,0.1,0.4,0.1,0.6,0.1c0.3,0,0.6-0.1,0.8-0.4c0,0,0.1,0,0.2-0.1c0.3-0.1,0.8-0.2,1.2-0.8
		c0.1-0.1,0.1-0.1,0.2-0.2c0.2-0.1,0.5-0.3,0.8-0.6l0.5-0.7c0.1-0.2,0.2-0.2,0.5-0.3c0.1,0,0.2-0.1,0.3-0.1l0.1-0.1l0,0
		c0.4-0.4,0.3-0.9,0.3-1.2l0,0c0.1,0,0.2,0.1,0.3,0.1c0.1,0.3,0.3,0.6,0.5,0.8c0.1,0.2,0.2,0.2,0.2,0.3c-0.2,0.2-0.3,0.5-0.2,0.8
		c0.1,0.3,0.3,0.5,0.6,0.5c0.8,0.1,1.1,0.1,1.3,0.4c-0.3,0.4-0.4,1.1-0.5,1.5c0,0.1,0,0.2-0.1,0.3c-0.1,0.3,0,0.6,0.2,0.8
		c0.1,0.1,0.3,0.2,0.5,0.2l0.2,0l0.1,0c0.2-0.1,0.3-0.1,0.4-0.1c0,0.1,0,0.2,0,0.5c-0.1,0.1-0.1,0.2-0.2,0.3c-0.2,0.6-0.1,1,0,1.3
		c-0.1,0.1-0.2,0.3-0.3,0.6c0,0.5,0.4,0.8,0.5,0.9c0.1,0.1,0.2,0.2,0.3,0.2c0.1,0,0.1,0.1,0.1,0.1c0,0.3,0,0.6,0.1,0.9
		c0,0.7,0,1.4,0.7,2.2c0,0,0,0,0,0.1c-0.2,0.7,0.4,1.3,0.9,1.7c0.6,0.6,0.9,1.4,1.1,2.1c0.2,0.6,0.6,1.6,1.2,1.9l0.1,0
		c0,0.2,0.1,0.4,0.2,0.6c0.1,0.1,0.3,0.3,0.6,0.4c0.4,0.3,0.6,0.4,0.6,0.4c0,0,0,0,0,0c0,0.1,0,0.3,0,0.5c0,0.2,0,0.5,0,0.8
		c0.1,0.3,0,0.9-0.2,1.1l-0.2-0.1h-0.1c-0.1,0-0.3,0-0.4,0.1c-0.2,0.1-0.4,0.3-0.4,0.6c-0.2,1.5,1.1,3.9,2.6,4.3
		c0.1,0.1,0.2,0.3,0.3,0.5c0.2,0.4,0.5,1.1,1.2,1.1c0.1,0,0.2,0,0.3,0c0.3-0.1,0.6-0.3,0.9-0.4c0.3-0.2,0.5-0.3,0.7-0.3
		c0.1,0,0.1,0,0.2,0c0.2,0.1,0.3,0.2,0.6,0.5c0.1,0.1,0.2,0.2,0.3,0.3c0.2,0.3,0.5,0.3,0.8,0.4c0,0.1,0,0.1,0,0.3
		c0.1,0.4,0.1,0.8,0.4,1.1c0.5,0.5,0.9,1.6,0.8,2.3c0,0.3-0.2,0.4-0.3,0.4c-0.2,0.1-0.4,0.3-0.4,0.6c0,0.2,0.1,0.5,0.3,0.7
		c0.3,0.2,0.6,0.6,0.7,0.8c-0.2,0.7,0.2,1.1,0.5,1.3c-0.3,0.9-0.1,2,0.6,2.8c0.5,0.6,1.1,0.8,1.6,1c0.3,0.1,0.5,0.2,0.6,0.3
		c0,0,0,0.1,0.1,0.2c0.1,0.4,0.3,1.2,1.4,1.2c0.1,0,0.2,0,0.3,0c0.5-0.1,0.8-0.4,1-0.6c0.4-0.6,0.1-1.3-0.1-1.8
		c0-0.1-0.1-0.3-0.1-0.3c0-0.2,0.5-0.7,1.4-1.2c0.1-0.1,0.2-0.1,0.4-0.1c0.3,0,0.8,0.1,1.2,0.3c0.2,0.1,0.4,0.2,0.7,0.2
		c0.3,0.1,0.5,0.1,0.8,0.1h0.2c0.1,0,0.3,0,0.4,0c0.3,0.1,0.6,0.2,1,0.4c0.2,0.1,0.4,0.1,0.5,0.1c0.2,0,0.5-0.1,0.6-0.2
		c0.1,0,0.3,0.2,0.5,0.3c0.3,0.2,0.7,0.5,1.2,0.5c0.8,0,1.2-0.7,1.4-1c0.2-0.3,0.2-0.7,0.2-1.2c0-0.1,0-0.4,0-0.5
		c0.2-0.1,0.3-0.2,0.6-0.3c0.3-0.2,0.4-0.3,0.5-0.3c0,0,0.1,0,0.1,0c0.1,0,0.2,0,0.3-0.1c0.1,0.2,0.2,0.4,0.4,0.6
		c0.3,0.3,1.4,0.4,1.9,0.4c0.3,0.2,0.6,0.4,1,0.4c0.1,0,0.3,0,0.5-0.1c0.2,0,0.3-0.1,0.5-0.1c0.2,0.1,0.3,0.1,0.5,0.1
		c0.3,0,0.5-0.1,0.7-0.4c0,0,0,0,0,0c0.5,0,1-0.1,1.4-0.3c0.3-0.1,0.5-0.2,0.8-0.2c0.1,0,0.1,0,0.2,0c0,0.1,0.1,0.2,0.2,0.3
		c0.1,0.3,0.3,0.7,0.7,1c0.2,0.1,0.4,0.2,0.6,0.2c0.5,0,0.7-0.3,0.8-0.5c0.7,0,1.2-0.3,1.6-0.5c0.4-0.2,0.6-0.3,0.9-0.3
		c0.1,0,0.1,0,0.2,0c0.2,0,0.5,0.1,0.8,0.1l0.7,0c0.3,0,0.5,0,0.6,0.1c0.2,0.1,0.4,0.2,0.5,0.3c0.2,0.2,0.4,0.3,0.7,0.3
		c0.2,0,0.3,0,0.4-0.1c0.1,0.1,0.2,0.1,0.4,0.1h0c0.2,0,0.4-0.1,0.6-0.3c0.3-0.5,0.1-0.8-0.2-1.2c-0.5-0.7-0.7-1-0.8-1.2
		c0.3-0.1,0.4-0.3,0.5-0.6c0.2-0.1,0.3-0.4,0.3-0.6c0-0.1,0-0.1,0-0.2l0,0c0.2-0.2,0.6-0.7,0.4-1.3c0,0,0.3,0,0.3,0
		c0.6,0,1-0.2,1.2-0.6c0.1,0,0.1,0.1,0.2,0.1c0.2,0.1,0.3,0.1,0.4,0.3c0.1,0.1,0.2,0.2,0.3,0.4c0.1,0.1,0.4,0.4,0.3,0.6
		c-0.2,0.3-0.2,0.6,0,0.9c0.1,0.2,0.4,0.4,0.8,0.5c0,0,0.1,0.1,0.2,0.1c-0.2,0.4-0.2,0.9,0.3,1.6c0.2,0.3,0.5,0.5,0.8,0.6
		c0.1,0.2,0.2,0.4,0.4,0.6c0.1,0.1,0.2,0.1,0.3,0.2c0.1,0.1,0.2,0.1,0.2,0.2c0,1.1,0.9,1.6,1.5,1.8c0.2,0.1,0.5,0.2,0.7,0.2
		c0.3,0,0.6-0.1,0.9-0.4c0.5-0.6,0.5-1.6,0.4-2.9c0-0.2,0-0.4,0-0.5c0-0.7,0-1.3,0-2l0-0.4c0-1.3-0.1-2.7-0.1-4.1
		c0-0.6,0-1.2,0.1-1.8c0-0.3,0-0.7,0.1-1c0-0.3,0-0.7,0-1.1c0-0.6-0.1-1.2,0.1-1.7c0,0,0.1-0.2,0.8-0.2c0.4,0,0.9,0.1,1.3,0.1
		c0.3,0,0.5,0.1,0.7,0.1c1.1,0,2.3,0.1,3.4,0.2l0.2,0c1,0.1,1.9,0.1,2.9,0.2c0.7,0,1.4,0,2.1,0c1.8,0,3.7-0.1,5.4-0.2l0.2,0
		c2-0.1,3.7-0.2,5.5-0.2l5.8,0c2.2,0,4.3,0,6.5,0l5.2,0c1.4,0,2.8,0,4.1,0c2.2,0,3.9,0,5.7-0.1c0.2,0,1.9,0,1.9,0c0.9,0,1.9,0,2.9,0
		c3.1,0,4.2-0.1,4.7-0.2c0.1,0.1,0.3,0.1,0.4,0.1c0.2,0,0.3,0,0.4-0.1c0.1,0,0.3-0.2,1-0.2c0.5,0,1,0,1.4,0.1c0.4,0,0.8,0.1,1.2,0.1
		l0.2,0c1,0,2-0.1,2.9-0.1c1,0,2,0,3-0.1c2.6-0.1,5.3-0.1,7.9-0.2l0.2,0c1.3,0,2.6,0,3.9,0c8.7-0.1,17.2-0.5,24.4-0.8
		c1.7-0.1,3.3-0.2,5.1-0.2c5.8-0.3,11.9-0.5,17.8-1c2.8-0.2,7-0.5,11.4-0.7l1.4-0.1c1.5-0.1,3-0.1,4.5-0.2c0.1,0,0.2,0,0.3,0
		c0,0,1,0,1,0c1.3,0,2.5-0.1,3.2-0.8c0.3-0.3,0.4-0.7,0.4-1.1C253.2,100.4,251.2,75.6,249.8,50.3z M242.1,54.4
		c-0.2,0-0.4,0.1-0.7,0.1c-0.4,0.1-0.8,0.1-1,0.1c-0.1,0-0.2,0-0.2,0c-0.2-0.4-0.2-1.2-0.1-2c0-0.6,0.1-1.3,0-2
		c-0.3-1.3-1.4-1.3-1.8-1.4c0,0,0,0,0,0c0-0.1,0-0.1,0-0.2c0.1-1.5,0.1-2.2-0.4-2.5c-0.2-0.1-0.4-0.1-0.8-0.1c-0.8,0-2,0.2-2.5,0.3
		l-0.4,0.1c-0.6,0.1-1.2,0.1-1.8,0.1c-0.7,0-1.3,0.1-2,0.2c-0.1,0-0.1,0-0.3,0c-0.1-0.2-0.1-0.8,0-1.2c0-0.2,0-0.4,0-0.7l-0.3-0.9
		l-0.8,0.1c-0.1,0-1.8,0.3-3.1,0.3c-0.6,0-0.9-0.1-1-0.1c0-0.1,0-0.2-0.1-0.4c-0.2-0.3-0.2-1-0.2-1.4c0-0.1,0-0.3,0-0.3
		c-0.1-0.7-1-0.7-1.4-0.7l-0.3,0c-0.6,0-1,0.1-1.4,0.2c-1.5,0.4-1.8,0.5-1.5,1.9l0.1,0.5c0,0.1,0.2,1.3,0.3,2.1
		c0.1,0.6,0.1,1,0.1,1.1l0,0.3c0.1,0.8,0.3,1.6,0.1,2.3c0,0.1-0.1,0.2-0.3,0.4c-0.3,0.3-0.8,0.8-0.7,1.7c0,2,0.2,4.1,0.4,6.1
		l0.1,1.5c0,0.3,0.1,0.8,0.1,0.9c0,0-0.1,0-0.4,0.1c-1.4,0-2.9,0.1-4.3,0.2c-0.1,0-0.3,0-0.4,0l-1,0c-0.8,0-1.7,0.1-2.3,0.8
		c-0.4,0.5-0.5,1.2-0.3,2c0,0.1,0,0.2,0,0.2c0,0-0.2,0.1-0.5,0.1c-0.2,0-0.3,0-0.4-0.1c0-0.8-0.1-1.7-0.6-2.2
		c-0.4-0.4-0.9-0.6-1.5-0.6c-0.4,0-0.8,0.1-1.2,0.2c-1.1,0.3-1.5,1.4-0.9,7.6l0,0.4c0,0.3,0.1,0.6,0.1,0.9c0.1,0.4,0.2,1.1,0.1,1.3
		c0,0-0.2,0.1-0.5,0.1c-2.2,0-4.3,0.2-6.4,0.3l-2,0.1c-0.3,0-0.5,0-0.9,0.1c-0.4,0-0.7,0.1-1.1,0.1l-0.2,0c-0.3,0-0.6-0.1-0.9-0.2
		c-0.4-0.1-1-0.3-1.6-0.3c-1.6,0-3.2,0.1-5,0.1c-1.1,0-2.2,0.1-3.3,0.1c-0.7,0-1.4,0-2.2,0l-1.3,0c-0.7,0-1.3,0.1-1.9,0.3
		c-0.5,0.1-1,0.2-1.4,0.2h-0.6c-1.3,0-2.7,0-4,0.1c-0.2,0-0.4,0-0.8-0.1c-0.4,0-0.9-0.1-1.3-0.1c-0.3,0-0.6,0-0.8,0.1
		c-0.1-0.1-0.2-0.1-0.3-0.1c0,0-0.1,0-0.2-0.1c0.1-0.2,0.2-0.4,0.2-0.5c0.1-0.1,0.1-0.2,0.1-0.2c0,0,0-0.1,0-0.1l0-0.1
		c0.1-0.1,0.1-0.2,0.1-0.4c0-0.1,0-0.2-0.1-0.3c0,0,0-0.1,0-0.2c0.1-0.1,0.2-0.1,0.3-0.2c0.3-0.4,0-1.6-0.2-2l0,0v-0.1
		c0-0.2,0-0.3-0.1-0.4c0-0.1-0.1-0.2-0.2-0.3c-0.1-0.1-0.1-0.1-0.2-0.2c0-0.1,0-0.2,0-0.2c0,0,0,0,0,0c0.2-0.3,0.1-0.7-0.2-0.9
		c0,0,0,0-0.1-0.1c0-0.1,0.1-0.2,0-0.4c0-0.2-0.1-0.4-0.2-0.5c0,0,0-0.1,0-0.2c0.1-0.1,0.1-0.2,0.1-0.4c0.1-0.2,0.2-0.4,0.1-0.6
		c0-0.2,0-0.3,0-0.4c0-0.2,0-0.4-0.1-0.6c0,0-0.1-0.1-0.1-0.1c0-0.2,0-0.3-0.1-0.5c0-0.1-0.1-0.2-0.1-0.2c0-0.1,0.1-0.3,0-0.5
		c0-0.1,0-0.2,0-0.3c0-0.1,0-0.2-0.1-0.3c0-0.1,0.1-0.2,0.1-0.3c0-0.1,0-0.2-0.1-0.3c0-0.1,0.1-0.2,0.1-0.3c0,0,0,0,0-0.1
		c0.1-0.1,0.1-0.2,0.2-0.3c0.1-0.3,0-0.6-0.2-0.8c-0.1,0-0.1-0.1-0.2-0.1c0.1-0.3,0.2-0.5,0.3-0.7c0.2-0.1,0.3-0.4,0.3-0.6
		c0,0,0-0.1,0-0.1c0.2-0.3,0.3-0.5,0.2-0.8c0-0.1,0-0.1,0-0.2c0-0.1-0.1-0.5-0.2-0.8c0-0.1,0.1-0.3,0.1-0.5c0.1-0.5,0.2-1,0.1-1.6
		c-0.3-1.3-0.5-2.2-2.1-2.8c-0.5-0.2-1.1-0.3-1.7-0.3c-0.4,0-0.9,0-1.4,0.1c-0.3,0.1-0.7,0.1-1.3,0.1c-0.3,0-0.5,0-0.8-0.1
		c-0.4,0-0.7-0.1-1.1-0.1c-0.6,0-1.1,0.1-1.5,0.3c0,0-0.1,0.1-0.1,0.1c-0.2-0.3-0.5-0.5-0.8-0.5c0,0-0.1,0-0.1,0
		c-0.3-0.4-0.8-0.7-1.2-0.7c-0.2,0-0.4,0.1-0.6,0.3c-0.1-0.1-0.2-0.3-0.4-0.4c-0.1-0.1-0.3-0.1-0.4-0.1l-0.2,0l-0.1,0
		c-0.1,0.1-0.3,0.2-0.3,0.3c0,0-0.1,0-0.2,0c-0.7,0-1.9-0.3-2.3-0.5c0,0-0.1,0-0.1-0.1c-0.1-0.1-0.5-0.5-1-0.5c-0.1,0-0.2,0-0.2,0
		c-0.1-0.4-0.6-1-2.3-2.3c-0.6-0.7-0.3-2.8-0.1-4l0.1-0.6c0,0,0.1-0.1,0.5-0.1c0.4,0,0.9,0.1,1.3,0.2c0.4,0.1,0.7,0.1,1,0.1l0.4,0
		c0.6,0,1.6-0.1,2-0.9c0.2-0.4,0.2-0.7,0.1-1.1c0-0.1,0-0.2,0-0.2c0.2,0,0.4,0.1,0.7,0.2c0.5,0.1,1,0.2,1.5,0.2c1.1,0,1.5-0.6,1.6-1
		c0.4-1,0.3-2.2,0.1-3.3c-0.1-0.5-0.1-1-0.1-1.4c0-0.1,0-0.3,0-0.7c0-0.2-0.1-0.8-0.1-1.2c0.7-0.5,0.6-1.6,0.5-2.2
		c0-0.1,0-0.2,0-0.3l0-0.2c0-1,0-2.1-0.2-3.1c0,0,0-0.2,0-0.4c0.1,0,0.2,0,0.3,0c0.1,0,0.1,0,0.2,0c0.1,0,0.1,0,0.2,0
		c0.4,0,0.8-0.3,0.7-0.9c0-0.6,0-1.2-0.1-1.9c0-0.5-0.1-1-0.1-1.4c0-0.2,0-0.2,0.1-0.3c0.2-0.3,0.5-0.6,0.5-1.4c0-0.5-0.1-1-0.1-1.6
		c-0.1-0.7-0.2-1.4-0.1-2c0,0,0,0,0,0c0.2,0,0.5-0.1,0.8-0.2c0.9-0.6,0.7-2.1,0.5-3.2c0-0.2-0.1-0.6-0.1-0.8c-0.1-0.6-0.1-0.9-0.1-1
		c0.1-0.1,0.3-0.1,0.4-0.3c0.4-0.4,0.4-1.1,0.2-2.3c0,0,0.1-0.1,0.1-0.1c0.1,0,0.3-0.1,0.6-0.1c0.5,0,1.2,0.1,1.6,0.1
		c0.3,0,0.5,0.1,0.7,0.1c0.4,0,0.9,0,1.3,0c1.4,0,2.9-0.1,4.4-0.1c0.8,0,1.7-0.1,2.5-0.1c5.6-0.2,11.2-0.3,16.8-0.5
		c9-0.3,20.8-0.7,32.6-1.4c3.4-0.2,6.8-0.4,10.2-0.7c2.8-0.2,5.6-0.4,8.5-0.5c0.2,0,0.5-0.1,0.8-0.1c0.6-0.1,1.6-0.2,2.2-0.2
		c0.2,0,0.3,0,0.3,0c0.1,0.3,0.1,0.8,0.2,1.1l0,0.3c0.1,1.7,0.2,3.5,0.4,5.2l0.1,0.7c1,12.3,1.8,24.9,2.5,37.4l0.1,2.3
		c0,0,0,0-0.1,0c-1.3,0-1.9,0.5-2.1,0.9c-0.1,0.2-0.2,0.4-0.2,0.5c-1,0-1.9,0.1-2.9,0.2L242.1,54.4z M163.9,126.3
		c-0.3,0.3-0.6,0.7-0.7,1l-0.5,0.4l0.2,0.4c-0.1,0.1-0.1,0.3-0.2,0.4c-0.1,0.4-0.1,0.8-0.1,1c0,0.1,0,0.1,0,0.2
		c-0.7,0-1.8,0.1-3.9,0.1c-1.1,0-2.2,0-3,0l-1.9,0c-1.6,0-3.4,0.1-5.6,0.1c-1.4,0-9,0-9,0c-2.3,0-4.6,0-6.9,0l-5.8,0
		c-1.9,0-4,0.1-5.7,0.2c-1.8,0.1-3.6,0.2-5.4,0.2c-0.7,0-1.4,0-2.1,0c-1,0-2-0.1-3-0.2c-1.2-0.1-2.4-0.2-3.6-0.2
		c-0.1,0-0.3,0-0.6-0.1c-0.4-0.1-1-0.1-1.5-0.1c-1.2,0-2,0.4-2.2,1.2c-0.3,0.7-0.2,1.5-0.2,2.3c0,0.3,0,0.7,0,0.9l-0.1,1.1
		c0,0.6-0.1,1.2-0.1,1.8c0,1.4,0,2.8,0.1,4.2c0,0.8,0,1.6,0.1,2.3c0,0.2,0,0.4,0,0.6c0.1,0.8,0.1,1.3,0,1.5
		c-0.2-0.1-0.5-0.3-0.5-0.4c0-0.9-0.4-1.2-0.9-1.5c0-0.3-0.2-0.7-0.9-0.9c-0.1,0-0.2-0.1-0.2-0.1c0-0.1-0.1-0.1-0.1-0.1
		c0.2-0.2,0.3-0.5,0.3-0.8c0-0.6-0.5-0.9-1.1-1.2c0.1-0.7-0.4-1.3-0.8-1.7l-0.2-0.3c-0.3-0.4-0.6-0.6-1-0.8
		c-0.1-0.3-0.1-0.4-0.2-0.5c0-0.1-0.1-0.3-0.2-0.4c-0.2-1,0.1-2.8,0.2-3.6c0.1-0.4,0.1-0.8,0.1-1.1c0.2-2.3,0.3-4.7,0.3-7.3
		c0-1.2,0-2.4,0.1-3.6c0-0.2,0-0.4,0-0.7c0-0.3,0-0.5,0-0.6c0.1,0,0.2-0.1,0.3-0.2c0.2-0.1,0.3-0.4,0.3-0.6c0-0.6,0-1.2,0-1.8
		c0-1.5,0-3,0.1-4.5c0-0.2,0.1-0.4,0.1-0.7c0.1-0.7,0.3-1.6-0.2-2.2c-0.3-0.4-0.7-0.5-1.3-0.5c-0.1,0-0.2,0-0.4,0
		c-0.1,0-0.2,0-0.4,0.1c-0.4,0.1-1,0.2-1.4,0.2c-0.3,0-0.4,0-0.4,0c0,0,0,0,0,0c-0.2-0.5-0.5-0.6-0.8-0.6c-0.2-0.2-0.8-1-0.9-1.1
		c0-0.2-0.1-0.4-0.3-0.6c-0.1-0.1-0.3-0.2-0.5-0.2v0c-0.1-0.3-0.4-0.9-1.2-0.9c-0.1,0-0.1,0-0.2,0c0-0.1,0-0.2,0-0.3
		c0.1-0.1,0.2-0.2,0.3-0.2c0.5-0.6,0.9-1,1.1-1.3c0.5-0.3,0.9-0.9,0.9-1.1c0,0,0.2-0.1,0.2-0.1c0,0,0.1,0,0.1-0.1
		c0.6-0.1,1.2-0.7,1.3-0.7l0,0c0.3-0.1,1.2-0.5,1.5-1.4c0.1-0.2,0.1-0.3,0.1-0.5c0,0,0.1,0,0.1,0c0.3,0,0.5-0.1,0.8-0.4
		c0.3-0.3,0.3-0.8,0.2-1.5c-0.1-0.5-0.1-0.8-0.1-0.9l0.1-0.3c0.1-0.2,0.2-0.6,0.3-0.6c1.2-0.4,1.1-1.4,1.1-1.8c0-0.2,0-0.4,0-0.4
		c0,0,0.1-0.1,0.6-0.1c0.2,0,0.4,0,0.5,0l0.9,0.1c1.1,0.1,2.3,0.1,3.4,0.2l0.2-0.1c0.1,0,0.1,0,0.2,0c0.3,0.1,0.7,0.1,1.1,0.1
		c0.4,0,0.9,0,1.3-0.1c0.4,0,0.8-0.1,1.3-0.1c0.8,0,1.6,0,2.3,0l0.3,0c1.2,0,2.3,0.1,3.5,0.1c0.6,0,1.2,0,1.9,0
		c0.1,0,0.5,0.1,0.9,0.1c0.8,0.1,1.7,0.3,2.5,0.3c0.7,0,1.2-0.2,1.6-0.5c0.2-0.2,0.3-0.6,0.3-0.8c0,0,0.1-0.1,0.5-0.1
		c0.4,0,0.8,0.1,1.2,0.1c0.3,0,0.6,0.1,0.7,0.1c1.9,0.1,3.7,0.1,5.6,0.1c1,0,1.9,0,2.9,0l0.7,0l0,0c0.1,0.1,0.1,0.3,0.2,0.5
		c0,0.4,0,0.7,0.1,1c0,0.4,0.1,1,0.6,1.2c0,0.1,0,0.2-0.1,0.3c-0.2,0.8-0.1,1.4,0.3,1.9c0.4,0.5,1,0.7,1.8,0.7c0.1,0,0.6,0,0.7,0
		c0.8,0,1.8,0,2.5-0.6c0.7-0.6,0.6-1.4,0.5-1.9c0-0.1,0-0.3,0-0.4c0.2,0,0.5-0.1,1.2-0.1c0.9,0,1.9,0.1,2.8,0.2l0.2,0
		c0.5,0,1,0.1,1.4,0.1h0c0.3,0,0.8-0.1,1.3-0.1c0.5-0.1,0.9-0.1,1.3-0.1c0.3,0,0.4,0,0.5,0c0,0,0,0,0,0c0,0,0,0.2,0,0.4
		c-0.1,0.8-0.1,1.6-0.1,2.3c0,0.3,0,0.7,0,1c0,0.7,0.2,1.1,0.3,1.4c0.1,0.3,0.2,0.4,0.2,0.7c-0.1,1-0.1,2.2-0.1,3.6
		c0,0.6,0,2.1,0,2.1c0,0.1,0,0.2,0,0.4c-0.1,0.4-0.1,1,0.3,1.5c0.1,0.1,0.2,0.2,0.4,0.3c0.1,0.4,0.3,0.7,0.5,0.9
		c0.2,0.2,0.3,0.4,0.4,0.7l0.4,1.3l0.4-0.4c0,0.5,0.2,1.1,0.8,1.4c0.1,0.2,0.4,1,1.3,1c0,0,0,0,0.1,0c0,0,0,0.1,0,0.1
		c0.1,0.3,0.2,0.9,0.7,1.2c-0.3,0.7-0.4,1.4-0.5,2.1c-0.1,0.3-0.1,0.6-0.2,0.9c-0.1,0.3-0.4,3.4,0.4,4.4c0.2,0.3,0.6,0.5,0.9,0.5
		l1.3,0c1.9,0,3.8,0,5.7-0.1c1,0,2.1-0.1,3.2-0.1l0,0.5c-0.1,0.1-0.1,0.2-0.1,0.3c0,0.1,0,0.2,0,0.3c0,0-0.1,0.1-0.1,0.1
		c-0.2,0.2-0.3,0.5-0.2,0.8L163.9,126.3z M95.8,120.8c0,0.2,0,0.3,0,0.4c0,1.2,0,2.4-0.1,3.6c-0.1,2.6-0.2,5-0.3,7.2
		c0,0.2-0.1,0.6-0.1,1c-0.3,1.9-0.4,3.4-0.1,4.4c0,0,0,0.1-0.1,0.1c-0.1,0.1-0.2,0.3-0.3,0.6l-0.2,0c-0.2,0-0.5,0-0.8,0.1
		c-0.3,0.1-0.7,0.3-0.9,0.8c-0.1,0.4,0,0.7,0.1,0.9c0,0-0.1,0.1-0.1,0.1c-0.2,0-0.4,0.2-0.5,0.3c-0.2,0.2-0.2,0.5-0.2,0.7
		c-0.2,0.1-0.3,0.3-0.3,0.4c-0.2,0.4-0.1,0.9,0.1,1.5c-0.3-0.1-0.5-0.1-0.7-0.1c-0.1,0-0.8,0-0.8,0c-0.2,0-0.3,0-0.5,0
		c-0.2,0-0.3-0.1-0.5-0.1c-0.7,0-1.2,0.3-1.7,0.5c-0.3,0.2-0.6,0.3-0.9,0.4c-0.3,0-0.5,0.1-0.7,0.2c0,0,0-0.1,0-0.1
		c-0.1-0.2-0.2-0.4-0.3-0.6c-0.3-0.4-0.8-0.7-1.3-0.7c-0.5,0-0.9,0.1-1.3,0.3c-0.3,0.1-0.7,0.2-1,0.2c-0.1,0-0.2,0-0.2-0.1
		c-0.1-0.1-0.3-0.1-0.4-0.1c-0.2,0-0.3,0.1-0.4,0.1c-0.1,0.1-0.2,0.2-0.3,0.3c-0.2,0-0.5,0.1-0.7,0.1c-0.1,0-0.1,0-0.1,0.1
		c-0.1-0.3-0.4-0.5-0.8-0.5c0,0,0,0,0,0c-0.1,0-0.1,0-0.2,0.1c-0.3,0-0.8-0.1-0.9-0.1c0,0,0,0,0,0c-0.1-0.5-0.4-0.8-1.1-0.9
		c-0.1,0-0.2-0.1-0.4-0.1c-0.2,0-0.4,0-0.5,0.1c-0.3,0-0.7,0.3-1.2,0.6c-0.1,0.1-0.3,0.2-0.4,0.2c-0.8,0.2-0.9,1.2-0.9,1.9
		c0,0.1,0,0.4,0,0.4c0,0.1-0.1,0.1-0.1,0.2c-0.1,0-0.2-0.1-0.2-0.1c-0.3-0.2-0.7-0.5-1.1-0.6c-0.1,0-0.2,0-0.2,0
		c-0.3,0-0.5,0.1-0.7,0.2c-0.3-0.1-0.7-0.3-1-0.4c-0.3-0.1-0.6-0.1-0.9-0.1l-0.2,0c-0.1,0-0.3,0-0.4,0c-0.2-0.1-0.4-0.1-0.6-0.2
		c-0.7-0.2-1.2-0.4-1.7-0.4c-0.4,0-0.8,0.1-1.1,0.2c-1.1,0.6-2.3,1.5-2.2,2.6c0,0,0,0.1,0,0.2c0,0-0.1-0.1-0.1-0.1
		c-0.3-0.3-0.7-0.4-1.1-0.6c-0.4-0.2-0.8-0.3-1-0.6c-0.4-0.5-0.5-1.1-0.4-1.4c0.3-0.5,0.2-1-0.4-1.5c0.1-0.4-0.1-0.9-0.6-1.5
		c0.2-0.2,0.3-0.5,0.3-0.9c0.2-1.3-0.5-2.9-1.1-3.5c0-0.1-0.1-0.3-0.1-0.4c-0.1-0.4-0.1-0.9-0.5-1.2c-0.2-0.2-0.5-0.2-0.6-0.2
		c0,0-0.1,0-0.1,0c-0.1-0.1-0.2-0.2-0.2-0.3c-0.3-0.3-0.6-0.7-1.1-0.9c-0.2-0.1-0.5-0.1-0.7-0.1c-0.6,0-1,0.3-1.5,0.5
		c-0.1,0-0.2,0.1-0.2,0.1c0,0,0-0.1,0-0.1c-0.2-0.4-0.5-1.1-1.2-1.3c-0.6-0.2-1.3-1.1-1.5-2.1c0.3-0.1,0.5-0.2,0.6-0.4
		c0.6-0.7,0.6-1.8,0.5-2.4c0-0.1,0-0.3,0-0.5c0-0.2,0-0.5,0-0.8c-0.1-0.5-0.5-0.8-1.2-1.3c0-0.1,0-0.1,0-0.2c-0.1-0.7-0.8-0.9-1.3-1
		c-0.1-0.1-0.3-0.5-0.4-0.9c-0.3-0.9-0.6-1.9-1.6-2.9c0,0-0.1-0.1-0.1-0.1c0-0.1,0.1-0.1,0.1-0.2c0.1-0.3,0-0.5-0.2-0.7
		c-0.7-0.7-0.7-1-0.7-1.7c0-0.3,0-0.6-0.1-1c-0.1-0.6-0.4-0.9-0.7-1.1c0-0.1,0-0.1,0-0.2c0-0.3-0.1-0.6-0.2-0.8c0,0-0.1-0.2-0.1-0.2
		l-0.4-0.2l0.4,0c0.1-0.2,0.3-0.5,0.3-1c0-0.4-0.2-1.6-1.2-1.8c0-0.1,0-0.2,0-0.2c0.3,0,0.5-0.2,0.6-0.4c0.1-0.3,0.1-0.6-0.1-0.8
		c-0.7-1-1.1-1.3-1.9-1.5c-0.1-0.5-0.3-0.8-0.5-1.1c0,0,0,0,0,0c0.3-0.2,0.5-0.5,0.5-0.9l0-0.2c0-0.2,0.1-0.4,0.1-0.6
		c0.3,0.2,0.6,0.3,0.9,0.3c0.6,0,1.1-0.3,1.4-0.8l0.1,0c0.2-0.1,0.3-0.3,0.3-0.6c0-0.4,1.5-1.2,2.8-1.2c0.1,0,0.3,0,0.5,0
		c0.4,0,0.7-0.3,0.8-0.7c0.1,0,0.5-0.1,0.5-0.1c0.6-0.1,0.7-0.6,1.1-2.2c0.1-0.5,0-0.8-0.2-1c-0.2-0.2-0.5-0.4-0.9-0.4
		c-0.1,0-0.3,0-0.4,0c-0.1,0-0.1,0-0.2,0c-0.8-0.7-1.1-0.8-1.3-0.8c0,0-0.1-0.5-0.1-0.5c-0.1-0.3-0.1-0.7-0.6-1.2
		c-0.3-0.4-0.6-0.7-1.4-0.7c-0.1,0-0.2,0-0.3,0c0-0.1,0.1-0.1,0.1-0.2c0.1-0.2,0.3-0.4,0.3-0.5c0.3-0.6,0-1.3-0.3-1.8
		C47,93.2,47,93,46.9,92.9c0.2-0.2,0.3-0.4,0.3-0.7c0-0.3-0.3-0.6-0.5-0.6c0,0,0,0,0,0c0.1-0.1,0.2-0.1,0.2-0.1
		c0.2-0.1,0.4-0.3,0.6-0.5c0.8-1,0.4-1.6-0.1-2.1l0-0.5c0.1-0.7,0.2-1.5-0.2-2.4c-0.2-0.4-0.4-0.7-0.7-0.9c-0.1-0.1-0.3-0.3-0.3-0.4
		c0-0.7-0.1-1.1-0.3-1.6c0-0.1-0.1-0.3-0.1-0.4c0-0.1,0.2-0.2,0.2-0.3c0.2-0.3,0.5-0.6,0.6-1.1c0,0,0.1-0.5,0.1-0.6
		c0.1,0,0.1,0,0.2-0.1c0.2-0.1,0.4-0.4,0.4-0.6c0-0.1,0-0.3,0.1-0.4c0-0.3,0.1-0.6,0-1c0.1,0,0.1,0,0.2,0c0.4,0.1,0.8,0.1,1.2,0.1
		c0.6,0,1-0.2,1.3-0.5c0.3-0.3,0.4-0.7,0.4-1.3c0.1,0,0.3,0,0.4,0.1l0.2,0c0.1,0,0.3,0,0.4,0c0.8,0,1.1-0.5,1.3-0.8l0,0
		c0.2,0,0.3,0.1,0.5,0.1c0.3,0,0.6-0.1,0.8-0.3c0.3-0.4,0.3-0.8,0.3-1.2c0,0,0-0.1,0-0.2h0.1c0.6,0,1.1-0.3,1.3-1
		c0.1,0,0.3,0,0.4,0.1c0.2,0,0.5,0.1,0.7,0.1c0.5,0,1.3-0.2,1.5-1.5c0.1-0.9,0.1-1.9,0.1-2.8c0-0.4,0-0.8,0-1.2c0-1.1,0-2.2,0.2-3.3
		c0-0.1,0-0.2,0.1-0.4c0.1-0.7,0.3-1.8-0.5-2.5c-0.5-0.4-1.1-0.5-1.5-0.5c-0.2,0-0.4,0-0.6,0c-0.1,0-0.3,0-0.4,0c-0.2,0-0.3,0-0.3,0
		c0,0,0,0,0,0c0,0,0-0.1,0-0.4c0.1-1.6,0.2-3.2,0.3-4.8l0-0.3c0-1,0.1-2,0.1-2.9c0-0.4,0-0.7,0-1.1c0-0.6,0-1.4,0.2-1.7
		c0.1-0.1,0.3-0.1,0.5-0.1c0.1,0,0.3,0,0.4,0c0.2,0,0.4,0.1,0.7,0.1c0.8,0.2,2,0.4,2.9,0.4c0.9,0,1.5-0.2,1.8-0.6
		c0.3-0.4,0.3-0.8,0.4-1.1c0-0.1,0-0.3,0.1-0.4c0.4-0.8,0-1.4-0.3-1.9c-0.3-0.5-0.2-0.5-0.3-0.5h0c0.1,0,0.3-0.1,0.4-0.1
		c0.4-0.1,1.1-0.2,1.4-0.8c0.3-0.8,0.4-1.6,0.5-2.4c0.2-1.1,0-1.5-0.3-2.1c0-0.1-0.1-0.2-0.1-0.2c0.1,0,0.2,0,0.4,0
		c0.3,0,0.5-0.1,0.7-0.3c0.3,0.6,0.7,1.6,0.8,2.3c0,0.2,0,0.4-0.1,0.7c-0.1,0.5-0.3,1.2,0.1,1.9c0,0.1,0,0.4,0,0.6
		c0,0.8-0.1,1.8,0.4,2.3c0.1,0.1,0.3,0.2,0.5,0.3c0.2,0.2,0.3,0.3,0.5,0.6c0.3,0.4,0.9,1.1,1.9,1.1c0.2,0,0.4,0,0.7-0.1
		c0.3-0.1,0.5-0.2,0.6-0.4c0.2,0.1,0.4,0.2,0.6,0.2c0.4,0,0.8-0.1,1.4-0.3c0.2-0.1,0.4-0.1,0.5-0.1c0.4,0,0.6-0.1,0.8-0.2
		c0,0,0.1,0.1,0.1,0.1c0.3,0.4,0.8,0.5,1.3,0.7c0.1,0,0.4,0.1,0.5,0.2c0,0.1,0,0.1,0,0.2c0.1,0.6,0.2,1.3,0.7,1.6
		c0.3,0.2,0.6,0.2,0.8,0.2c0.1,0.1,0.2,0.2,0.3,0.3l0.2,0.1h0.1c0.1,0,0.2,0,0.2,0c0.1,0.1,0.1,0.3,0.2,0.5c0.1,0.3,0.4,0.5,0.7,0.5
		c0.3,0,0.7,0,1.2,0c0.4,0,0.9,0,1.3,0c0.6,0,1.1,0,1.5-0.1c0.1,0,0.2,0,0.3,0c0,0.1,0,0.3,0,0.5c0,1.3-0.1,2.5-0.2,3.8
		c-0.1,1.5-0.3,3.1-0.2,4.7c0,0.3,0.2,0.6,0.5,0.7l0.2,0H84c0.1,0,0.1,0,0.2,0c0.1,0.2,0.3,0.3,0.7,0.4c0,0.1,0.1,0.1,0.2,0.2
		c0,0,0,0,0.1,0c0.1,0.2,0.3,0.3,0.5,0.5l0.1,0c0.1,0.2,0.3,0.3,0.6,0.4c0.1,0,0.2,0,0.4,0.2c0.2,0.1,0.5,0.4,1.1,0.4
		c0.1,0,0.2,0,0.4,0c0.1,0,0.2,0,0.3,0c0.2,0,0.2,0,0.2,0c0.2,0.3,0,1.6-0.1,2.4c-0.3,1.5-0.5,2.9,0.2,3.7c0.3,0.3,0.6,0.4,1.5,0.5
		c0.8,0.1,1.2,0.2,1.5,0.2c-0.2,0.2-0.3,0.4-0.3,0.7c-0.1,1,0.9,2,0.9,2c0.3,0.3,0.7,0.3,1.1,0.3c0,0,0.5,0,0.9-0.1
		c0,0.4,0,1.1,0.5,1.5c0.1,0,0.1,0.1,0.2,0.2c-0.1,0.2-0.1,0.5,0.1,0.8c0,0.2,0.1,0.6,0.1,0.7c0,0.4,0.3,0.7,0.6,0.7
		c0,0,0.1,0,0.2,0.1c0,0,0,0,0,0c0,0.2,0,0.3,0,0.5c0,0.2,0.1,0.4,0.3,0.6c0.1,0.1,0.3,0.2,0.5,0.2c0,0,0.1,0,0.1,0
		c0.1,0,0.3,0,0.4,0c0.2,0,0.3,0,0.5,0.1c0,0,0,0,0,0c0,0.2-0.1,0.3-0.1,0.5c0,0.4,0.1,0.7,0.1,0.9c0,0,0,0.1,0,0.1
		c-0.2,0.3-0.2,0.6-0.2,0.8c0.1,0.5,0.6,0.9,0.9,1.1l0.2,0.1c0.5,0.4,0.5,0.4,0.6,1.3c0.2,1.5,1.1,1.7,1.5,1.7
		c0.5,0,0.9-0.2,1.3-0.5c0.1,0.1,0.3,0.2,0.4,0.2c0.4,0,0.5,0.2,0.5,0.4c0.1,0.4,0,0.9-0.3,1.2c-0.6,0.6-1.2,2-0.9,2.9
		c0.1,0.5,0.5,0.7,0.8,0.9c0,0,0,0,0,0.1c0,0.2,0.1,0.4,0.4,0.6c-0.8,0-1.7-0.1-2.5-0.1l-0.9,0c-0.2,0-0.4,0-0.6,0
		c-0.3,0-1.3,0-1.8,0.7c-0.4,0.5-0.3,1.1-0.3,1.4c0,0.1,0,0.2,0,0.2c0,0,0,0-0.1,0.1c-0.7,0.3-1,0.9-1.2,1.5L95.4,97
		c-0.2,0.5-0.1,1.1-0.1,1.7h0c-0.2,0-0.3,0-0.5,0.1c-0.7,0.3-0.6,1.1-0.6,1.5c-0.1,0.3-0.5,0.5-0.7,0.5c-0.2,0.1-0.6,0.2-0.8,0.6
		c0,0,0,0-0.1,0c0,0-0.2,0-0.2,0c-0.2,0-0.4,0.2-0.5,0.3c-0.2,0.1-0.7,0.4-0.9,0.9c0,0.1-0.2,0.2-0.3,0.4c-0.1,0-0.2,0.1-0.3,0.2
		c-0.2,0.1-0.2,0.3-0.2,0.4c-0.1,0.1-0.4,0.5-0.8,1c-0.1-0.1-0.2-0.1-0.4-0.2c-0.1,0-0.2,0-0.3,0c-0.2,0-0.5,0-0.8,0.1
		c-0.1,0-0.2,0-0.3,0.1c-0.4,0-0.7,0.3-0.7,0.6c-0.1,0.3,0,0.6,0.2,0.8c0.3,0.4,0.9,0.6,1.4,0.7c0,0.1,0.1,0.2,0.1,0.3
		c0.3,0.6,1,0.7,1.5,0.8c0,0,0,0,0,0.1c0.1,0.2,0.3,0.7,0.8,0.8c0,0.1,0.1,0.2,0.2,0.3c0.4,0.6,0.9,1.3,1.5,1.5l0,0
		c0.4,0.7,1.3,0.7,1.6,0.7c0.6,0,1.2-0.1,1.7-0.2l0.3,0c0.1,0,0.1,0,0.2,0c0,0,0.1,0,0.1,0c0,0.2-0.1,0.7-0.1,1
		c-0.1,0.3-0.1,0.6-0.1,0.9c-0.1,1.6-0.1,3.2-0.1,4.6l0,1.2c-0.1,0.1-0.2,0.1-0.2,0.2C95.6,119.2,95.7,120,95.8,120.8z M42,106.1
		l-0.2,0c-0.1,0-0.2-0.1-0.3-0.1c-0.2-0.1-0.3-0.1-0.5-0.1c-0.2,0-0.4,0-0.5,0.1c-0.7,0.3-1,0.9-0.8,1.7c-0.3,0.1-0.6,0.3-0.9,0.7
		l-0.5,0.7c-0.1,0.1-0.1,0.1-0.3,0.2c-0.2,0.1-0.5,0.3-0.8,0.7c0,0-0.1,0-0.2,0.1c-0.2,0-0.5,0.1-0.8,0.3c0,0-0.1,0-0.1,0
		c-0.2-0.1-0.5-0.1-0.7-0.1c-0.3,0-0.6,0.1-0.8,0.4c-0.1,0.1-0.1,0.3-0.3,0.5c-0.6,1.2-0.9,1.5-0.9,1.5c0,0-0.1-0.1-0.3-0.4
		c-0.3-0.5-0.7-0.9-1.1-1.2c-0.6-0.4-0.6-0.5-0.6-0.8c0-0.2,0-0.4-0.2-0.6c-0.2-0.3-0.6-0.3-0.7-0.3c-0.1,0-0.4,0-0.4,0
		s-0.6,0-0.7,0c0.2-0.4,0.4-0.9,0.1-1.4c0.6-0.2,1.1-0.9,1.2-1.5c0-0.1,0-0.2,0-0.2c0.5-1-0.3-1.7-0.6-2.1c-0.3-0.3-0.4-0.4-0.4-0.5
		c0-0.2,0.3-0.5,0.5-0.8c0.2-0.3,0.5-0.6,0.6-0.9c0,0,0.2-0.1,0.3-0.1c0.1,0,0.2-0.1,0.4-0.1c0,0,0.1,0,0.2,0
		c0.2,0.1,0.4,0.1,0.5,0.1c0.4,0,0.6-0.3,0.7-0.4c0.8-1.1,0.6-1.8,0.1-2.7l0-0.1c0.1-0.1,0.2-0.2,0.4-0.4c0.1-0.2,0.2-0.4,0.2-0.6
		c0-0.2-0.2-0.4-0.4-0.5c-0.1,0-0.2-0.2-0.3-0.3c-0.2-0.2-0.3-0.4-0.6-0.6c-0.1,0-0.1-0.1-0.2-0.1c0-0.2,0-0.3-0.1-0.5
		c-0.1-0.2-0.2-0.3-0.3-0.4c0,0,0.1-0.1,0.1-0.1c0.3-0.3,0.6-0.8,0.5-1.4c-0.1-0.5-0.4-0.9-1.2-1.3c0-0.1,0.3-0.3,0.5-0.3
		c0.1,0.2,0.3,0.2,0.6,0.2l0.2,0l0.1,0c0.3-0.1,0.5-0.4,0.5-0.7c0-0.2,0-0.6-0.1-1.1c-0.1-0.9-0.2-1.5-0.1-1.6
		c0.7-0.2,1-0.7,0.8-1.6c0-0.1,0.1-0.4,0.2-0.5c0.2-0.5,0.5-1.1,0.2-1.8c0.1-0.1,0.1-0.1,0.2-0.3c0.1-0.1,0.2-0.2,0.3-0.3
		c0.7-0.9,0.4-1.8,0.2-2.2c0,0,0-0.1-0.1-0.2c0.1,0,0.1,0,0.2-0.1c0.8-0.2,1.1-1.5,1.2-2.3c0-0.2,0-0.5,0-0.6c0.4-0.4,0.6-1,0.5-1.6
		c-0.1-0.9-0.7-1.8-1.8-1.8c-0.1,0-0.2,0-0.3,0c-0.9,0.2-1.2,0.4-1.7,0.7l-0.2,0.2c-0.1,0-0.2-0.1-0.3-0.2c-0.3-0.2-0.7-0.4-1.1-0.4
		c-0.1,0-0.3,0-0.4,0.1c-0.2,0.1-0.3,0.1-0.4,0.1c-0.1,0-0.3,0-0.3-0.6c0.5-0.6,0.2-1.2-0.1-1.7c-0.3-0.5-0.8-0.6-1.1-0.6
		c-0.1-0.2-0.4-0.3-0.6-0.3l-0.2,0l-0.1,0c-0.1,0.1-0.3,0.1-0.4,0.3c0-0.3-0.2-0.6-0.4-0.8c0-0.3-0.1-0.6-0.4-0.8
		c-0.1-0.1-0.2-0.1-0.4-0.1c-0.1,0-0.2,0-0.3,0.1c-0.1-0.1-0.2-0.3-0.3-0.3c-0.2-0.2-0.3-0.4-0.6-0.6c-0.2-0.1-0.4-0.2-0.5-0.2
		c0,0,0,0,0,0c-0.1-0.3-0.3-0.7-0.4-1c0-0.1,0.1-0.2,0.1-0.3c0.3-1.4-0.3-2.1-1-2.8c-0.2-0.2-0.3-0.3-0.5-0.6
		c-0.1-0.1-0.2-0.2-0.3-0.2c-0.4-0.1-0.4-0.2-0.6-0.7c-0.1-0.3-0.2-0.6-0.4-1c-0.1-0.3-0.3-0.5-0.5-0.7c-0.2-0.2-0.3-0.4-0.4-0.5
		c0-0.3-0.1-0.6-0.1-0.8L20.3,62L20.2,62c-0.2-0.2-0.3-0.3-0.4-0.4c-0.2-0.1-0.2-0.2-0.3-0.4c-0.2-0.4-0.7-0.8-1.2-1.2
		c-0.4-0.3-0.7-0.6-0.9-0.7c0.2-1.5-0.7-2.1-1.3-2.5c-0.1-0.1-0.3-0.2-0.4-0.3c-0.3-0.2-0.7-0.3-1-0.4c-0.2-0.1-0.6-0.1-0.6-0.2
		c-0.1-0.2-0.4-0.3-0.7-0.3c0,0-0.1,0-0.1,0c-0.2-0.2-0.5-0.6-1.1-1.5c-0.5-0.8-0.7-1-1-1.2c-0.2-0.1-0.3-0.2-0.5-0.2
		c-0.1-0.4-0.4-0.7-0.8-1c0.1,0,0.2,0,0.3-0.1c0.8-0.2,1.1-0.8,1-1.3c-0.1-0.6-0.7-1-1.3-1.1c0,0-0.1-0.1-0.1-0.1
		c0,0,0.1-0.1,0.1-0.1c0.1-0.2,0.1-0.5,0-0.7c-0.1-0.2-0.3-0.4-0.5-0.5c0.8-0.6,1-1.3,0.7-2.3c-0.2-0.5-0.4-0.8-0.5-0.8
		c0,0,0-0.1,0.1-0.4c0.2-0.8-0.3-1.5-0.7-1.9c-0.2-0.2-0.3-0.4-0.4-0.6c-0.2-0.7-0.8-0.8-1.1-0.8c0-0.2,0-0.4,0-0.5
		c0-0.2,0-0.3,0-0.5C7.4,39,7.1,38.4,6.7,38c-0.1-0.1-0.3-0.2-0.6-0.2c0,0,0,0,0,0c-0.5-0.7-1.5-2.4-1.5-2.7c0-0.7-0.5-1-0.7-1.1
		c-0.1-0.1,0-0.6,0-0.8C3.9,32.2,4,31.1,4.1,30l0.3-2.6C4.6,25.4,4.9,23.2,5,21c0.1-2.3,0.4-4.6,0.6-6.9c0.3-3.3,0.7-6.7,0.8-10
		c1.4,0.1,2.8,0.2,4.3,0.3c1.6,0.1,3.4,0.1,5.2,0.4c2.9,0.4,5.9,0.7,9.7,0.9c2.5,0.2,5,0.3,7.5,0.4c4.1,0.2,8.4,0.5,12.5,0.8
		C51.8,7.3,58.2,7.7,65.9,8c3.2,0.1,6.4,0.2,9.6,0.3c0.7,0,1.4,0.1,2.1,0.1l0.2,0c0.8,0,1.6,0.1,2.5,0.1c0.2,0,0.4,0,0.6,0
		c0.2,0,0.4,0,0.7,0c0.2,0,0.3,0,0.4,0c0,0.3,0,0.6,0,0.8c0,0.1,0,0.3,0,0.4c0,1.3-0.1,2.5-0.1,3.8l0,0.4c-0.1,2.4-0.2,4.9-0.1,7.3
		l0,0.3c0.1,0.8,0,1.2,0,1.4c-0.3,0-0.7-0.1-1.1-0.2c-0.4-0.1-0.7-0.1-1.1-0.1c-0.1,0-0.3,0-0.6-0.1c-0.8-0.1-1.7-0.2-2.6-0.2
		c-0.7,0-2.5,0-2.7,1.3c-0.1,0.6-0.1,1.1-0.1,1.7c0,0.3,0,0.6,0,0.9c0,0.1,0,0.2-0.1,0.4c-0.1,0.4-0.2,0.8-0.2,1.2c0,0,0,0,0,0
		c-0.4,0-0.9,0-1.4-0.1c-0.4,0-0.7-0.1-0.9-0.1c-1.1,0-2.2-0.1-3.3-0.1l-1.8-0.1c-0.4,0-0.9,0-1.3-0.1l-0.2,0
		c-1.1,0-2.1-0.1-3.3-0.2c-0.3,0-1.2-0.2-1.8-0.2c-0.5,0-1.1,0.1-1.4,0.5c-0.2,0.3-0.2,0.6,0,0.9c0.3,0.6,1.4,1.5,1.8,1.7
		c0.2,0.1,0.3,0.1,0.2,0.8c0,0.3-0.1,0.7,0,1.1c0.1,0.6,0.6,0.7,1.2,0.9c0.2,0.1,0.6,0.2,0.7,0.3c0.5,0.5,1.3,0.5,1.6,0.5
		c0.1,0.2,0.2,0.4,0.4,0.6c0.1,0.1,0.3,0.1,0.4,0.1l0.1,0l0.1,0c0.1,0,0.1,0,0.2-0.1c0,0,0,0.1,0.1,0.1c0.1,0.5,0.2,1.1,0.8,1.5
		c-0.1,0.1-0.1,0.3-0.1,0.5c0.1,0.4,0.4,0.6,1,0.9c0.1,0.1,0.2,0.2,0.3,0.4c-0.1,0.1-0.2,0.2-0.3,0.4c0,0.1-0.2,0.1-0.5,0.1
		c-0.4,0-0.9,0.1-1.2,0.6c0,0,0,0.1-0.1,0.1c-0.1,0.1-0.2,0.2-0.3,0.3c0,0-0.1,0.2-0.2,0.2c-0.5,0-1.3,0.1-1.7,0.7
		c-0.1,0.2-0.3,0.6-0.1,1.2c0.1,0.2,0.2,0.4,0.2,0.5c0.2,0.5,0.3,0.6,0.2,1.2c-0.1,0.6-0.2,1.3-0.4,1.9c-0.1,0-0.1,0-0.2,0
		c-0.4,0.1-0.9,0.1-1.3,0.5c-0.7,0.9-0.2,1.8,0,2.3c0.1,0.1,0.2,0.4,0.2,0.5c-0.1,0.3-0.2,0.6-0.2,0.8c0,0.2,0,0.3-0.1,0.3
		c0,0-0.1,0.1-0.6,0.1c-0.8,0-1.9-0.2-2.6-0.4c-0.3-0.1-0.6-0.1-0.8-0.2c-0.2,0-0.4,0-0.6,0c-0.7,0-1.2,0.2-1.6,0.6
		c-0.7,0.7-0.7,1.7-0.7,2.8c0,0.3,0,0.6,0,0.9c-0.1,1.1-0.1,2.2-0.2,3.3c-0.1,1.5-0.1,3.2-0.3,4.8c-0.1,0.7,0.1,1.2,0.4,1.5
		c0.4,0.5,1,0.5,1.4,0.5c0.2,0,0.4,0,0.6,0c0.2,0,0.3,0,0.5,0c0.3,0,0.5,0.1,0.5,0.1c0.1,0.1,0,0.9,0,1.1c0,0.2-0.1,0.3-0.1,0.5
		C57,66.1,57,67.3,57,68.4c0,0.4,0,0.8,0,1.3c0,0.9,0,1.7-0.1,2.6c0,0.1,0,0.2,0,0.2c-0.1,0-0.2,0-0.4-0.1c-0.2,0-0.5-0.1-0.8-0.1
		c-0.6,0-1.1,0.3-1.4,1h0c-1.1,0-1.4,0.8-1.4,1.3c0,0.1,0,0.2,0,0.3c-0.1,0-0.1,0-0.2,0c-0.8,0-1.1,0.6-1.3,0.8c0,0-0.1,0-0.2,0
		l-0.2,0c-0.2,0-0.5-0.1-0.8-0.1c-0.5,0-0.8,0.1-1.1,0.4c-0.2,0.2-0.4,0.5-0.3,1c0,0.2,0,0.3,0,0.3h0c0,0-0.1,0-0.3,0
		c-0.3,0-0.6,0-1-0.1c-0.2,0-0.3-0.1-0.5-0.1c-0.2,0-0.4,0-0.5,0c-0.2,0-0.7,0-0.9,0.4c-0.3,0.5,0,1.1,0.1,1.3c0,0.1,0,0.3,0,0.6
		c-0.6,0.3-0.7,1.2-0.8,1.8c0,0.1-0.1,0.3-0.3,0.4c-0.3,0.3-0.7,0.9-0.5,1.6l0.2,0.5c0.1,0.4,0.2,0.7,0.2,1.1c0,0.7,0.4,1.1,0.8,1.5
		c0.1,0.1,0.3,0.3,0.3,0.4c0.2,0.6,0.2,1,0.1,1.7c0,0.2,0,0.3,0,0.5c0,0.6,0.2,0.9,0.5,1.2c0,0,0,0,0,0c-0.1,0.1-0.2,0.1-0.3,0.2
		c-0.4,0.3-1.5,0.9-1,2.1c0,0,0.1,0.1,0.4,0.3c0,0.5,0.2,1,0.4,1.4c0.1,0.2,0.2,0.5,0.3,0.6c0,0-0.1,0.1-0.2,0.3
		c-0.4,0.5-0.9,1.3-0.7,2c0.1,0.3,0.3,0.6,0.6,0.8c0.2,0.1,0.4,0.2,0.6,0.2c0.3,0,0.6-0.1,0.9-0.4c0.1,0,0.2,0,0.2,0
		c0.1,0.1,0.1,0.2,0.2,0.3c0.1,0.1,0.1,0.1,0.2,0.4c0,0.1,0.1,0.3,0.1,0.6c0.1,0.4,0.3,1.1,1.1,1.1c0,0,0.1,0,0.2,0
		c0.1,0.1,0.3,0.2,0.6,0.5c0.2,0.2,0.5,0.3,0.8,0.3c0,0,0.1,0,0.1,0c-0.1,0.3-0.1,0.4-0.2,0.6c-0.4,0.1-1,0.2-1.3,0.6
		c-1.5,0.1-3.4,0.8-4,1.9c-0.1,0.1-0.2,0.2-0.3,0.4c-0.1,0.2-0.2,0.3-0.2,0.3c0,0,0,0,0,0c-0.3-0.5-0.7-0.7-1.1-0.7
		c-1,0-1.3,1.3-1.4,2.2c0,0,0,0-0.1,0C42.1,106,42,106,42,106.1z M163.9,75.8c-0.5,0-1.1,0-1.6,0.1c-2.1,0.1-4.1,0.1-6.2,0.1
		c-2.8,0-5.8,0-8.6,0.2c-0.4,0-0.8,0-1.3,0c-0.7,0-1.5,0-2.3-0.1l-0.2,0c-0.8,0-1.6-0.1-2.5-0.1l-0.7,0c0,0-0.4,0-0.6,0
		c-1.5,0-1.8,0.8-1.9,1.2c-0.1,0.8-0.1,1.6-0.1,2.4c0,0.3,0,0.5,0,0.8c0,0.1,0,0.5,0,0.5c0,0.9,0.1,1.7,0.2,2.3c0,0.3,0,0.6,0,0.9
		c0,0.1,0,0.2-0.1,0.3c-0.1,0.2-0.2,0.5-0.3,0.9c0,0.1,0,0.2,0,0.3c-0.1,0.4-0.1,0.7-0.1,1c0,0.5,0,1.1,0,1.6c0,0.6,0,1.2,0,1.9
		c0,0.3,0.1,0.5,0.1,0.8c0,0.4,0.1,0.8,0.1,1.1c-0.4-0.1-0.9-0.1-1.4-0.1c-0.9,0-2.5,0.3-3.4,0.4v0l-1.3,0c-0.9,0-1.9,0-2.8,0
		c-1.8,0-3.7,0-5.6-0.1c-0.1,0-0.3,0-0.6-0.1c-0.5-0.1-1-0.1-1.5-0.1c-0.7,0-1.2,0.2-1.6,0.5c-0.2,0.2-0.3,0.5-0.4,0.8
		c-0.1,0-0.2,0-0.4,0c-0.6,0-1.5-0.2-2.3-0.3c-0.5-0.1-0.9-0.2-1.1-0.2h0h0c-0.6,0-1.2,0-1.9,0c-1.2,0-2.4,0-3.7-0.1
		c-0.8,0-1.6,0-2.5-0.1c-0.4,0-0.8,0-1.3,0.1c-0.4,0-0.8,0.1-1.2,0.1c-0.3,0-0.5,0-0.7,0l0,0c0-0.2-0.1-0.6-0.3-0.9
		c0-0.2,0-0.4-0.2-0.6c-0.2-0.4-0.6-0.5-0.8-0.5c-0.1-0.3,0.2-1.2,0.5-1.4c0.7-0.7,1-1.8,0.7-2.7c-0.2-0.5-0.5-1-1-1.2
		c0,0,0,0,0-0.1c-0.2-0.4-0.5-0.6-0.9-0.6c-0.4,0-0.8,0.2-1.1,0.4c-0.2,0.1-0.5,0.3-0.5,0.3c0,0-0.1-0.1-0.1-0.4
		c-0.1-1.1-0.2-1.4-1.1-2.2c-0.1-0.1-0.2-0.1-0.3-0.2l-0.2-0.1c0.2-0.4,0.1-0.8,0-1c0-0.2-0.1-0.3-0.1-0.4c0-0.1,0-0.2,0.1-0.3
		c0.1-0.3,0.3-1.3-0.7-1.7c-0.2-0.1-0.5-0.2-0.9-0.2c0-0.5-0.4-0.8-0.6-0.9c0,0-0.1-0.1-0.3-0.2c0-0.2-0.1-0.4-0.1-0.6
		c0.1-0.2,0.1-0.3,0.1-0.5c0-0.6-0.5-0.9-0.7-1.1l-0.1-0.1c0-0.1,0-0.3,0-0.4c0-0.4,0-0.9-0.3-1.4c-0.1-0.2-0.4-0.3-0.6-0.3
		c-0.2,0-0.3,0-0.4,0.1c-0.2,0.1-0.7,0.2-1.1,0.2c0,0-0.1,0-0.1,0c-0.1-0.2-0.3-0.4-0.3-0.6c0.5-0.4,0.7-0.8,0.6-1.3
		c-0.2-0.9-1.4-1.1-3.2-1.4c-0.2,0-0.5-0.1-0.6-0.1c-0.2-0.5,0-1.6,0.2-2.4c0.3-1.4,0.5-2.8-0.2-3.6c-0.3-0.4-0.8-0.6-1.4-0.6
		c-0.2,0-0.4,0-0.7,0.1c0,0,0,0-0.2-0.1c-0.2-0.1-0.4-0.3-0.8-0.4c0,0-0.2-0.2-0.3-0.2c0-0.1-0.1-0.3-0.2-0.4
		c-0.1-0.5-0.4-0.7-0.5-0.7c-0.1,0-0.2-0.1-0.3-0.1c-0.1-0.1-0.2-0.2-0.4-0.3c-0.1,0-0.1,0-0.3-0.1c0-1.3,0.1-2.5,0.2-3.8
		c0.1-1.2,0.2-2.6,0.2-3.9c0-0.6,0-1.2-0.4-1.7c-0.3-0.3-0.6-0.4-1-0.4c-0.2,0-0.4,0-0.6,0.1c-0.3,0.1-0.7,0.1-1.2,0.1
		c-0.4,0-0.8,0-1.2,0l-0.7,0c-0.4-0.8-0.8-1.2-1.3-1.2l-0.1,0C78.2,51,77.9,51,77.6,51c0-0.1-0.1-0.3-0.1-0.5c0-0.2-0.1-0.4-0.1-0.5
		c-0.2-0.7-0.9-0.9-1.5-1.1c-0.2,0-0.5-0.2-0.6-0.2C75,48.3,74.7,48,74.2,48c-0.3,0-0.4,0.1-0.6,0.2c-0.1,0.1-0.2,0.1-0.5,0.2
		c-0.2,0-0.5,0.1-0.8,0.2c-0.3,0.1-0.7,0.2-0.9,0.2c-0.2-0.1-0.4-0.1-0.6-0.1c-0.3,0-0.6,0.1-0.9,0.3c-0.1,0-0.1,0.1-0.2,0.1
		c-0.1,0-0.3,0.1-0.3,0.1c-0.2,0-0.3-0.1-0.7-0.6c-0.2-0.3-0.5-0.6-0.9-0.9c-0.1,0-0.1-0.1-0.2-0.1c0-0.1,0-0.5,0-1.1
		c0-0.6,0-1-0.2-1.3c-0.1-0.2-0.1-0.3,0-0.8c0.1-0.3,0.2-0.8,0.2-1.3c-0.1-1-0.6-2.1-1.1-3c0.4,0,1-0.2,1.3-0.7
		c0.9-0.2,0.7-1.1,0.7-1.4c-0.1-0.6-0.5-1.1-1-1.5c0-0.1,0.1-0.3,0.1-0.4c0-0.3-0.2-0.6-0.5-0.7c-0.4-0.1-0.5-0.3-0.5-0.6
		c0.1-0.1,0.1-0.1,0.1-0.2c0.1-0.3,0-0.6-0.2-0.8c-0.4-0.3-0.8-0.5-1.4-0.6c-0.1-0.3-0.3-0.5-0.6-0.6l-0.2-0.1h-0.1
		c-0.2,0-0.4,0.1-0.5,0.2c-0.2,0-0.4-0.1-0.4-0.1h0c-0.3-0.3-0.8-0.5-1.3-0.7c-0.1,0-0.1,0-0.2-0.1c0-0.1,0-0.2,0-0.4
		c0.1-0.6,0.2-1.6-1-2.2c-0.1,0-0.2-0.1-0.4-0.3c0.4,0,0.7,0.1,0.9,0.1c1.1,0.2,2.2,0.2,3.3,0.2c0.5,0,1,0,1.5,0.1l1.4,0.1
		c1.2,0.1,2.4,0.1,3.6,0.2c0.2,0,0.5,0,0.8,0.1c0.5,0.1,1,0.1,1.5,0.1c0.7,0,1.1-0.1,1.5-0.4c0.2-0.1,0.3-0.4,0.3-0.6
		c0-0.2-0.1-0.5-0.2-0.5c0-0.1,0-0.3,0.1-1c0.1-0.2,0.1-0.5,0.1-0.6c0-0.3,0-0.7,0-1.1c0-0.4,0-0.8,0-1.2c0.1,0,0.5-0.1,1.2-0.1
		c0.8,0,1.8,0.1,2.4,0.2c0.3,0,0.5,0.1,0.6,0.1c0.3,0,0.6,0.1,1,0.1c0.5,0.1,0.9,0.2,1.4,0.2c0.4,0,0.7-0.1,0.9-0.4
		c0.5-0.6,0.5-1.6,0.4-2.6l0-0.2c-0.1-2.3,0-4.8,0.1-7.2l0-0.4c0.1-1.3,0.1-2.6,0.1-3.9c0-0.2,0-0.4,0-0.6c0-0.1,0-0.2,0-0.3
		c0.4,0,1.2-0.1,3.1-0.1c3.3,0,7.9,0.2,10.8,0.3c1,0,1.7,0.1,2,0.1c2.8,0,5.6,0.1,8.5,0.2l0.5,0c4.1,0.1,8.4,0.2,12.5,0.2
		c2.2,0,4.4,0,6.7,0c2.6,0,5.2,0,7.7,0c2.4,0,4.9,0,7.3,0l6.3,0c1.6,0,3.1,0,4.7,0c1.6,0,3.3-0.1,5-0.1c0.3,0,0.7,0,1.1,0
		c0.3,0,0.6,0,0.9,0l0-0.4c0,0,0,0,0,0l0.1,0.4c0,0,0.3,0,0.4,0c0.1,0.6,0.1,0.9,0.1,1.1c-0.1,0.1-0.3,0.2-0.4,0.3
		c-0.5,0.5-0.4,1.4-0.2,2.4l0,0.2c0,0.1,0,0.3,0.1,0.5c0.2,1.4,0.1,1.7,0.2,1.7c0,0-0.1,0-0.2,0c-0.3,0-1,0.2-1.2,1
		c-0.2,0.9-0.1,1.8,0,2.7c0.1,0.5,0.1,0.9,0.1,1.4c0,0.3,0,0.3-0.2,0.5c-0.2,0.2-0.5,0.6-0.5,1.3c0,0.5,0,1,0.1,1.6
		c0,0.2,0,0.5,0,0.7c-0.1,0-0.1-0.1-0.2-0.1l-0.2,0h-0.1c-0.2,0-0.4,0.1-0.6,0.3c-0.4,0.4-0.4,2.1-0.4,2.3c0.2,0.9,0.2,1.9,0.2,2.9
		l0,0.2c0,0.1,0,0.3,0,0.5c0,0.5,0,0.7,0,0.8c-0.7,0.3-0.6,1.2-0.5,2.7c0,0.2,0,0.3,0,0.3c0,0.5,0,1,0.1,1.6c0.1,1,0.2,2,0,2.6
		c0,0,0,0-0.2,0c-0.3,0-0.8-0.1-1.2-0.2c-0.4-0.1-0.8-0.2-1.2-0.2h0c-1.4,0-1.3,1.3-1.3,1.8c0,0.1,0,0.2,0,0.3
		c-0.1,0-0.4,0.1-0.9,0.1l-0.2,0c-0.2,0-0.5,0-0.9-0.1c-0.5-0.1-1-0.2-1.5-0.2c-1.6,0-2,0.9-2,1.4l-0.1,0.5c-0.3,1.6-0.7,4,0.4,5.3
		l0.1,0.1c0.9,0.7,1.3,1.1,1.6,1.3c0,0,0,0.1,0,0.1c0,0.2,0.1,0.4,0.2,0.5c0.1,0.1,0.2,0.2,0.3,0.2c0.2,0.4,0.6,0.6,1,0.6
		c0.1,0,0.2,0,0.3,0c0.1,0.2,0.4,0.4,0.7,0.5c0.4,0.1,1.8,0.5,2.8,0.5c0.2,0,0.5,0,0.7-0.1c0.2,0.2,0.5,0.5,1,0.6
		c0.2,0,0.3,0,0.5-0.1c0.1,0.1,0.1,0.2,0.3,0.2c0.2,0.1,0.4,0.2,0.6,0.2c0.1,0,0.2,0,0.3-0.1c0.1,0.1,0.3,0.2,0.4,0.2
		c0.4,0.2,1,0.2,1.1,0.2c0.6,0,0.8-0.4,0.9-0.6c0,0,0,0,0,0c0.1,0,0.1,0,0.2,0c0.3,0,0.6,0,0.9,0.1c0.4,0,0.7,0.1,1,0.1l0.2,0
		c0.4,0,0.8-0.1,1.2-0.2c0.4-0.1,0.8-0.1,1.2-0.1c0.4,0,0.8,0.1,1.1,0.2c0.8,0.3,0.9,0.5,1.1,1.6c0,0.2,0,0.6-0.1,0.9
		c-0.1,0.4-0.2,0.8-0.1,1.2c0,0.1,0,0.2,0.1,0.3c0,0.1,0,0.3,0,0.4c-0.1,0.1-0.2,0.3-0.2,0.6c-0.4,0.6-0.7,1.7-0.7,2
		c0,0.2,0,0.3,0.1,0.5c0,0,0,0,0,0c-0.2,0.3-0.2,0.6-0.1,0.9c0,0.1,0,0.2,0,0.2c0,0,0,0.1,0,0.1l0,0c-0.1,0.1-0.2,0.4,0,0.9
		c0,0.1,0,0.1,0,0.2c0,0.3,0.2,0.5,0.4,0.7c-0.1,0.1-0.1,0.3-0.1,0.5c0,0.2,0.1,0.3,0.2,0.5c-0.1,0.1-0.2,0.3-0.2,0.5
		c0,0.1,0,0.2,0,0.3c0,0.1-0.1,0.2-0.1,0.2c0,0.1,0,0.2,0,0.3c0,0.1,0,0.2,0,0.3c0,0.1,0.1,0.2,0.1,0.3c-0.1,0.1-0.1,0.2-0.1,0.4
		c0,0.2,0.1,0.4,0.2,0.5c0,0,0,0,0,0c0,0.3,0.1,0.7,0.4,0.8c0,0.2-0.1,0.4,0,0.5c0,0.2,0.1,0.3,0.2,0.4c0,0,0,0.1,0,0.1
		c-0.1,0.3-0.1,0.5-0.1,0.6c0,0.2,0.2,0.4,0.5,0.6c0,0-0.1,0.1-0.1,0.1c-0.2,0.2-0.3,0.5-0.2,0.8c0,0.1,0,0.1,0.1,0.2
		c0,0,0,0.1,0,0.1c0,0,0,0-0.1,0.1c-0.1,0.1-0.2,0.3-0.2,0.4c-0.1,0.2-0.1,0.4,0,0.6l0,0.1c-0.1,0.3-0.3,0.5-0.3,0.8
		c0,0.2,0.1,0.6,0.5,1l-0.4,0.4l0.9,0.5l-0.4,0l1.2,1.2l-0.1,0.3c-0.1,0-0.1,0-0.2,0c-0.4,0-0.9,0-1.2-0.1l-0.4,0c-0.5,0-1,0-1.5,0
		C165.7,75.8,164.8,75.8,163.9,75.8z"/>
	<g>
		<path class="st0" d="M287.7,43.2L276,10h4.7l9.5,28.7h0.1l9.6-28.7h4.6l-11.8,33.2H287.7z"/>
		<path class="st0" d="M316.3,10v33.2h-4.4V10H316.3z"/>
		<path class="st0" d="M344.1,14.5c-1.5-1.1-3.4-1.6-5.6-1.6c-0.9,0-1.8,0.1-2.7,0.3c-0.9,0.2-1.7,0.5-2.4,0.9
			c-0.7,0.4-1.3,1-1.7,1.7c-0.4,0.7-0.6,1.6-0.6,2.7c0,1,0.3,1.8,0.9,2.5c0.6,0.6,1.4,1.2,2.4,1.6c1,0.4,2.1,0.7,3.4,1
			c1.3,0.3,2.6,0.6,3.9,0.9c1.3,0.3,2.6,0.7,3.9,1.1c1.3,0.4,2.4,1,3.4,1.7c1,0.7,1.8,1.6,2.4,2.7c0.6,1.1,0.9,2.4,0.9,4.1
			c0,1.8-0.4,3.3-1.2,4.5c-0.8,1.3-1.8,2.3-3,3.1c-1.2,0.8-2.6,1.4-4.2,1.7c-1.5,0.4-3.1,0.5-4.6,0.5c-1.9,0-3.6-0.2-5.3-0.7
			c-1.7-0.5-3.1-1.2-4.4-2.1c-1.3-0.9-2.2-2.2-3-3.6c-0.7-1.5-1.1-3.2-1.1-5.2h4.2c0,1.4,0.3,2.6,0.8,3.6c0.5,1,1.3,1.8,2.1,2.5
			c0.9,0.6,1.9,1.1,3.1,1.4c1.2,0.3,2.4,0.5,3.6,0.5c1,0,2-0.1,3-0.3c1-0.2,1.9-0.5,2.7-1c0.8-0.4,1.5-1.1,1.9-1.8
			c0.5-0.8,0.7-1.8,0.7-3c0-1.1-0.3-2.1-0.9-2.8c-0.6-0.7-1.4-1.3-2.4-1.7c-1-0.4-2.1-0.8-3.4-1.1c-1.3-0.3-2.6-0.6-3.9-0.9
			c-1.3-0.3-2.6-0.6-3.9-1c-1.3-0.4-2.4-0.9-3.4-1.5c-1-0.6-1.8-1.5-2.4-2.5c-0.6-1-0.9-2.3-0.9-3.8c0-1.7,0.3-3.1,1-4.3
			c0.7-1.2,1.6-2.2,2.7-3c1.1-0.8,2.4-1.4,3.9-1.8c1.4-0.4,2.9-0.6,4.4-0.6c1.7,0,3.3,0.2,4.7,0.6c1.5,0.4,2.7,1,3.8,1.9
			c1.1,0.9,2,2,2.6,3.3c0.6,1.3,1,2.9,1,4.7h-4.2C346.4,17.3,345.5,15.6,344.1,14.5z"/>
		<path class="st0" d="M365.9,10v33.2h-4.4V10H365.9z"/>
		<path class="st0" d="M373.5,13.7V10H400v3.7H389v29.4h-4.4V13.7H373.5z"/>
	</g>
</g>
</svg>
